<svg width="117" height="12" viewBox="0 0 117 12" fill="none" xmlns="http://www.w3.org/2000/svg">
<path fill-rule="evenodd" clip-rule="evenodd" d="M110.999 12C114.312 12 116.999 9.31371 116.999 6C116.999 2.68629 114.312 0 110.999 0C107.685 0 104.999 2.68629 104.999 6C104.999 6.56517 105.077 7.11209 105.223 7.63054C95.0549 9.38247 76.4572 10.5937 54.0913 6.37983C26.4294 1.16817 7.10321 4.19641 0.833008 6.39946L1.16449 7.34292C7.22762 5.21263 26.3681 2.17421 53.9062 7.36254C76.5127 11.6217 95.3206 10.376 105.582 8.5831C106.547 10.6039 108.61 12 110.999 12Z" fill="#1E959B" fill-opacity="0.25"/>
</svg>
