<svg width="120" height="12" viewBox="0 0 120 12" fill="none" xmlns="http://www.w3.org/2000/svg">
<path fill-rule="evenodd" clip-rule="evenodd" d="M6.99805 12C10.3118 12 12.998 9.31371 12.998 6C12.998 5.97674 12.9979 5.9535 12.9977 5.9303C21.4836 4.08688 38.7175 2.6227 61.9055 6.99145C89.5762 12.2048 111.556 9.17053 119.137 6.98045L118.859 6.01974C111.44 8.16299 89.6199 11.1954 62.0906 6.00874C38.9233 1.64389 21.603 3.05878 12.9026 4.92801C12.3972 2.1258 9.94585 0 6.99805 0C3.68434 0 0.998047 2.68629 0.998047 6C0.998047 9.31371 3.68434 12 6.99805 12Z" fill="#1E959B" fill-opacity="0.25"/>
</svg>
