<svg xmlns="http://www.w3.org/2000/svg" xmlns:xlink="http://www.w3.org/1999/xlink" width="760" height="600" viewBox="0 0 760 600">
  <defs>
    <clipPath id="clip-path">
      <rect id="Прямоугольник_107" data-name="Прямоугольник 107" width="570.604" height="109.475" fill="none"/>
    </clipPath>
  </defs>
  <g id="Сгруппировать_1515" data-name="Сгруппировать 1515" transform="translate(-94 -3801)">
    <g id="Сгруппировать_1484" data-name="Сгруппировать 1484" transform="translate(0 3714)">
      <g id="Сгруппировать_1260" data-name="Сгруппировать 1260" transform="translate(2658 3345)">
        <g id="Сгруппировать_1259" data-name="Сгруппировать 1259" transform="translate(-2564 -3258)">
          <g id="Сгруппировать_1040" data-name="Сгруппировать 1040" transform="translate(0)">
            <rect id="Прямоугольник_38" data-name="Прямоугольник 38" width="760" height="600" rx="75" fill="#005294"/>
          </g>
        </g>
      </g>
    </g>
    <g id="Сгруппировать_1384" data-name="Сгруппировать 1384" transform="translate(189 4046)">
      <g id="Сгруппировать_1383" data-name="Сгруппировать 1383" transform="translate(0 0)" clip-path="url(#clip-path)">
        <path id="Контур_4030" data-name="Контур 4030" d="M0,93.565l9.941-16.2a101.211,101.211,0,0,0,14.851,9.471,34.278,34.278,0,0,0,16.027,3.978,23.009,23.009,0,0,0,7.85-1.23,19.029,19.029,0,0,0,5.757-3.182,12.827,12.827,0,0,0,3.533-4.482,11.8,11.8,0,0,0,1.176-4.989,8.491,8.491,0,0,0-1.765-5.422,13.381,13.381,0,0,0-4.709-3.689,35.82,35.82,0,0,0-6.935-2.459q-3.995-1.007-8.309-1.878-2.881-.578-6.672-1.374a67.426,67.426,0,0,1-7.85-2.17,45.245,45.245,0,0,1-7.978-3.615A29.371,29.371,0,0,1,7.85,50.686a26.186,26.186,0,0,1-5.037-8.1,29.418,29.418,0,0,1-1.9-11.063q0-9.256,3.4-15.4a27.268,27.268,0,0,1,8.7-9.692A34.585,34.585,0,0,1,24.792,1.445,57.519,57.519,0,0,1,37.286,0,59.7,59.7,0,0,1,48.015.867,44.327,44.327,0,0,1,56.78,3.4a47.1,47.1,0,0,1,7.916,4.2q3.859,2.533,8.309,6L62.8,29.5a64.253,64.253,0,0,0-13.086-7.952A32.636,32.636,0,0,0,36.5,18.8a25.719,25.719,0,0,0-5.366.649,21.633,21.633,0,0,0-5.692,2.1A14.172,14.172,0,0,0,21,25.234a8.506,8.506,0,0,0-1.762,5.422,7.4,7.4,0,0,0,2.091,5.352,16.7,16.7,0,0,0,5.366,3.615,46.033,46.033,0,0,0,7.2,2.459q3.922,1.011,7.587,2.023,2.745.727,6.476,1.448a64.558,64.558,0,0,1,7.717,2.026,45.355,45.355,0,0,1,7.916,3.47,27.073,27.073,0,0,1,7,5.567A26.337,26.337,0,0,1,75.555,65a34.116,34.116,0,0,1,1.9,12.077,35.961,35.961,0,0,1-2.621,14.315,26.1,26.1,0,0,1-7.457,10.052,32.977,32.977,0,0,1-11.511,6,50.835,50.835,0,0,1-14.783,2.026,62.835,62.835,0,0,1-13.154-1.23,52.9,52.9,0,0,1-10.4-3.326,54.7,54.7,0,0,1-8.893-4.989Q4.449,97.038,0,93.565" transform="translate(0 0.001)" fill="#f6f6f6"/>
        <path id="Контур_4031" data-name="Контур 4031" d="M62.057,18.494V44.669h46.185V63.325H62.057v43.1H43.741V.561h70.387V18.494Z" transform="translate(80.18 1.03)" fill="#f6f6f6"/>
        <path id="Контур_4032" data-name="Контур 4032" d="M216.987.609h-1.813l-48.955,105.73h19.888l6.264-14.165,1.074-2.465h.113l9.831-20.115L216.081,40.1l13.6,31.957h-17.31v17.65h26.206l7.451,16.63h19.888Z" transform="translate(304.689 1.118)" fill="#f6f6f6"/>
        <path id="Контур_4033" data-name="Контур 4033" d="M182.005,70.845a31.13,31.13,0,0,0,14.48-12.871,39.6,39.6,0,0,0,5.442-20.968A43.006,43.006,0,0,0,199.5,22.328a34.952,34.952,0,0,0-6.751-11.57,29.923,29.923,0,0,0-10.417-7.522A33.064,33.064,0,0,0,168.9.562h-43.51V106.419H143.7V18.492h25.169a13.109,13.109,0,0,1,7.695,2.026A14.364,14.364,0,0,1,181,25.436a19.283,19.283,0,0,1,2.088,6.074,34.894,34.894,0,0,1,.518,5.5,20.489,20.489,0,0,1-1.366,7.808,18.31,18.31,0,0,1-3.459,5.567,13.273,13.273,0,0,1-4.757,3.326,13.646,13.646,0,0,1-5.153,1.085h-7.04V72.726q5.478,8.678,10.953,17.064T184,106.419h21.851q-11.78-17.929-23.849-35.575" transform="translate(229.852 1.031)" fill="#f6f6f6"/>
        <rect id="Прямоугольник_104" data-name="Прямоугольник 104" width="60.378" height="18.367" transform="translate(247.366 45.989)" fill="#f6f6f6"/>
        <rect id="Прямоугольник_105" data-name="Прямоугольник 105" width="68.053" height="17.933" transform="translate(247.366 1.592)" fill="#f6f6f6"/>
        <rect id="Прямоугольник_106" data-name="Прямоугольник 106" width="68.053" height="18.222" transform="translate(247.366 89.227)" fill="#f6f6f6"/>
      </g>
    </g>
  </g>
</svg>
