<svg xmlns="http://www.w3.org/2000/svg" width="760" height="600" viewBox="0 0 760 600">
  <g id="Сгруппировать_1540" data-name="Сгруппировать 1540" transform="translate(-2464 -3182)">
    <g id="Сгруппировать_1506" data-name="Сгруппировать 1506" transform="translate(2370 3095)">
      <g id="Сгруппировать_1260" data-name="Сгруппировать 1260" transform="translate(2658 3345)">
        <g id="Сгруппировать_1259" data-name="Сгруппировать 1259" transform="translate(-2564 -3258)">
          <g id="Сгруппировать_1040" data-name="Сгруппировать 1040" transform="translate(0)">
            <rect id="Прямоугольник_38" data-name="Прямоугольник 38" width="760" height="600" rx="75" fill="#2e2c41"/>
          </g>
        </g>
      </g>
    </g>
    <g id="Сгруппировать_1468" data-name="Сгруппировать 1468" transform="translate(2708 3328)">
      <path id="Контур_4233" data-name="Контур 4233" d="M.8,0,112.763,153.6l-1.276,1.748L0,308.374H48.01l87.51-120.06,24.039-32.971-.415-.593.415-.561-23.205-31.811L47.182,0Z" transform="translate(0 0)" fill="#656fff"/>
      <path id="Контур_4234" data-name="Контур 4234" d="M55.05,86.064l-3.62,4.956,73.5,100.863h46.411L74.635,59.211Z" transform="translate(101.185 116.493)" fill="#f05d6d"/>
      <path id="Контур_4235" data-name="Контур 4235" d="M122.412,0,51.46,97.359l3.647,5.018L74.666,129.17,168.79,0Z" transform="translate(101.245 0)" fill="#f05d6d"/>
    </g>
  </g>
</svg>
