<svg xmlns="http://www.w3.org/2000/svg" xmlns:xlink="http://www.w3.org/1999/xlink" width="760" height="600" viewBox="0 0 760 600">
  <defs>
    <clipPath id="clip-path">
      <rect id="Прямоугольник_111" data-name="Прямоугольник 111" width="632.312" height="146.056" fill="none"/>
    </clipPath>
  </defs>
  <g id="Сгруппировать_1523" data-name="Сгруппировать 1523" transform="translate(-884 -3182)">
    <g id="Сгруппировать_1490" data-name="Сгруппировать 1490" transform="translate(790 3095)">
      <g id="Сгруппировать_1260" data-name="Сгруппировать 1260" transform="translate(2658 3345)">
        <g id="Сгруппировать_1259" data-name="Сгруппировать 1259" transform="translate(-2564 -3258)">
          <g id="Сгруппировать_1040" data-name="Сгруппировать 1040" transform="translate(0)">
            <rect id="Прямоугольник_38" data-name="Прямоугольник 38" width="760" height="600" rx="75" fill="#fb3087"/>
          </g>
        </g>
      </g>
    </g>
    <g id="Сгруппировать_1413" data-name="Сгруппировать 1413" transform="translate(1515 5228)">
      <g id="Сгруппировать_1412" data-name="Сгруппировать 1412" transform="translate(-567 -1819)" clip-path="url(#clip-path)">
        <path id="Контур_4064" data-name="Контур 4064" d="M29.16,90.228c0-5.649-.141-11.3.029-16.946.374-12.427,6.044-21.778,17.486-26.709,11.329-4.882,22.152-3.185,31.49,5.16,1.777,1.587,2.642,1.441,4.255.022,9.39-8.252,20.141-10.076,31.511-5.233,11.858,5.051,17.41,14.817,17.681,27.473.245,11.431.113,22.871.026,34.306-.043,5.623-3.048,8.932-7.669,8.836s-7.2-3.354-7.212-9.128c-.017-11.436.082-22.872-.036-34.307A14.538,14.538,0,0,0,103.8,58.951c-6.472-.94-13.08,3.4-15.333,10a17.29,17.29,0,0,0-.671,5.711c0,11.16.014,22.321-.008,33.481-.01,5.644-2.8,8.99-7.413,8.992-4.668,0-7.344-3.24-7.35-8.954-.011-11.574.127-23.149-.056-34.72-.125-7.84-5.517-13.557-13.153-14.537-6.658-.854-13.212,3.743-15.288,10.617a16.589,16.589,0,0,0-.458,4.906c-.013,11.573.056,23.148-.042,34.72-.042,4.914-3.238,8.082-7.612,7.968-4.229-.11-7.09-3.209-7.252-7.9-.048-1.376-.009-2.755-.009-4.133Z" transform="translate(-5.009 -7.549)" fill="#fff"/>
        <path id="Контур_4065" data-name="Контур 4065" d="M649.87,42.721c0,10.339.054,20.677-.007,31.016a36.25,36.25,0,0,1-36.655,35.953c-19.935-.065-35.736-16.156-36.35-35.967-.553-17.853,13.672-36.737,36.263-37.4a34.506,34.506,0,0,1,18.218,4.744c3.264,1.879,3.677.611,3.658-2.324-.06-9.786-.012-19.574-.022-29.361,0-3.163.581-6.13,3.432-7.97,2.3-1.487,4.862-1.987,7.457-.593,2.843,1.527,4.014,4,4.009,7.161q-.027,17.368,0,34.737M591.875,72.85a21.551,21.551,0,1,0,43.1.372,21.55,21.55,0,1,0-43.1-.372" transform="translate(-99.283 0)" fill="#221e1f"/>
        <path id="Контур_4066" data-name="Контур 4066" d="M163.092,111.038c0-10.33.2-20.664-.046-30.988-.455-19.079,15.428-36.086,36.363-36.11,14.737-.017,26.3,7.142,32.812,20.628,6.567,13.587,4.948,26.755-4.235,38.822-9.96,13.09-30.033,18.492-46.1,9.261-2.99-1.718-4.026-1.407-3.975,2.249q.206,14.871,0,29.748c-.1,7.346-5.865,11.062-11.6,7.756-2.642-1.524-3.238-3.885-3.232-6.658q.036-17.355.007-34.708m57.991-30.347A21.525,21.525,0,0,0,199.74,58.942,21.237,21.237,0,0,0,177.965,80.1c-.094,12.257,9.407,22.254,21.18,22.285a21.872,21.872,0,0,0,21.937-21.695" transform="translate(-28.061 -7.563)" fill="#221e1f"/>
        <path id="Контур_4067" data-name="Контур 4067" d="M551.7,93.9c0,4.958.068,9.918-.021,14.875-.071,3.916-1.548,6.967-5.691,8.091-3.817,1.035-6.588-.613-8.261-3.8-1.463-2.792-2.865-1.514-4.6-.594-15.662,8.309-32.658,5.986-44.639-6.807-9.921-10.589-12.859-23.25-7.992-37.109,4.677-13.315,14.289-21.356,28.159-23.918,21.635-4,42.919,12.2,43.059,36.456.025,4.27,0,8.54,0,12.81Zm-36.9,8.5c11.654.073,21.993-10.171,22.034-21.831.041-11.552-9.778-21.4-21.653-21.715-11.258-.3-22.181,10.267-22.1,21.379.084,11.928,10.045,22.093,21.721,22.166" transform="translate(-82.304 -7.578)" fill="#221e1f"/>
        <path id="Контур_4068" data-name="Контур 4068" d="M712,117.272c-20.205.026-37.083-16.385-36.881-36.317.209-20.489,14.752-36.854,36.643-36.9C733.148,44,747.828,59.43,748.493,80.476c.628,19.884-16.628,36.771-36.491,36.8m.021-14.867c11.522-.1,21.916-10.585,21.589-21.786-.349-11.931-10-21.634-21.649-21.769-11.917-.138-22.163,10.2-22,22.194.148,11.334,10.6,21.456,22.065,21.361" transform="translate(-116.198 -7.582)" fill="#221e1f"/>
        <path id="Контур_4069" data-name="Контур 4069" d="M383.98,80.789c1.208,16.918-13.264,36.347-36.793,36.449-19.836.085-36.148-16.708-36.071-37.047a36.163,36.163,0,0,1,36.855-36.229c20.864.18,36.622,16.52,36.009,36.828m-14.871.291c.055-12.669-9.279-22.225-21.627-22.135a21.723,21.723,0,1,0,21.627,22.135" transform="translate(-53.547 -7.566)" fill="#221e1f"/>
        <path id="Контур_4070" data-name="Контур 4070" d="M433.358,86.953c2.5-4.593,3.723-9.686,5.6-14.492,2.651-6.8,4.966-13.733,7.529-20.57.861-2.3,1.551-4.837,3.725-6.31,2.7-1.826,5.653-2.345,8.517-.382,3.3,2.263,4.012,5.582,2.8,9.156-2.292,6.785-4.8,13.5-7.272,20.224-4.379,11.894-8.885,23.742-13.158,35.674-1.46,4.077-3.908,6.772-8.282,6.851-4.3.078-6.58-2.68-7.986-6.554-6.624-18.262-13.371-36.478-20.032-54.726-2.6-7.117,1.007-12.287,7.817-11.314,3.67.525,5.231,3.24,6.367,6.327,4,10.859,7.969,21.73,12,32.579.449,1.21.436,2.769,2.379,3.539" transform="translate(-69.526 -7.564)" fill="#221e1f"/>
        <path id="Контур_4071" data-name="Контур 4071" d="M259.2,80.877c0-8.263-.034-16.526.024-24.789a37.009,37.009,0,0,1,.545-5.731,7.251,7.251,0,0,1,5.88-6.187,6.408,6.408,0,0,1,7.4,3.289c1.647,2.976,3.142,2.556,5.486,1.065,5.018-3.19,10.784-4.114,16.547-4.7a7.956,7.956,0,0,1,8.549,6.765c.534,3.644-2.383,7.216-6.638,8.036-3.9.752-7.867,1.008-11.445,3.155-6.66,4-10.529,9.67-10.7,17.455-.2,8.947-.031,17.9-.064,26.854-.026,7.285-2.713,11.064-7.785,11.065s-7.761-3.8-7.788-11.072c-.031-8.4-.007-16.8-.007-25.2" transform="translate(-44.61 -7.535)" fill="#221e1f"/>
        <path id="Контур_4072" data-name="Контур 4072" d="M.008,80.388c0-9.351-.021-18.7.009-28.055C.032,46.987,2.49,44.167,7.068,44.1c4.615-.067,7.465,2.581,7.5,7.9q.2,28.67-.026,57.344c-.044,5.241-3.02,7.947-7.583,7.838-4.5-.108-6.935-2.984-6.948-8.327C-.009,99.365.008,89.876.008,80.388" transform="translate(0 -7.59)" fill="#fff"/>
        <path id="Контур_4073" data-name="Контур 4073" d="M.015,19.033A7.16,7.16,0,0,1,7.34,11.8,7.379,7.379,0,1,1,7.01,26.554a7.082,7.082,0,0,1-7-7.521" transform="translate(-0.002 -2.031)" fill="#fff"/>
      </g>
    </g>
  </g>
</svg>
