<svg xmlns="http://www.w3.org/2000/svg" width="760" height="600" viewBox="0 0 760 600">
  <g id="Сгруппировать_1513" data-name="Сгруппировать 1513" transform="translate(-94 -2563)">
    <g id="Сгруппировать_1481" data-name="Сгруппировать 1481" transform="translate(0 2476)">
      <g id="Сгруппировать_1260" data-name="Сгруппировать 1260" transform="translate(2658 3345)">
        <g id="Сгруппировать_1259" data-name="Сгруппировать 1259" transform="translate(-2564 -3258)">
          <g id="Сгруппировать_1040" data-name="Сгруппировать 1040" transform="translate(0)">
            <rect id="Прямоугольник_38" data-name="Прямоугольник 38" width="760" height="600" rx="75" fill="#d9002a"/>
          </g>
        </g>
      </g>
    </g>
    <g id="Слой_x0020_1" transform="translate(153.2 2734.85)">
      <path id="Контур_3981" data-name="Контур 3981" d="M136.033,198.837A70.456,70.456,0,1,1,195.323,90.343l35.668-35.666a120.234,120.234,0,1,0,0,147.411L195.323,166.42a70.379,70.379,0,0,1-59.291,32.418Z" fill="#383838"/>
      <path id="Контур_3982" data-name="Контур 3982" d="M1248.222,1491.16H1232.5v21.952h15.573c7.563,0,11.272-5.191,11.272-11.124S1255.787,1491.16,1248.222,1491.16Z" transform="translate(-1110.632 -1353.726)" fill="#fff"/>
      <path id="Контур_3983" data-name="Контур 3983" d="M1255.173,1045.918c0-4.9-2.817-9.048-9.789-9.048h-12.9v18.836h13.35C1252.356,1055.706,1255.173,1050.961,1255.173,1045.918Z" transform="translate(-1110.613 -939.039)" fill="#fff"/>
      <path id="Контур_3984" data-name="Контур 3984" d="M789.55,1032.833a52.122,52.122,0,0,0,12.655,34.1V998.73a52.121,52.121,0,0,0-12.655,34.1Z" transform="translate(-706.297 -904.224)" fill="#fff"/>
      <path id="Контур_3985" data-name="Контур 3985" d="M1683.709,915.006a52.3,52.3,0,0,0-26.239-45.356c5.862,4.64,9.282,11.339,9.282,20.067,0,8.9-4.3,17.948-12.311,22.546v.295c12.163,3.709,16.613,14.538,16.613,23.881,0,7.731-2.186,13.789-5.84,18.474A52.2,52.2,0,0,0,1683.709,915.006Z" transform="translate(-1495.788 -786.397)" fill="#fff"/>
      <path id="Контур_3986" data-name="Контур 3986" d="M2784.348,1018.5q-9.693,0-15.306,6.455t-5.61,17.68q0,11.542,5.409,17.837t15.427,6.3a52.711,52.711,0,0,0,14.036-2.211v5.991a43.219,43.219,0,0,1-15.082,2.295q-13,0-20.052-7.886t-7.061-22.4a35.354,35.354,0,0,1,3.4-15.927,24.4,24.4,0,0,1,9.814-10.54,29.716,29.716,0,0,1,15.1-3.7,36.42,36.42,0,0,1,16.171,3.38l-2.9,5.871A31.168,31.168,0,0,0,2784.348,1018.5Z" transform="translate(-2501.418 -916.693)" fill="#383838"/>
      <path id="Контур_3987" data-name="Контур 3987" d="M3359.51,1041.69q0,11.947,5.09,18.12t14.78,6.176q9.776,0,14.762-6.154t4.988-18.141q0-11.866-4.966-18t-14.7-6.135q-9.775,0-14.86,6.175T3359.51,1041.69Zm46.86,0q0,14.12-7.138,22.2t-19.852,8.086q-12.99,0-20.051-7.947t-7.058-22.423q0-14.361,7.08-22.263t20.11-7.907q12.672,0,19.79,8.046T3406.37,1041.69Z" transform="translate(-3045.607 -915.826)" fill="#383838"/>
      <path id="Контур_3988" data-name="Контур 3988" d="M4123.27,1022.06h6.836v58.808h-6.836Z" transform="translate(-3749.393 -925.52)" fill="#383838"/>
      <path id="Контур_3989" data-name="Контур 3989" d="M4432.685,1080.878h-7.8l-32.141-49.354h-.32q.642,8.687.643,15.927v33.427h-6.313V1022.07h7.722l32.057,49.154h.324q-.085-1.084-.363-6.978t-.2-8.427V1022.07h6.4Z" transform="translate(-3989.904 -925.529)" fill="#383838"/>
      <path id="Контур_3990" data-name="Контур 3990" d="M5103.751,1055.264v15.325h8.126q5.148,0,7.6-1.971t2.455-6.034q0-7.317-10.459-7.319Zm0-9.894h7.24q5.07,0,7.341-1.572t2.272-5.188a5.2,5.2,0,0,0-2.474-4.847q-2.473-1.467-7.823-1.467h-6.558Zm-12.471-23.29h18.3q12.511,0,18.165,3.558t5.649,11.324a14.267,14.267,0,0,1-2.473,8.648,9.882,9.882,0,0,1-6.575,4.063v.4q5.587,1.245,8.063,4.665t2.472,9.091q0,8.046-5.812,12.551t-15.787,4.5h-22V1022.08Z" transform="translate(-4633.016 -925.539)" fill="#fff"/>
      <path id="Контур_3991" data-name="Контур 3991" d="M5709.265,1041.69q0,9.853,3.739,14.842t11.182,4.988q14.924,0,14.926-19.83,0-19.87-14.843-19.87-7.444,0-11.226,5.006T5709.265,1041.69Zm42.92,0q0,14.6-7.243,22.444t-20.756,7.846q-13.51,0-20.756-7.846t-7.239-22.524q0-14.684,7.261-22.426t20.817-7.744q13.553,0,20.735,7.806T5752.185,1041.69Z" transform="translate(-5185.191 -915.826)" fill="#fff"/>
      <path id="Контур_3992" data-name="Контур 3992" d="M6448.335,1080.878H6434.1l-13.677-22.245-13.677,22.245h-13.353l19.507-30.33-18.262-28.478h13.756l12.67,21.159,12.431-21.159h13.433l-18.461,29.163Z" transform="translate(-5821.612 -925.53)" fill="#fff"/>
      <path id="Контур_3993" data-name="Контур 3993" d="M2831.6,2011.01v15.768h-2.064v-14.008h-7.852v14.008h-2.063V2011.01Z" transform="translate(-2559.392 -1828.257)" fill="#383838"/>
      <path id="Контур_3994" data-name="Контур 3994" d="M3012.286,2008.086c-1.826,0-3.281,1.353-4.7,3.213v8.7a4.654,4.654,0,0,0,3.18,1.218c2.538,0,5.041-.643,5.041-7.209C3015.8,2011.063,3014.958,2008.086,3012.286,2008.086Zm-6.766-1.32h1.658s.2,1.218.3,2.369a6.769,6.769,0,0,1,4.973-2.775c4.161,0,5.515,3.721,5.515,7.646,0,6.8-3.045,8.9-7.071,8.9a5.6,5.6,0,0,1-3.315-1.15v8.119h-2.063Z" transform="translate(-2729.085 -1824.012)" fill="#383838"/>
      <path id="Контур_3995" data-name="Контур 3995" d="M3197.139,2014.668c0-4.432-2.267-6.5-4.872-6.5-2.469,0-4.976,2.063-4.976,6.5,0,4.4,2.135,6.464,4.874,6.464C3195.007,2021.132,3197.139,2019.066,3197.139,2014.668Zm2.131,0c0,5.447-3.518,8.258-7.1,8.258s-7.006-2.811-7.006-8.258c0-5.481,3.521-8.288,7.107-8.288S3199.27,2009.187,3199.27,2014.668Z" transform="translate(-2893.065 -1824.03)" fill="#383838"/>
      <path id="Контур_3996" data-name="Контур 3996" d="M3389.793,2026.778h-2.063V2011.01h2.063v12.148l7.851-12.148h2.063v15.768h-2.063V2014.6Z" transform="translate(-3077.975 -1828.257)" fill="#383838"/>
      <path id="Контур_3997" data-name="Контур 3997" d="M3564.923,2015.182v-1.894h2.91c2,0,2.943-1.116,2.943-2.777,0-1.793-1.489-2.4-3.687-2.4a12.621,12.621,0,0,0-4.231.779l-.437-1.255a12.946,12.946,0,0,1,5.041-1.285c3.041,0,5.378,1.421,5.378,4.2a3.758,3.758,0,0,1-2.639,3.484v.068a3.854,3.854,0,0,1,3.146,4.161c0,3.01-2.808,4.634-5.852,4.634a13.069,13.069,0,0,1-5.515-1.387l.471-1.319a14.193,14.193,0,0,0,4.773.913c3.18,0,4.026-1.387,4.026-2.875,0-1.962-.812-3.045-3.382-3.045Z" transform="translate(-3237.035 -1824.003)" fill="#383838"/>
      <path id="Контур_3998" data-name="Контур 3998" d="M3739.054,2019.427v5.65h4.093c2.841,0,3.552-1.218,3.552-2.875,0-1.9-1.387-2.775-3.755-2.775Zm0-6.732v4.939h3.755a2.62,2.62,0,0,0,2.875-2.6c0-1.692-1.218-2.335-3.417-2.335ZM3736.99,2011h5.715c2.743,0,4.874,1.221,4.874,3.961a3.4,3.4,0,0,1-2.437,3.383v.067s3.519.406,3.519,3.891c0,3.011-2.233,4.465-4.905,4.465h-6.766Z" transform="translate(-3396.788 -1828.248)" fill="#383838"/>
      <path id="Контур_3999" data-name="Контур 3999" d="M3911.948,2014.668c0-4.432-2.267-6.5-4.874-6.5-2.47,0-4.974,2.063-4.974,6.5,0,4.4,2.131,6.464,4.875,6.464C3909.817,2021.132,3911.948,2019.066,3911.948,2014.668Zm2.128,0c0,5.447-3.516,8.258-7.1,8.258s-7.006-2.811-7.006-8.258c0-5.481,3.517-8.288,7.1-8.288S3914.076,2009.187,3914.076,2014.668Z" transform="translate(-3545.56 -1824.03)" fill="#383838"/>
      <path id="Контур_4000" data-name="Контур 4000" d="M4086.8,2024.984v-12.215h-6.025c0,4.736-.2,9.61-1.928,12.215Zm-11.438,0h1.015c1.523-1.082,2.436-4.364,2.436-13.975h10.051v13.975h1.759v6.564h-1.353l-.745-4.771h-11.065l-.741,4.771h-1.356Z" transform="translate(-3705.66 -1828.257)" fill="#383838"/>
      <path id="Контур_4001" data-name="Контур 4001" d="M4286.866,2020.284l.443,1.252a8.744,8.744,0,0,1-5.079,1.387c-3.586,0-6.63-2.909-6.63-8.12,0-5.176,2.977-8.423,6.6-8.423a8.409,8.409,0,0,1,4.771,1.387l-.437,1.249a9.217,9.217,0,0,0-3.829-.876c-2.943,0-5.072,2.774-5.072,6.664,0,3.823,2.165,6.395,5.107,6.395A9.265,9.265,0,0,0,4286.866,2020.284Z" transform="translate(-3888.444 -1824.031)" fill="#383838"/>
      <path id="Контур_4002" data-name="Контур 4002" d="M4443.366,2011.01v1.76h-5.044v14.008h-2.063v-14.008h-5.038v-1.76Z" transform="translate(-4030.498 -1828.257)" fill="#383838"/>
      <path id="Контур_4003" data-name="Контур 4003" d="M4609.454,2019.427v5.65h4.093c2.842,0,3.553-1.218,3.553-2.875,0-1.9-1.388-2.775-3.756-2.775Zm0-6.732v4.939h3.755a2.619,2.619,0,0,0,2.875-2.6c0-1.692-1.218-2.335-3.416-2.335ZM4607.39,2011h5.714c2.743,0,4.875,1.221,4.875,3.961a3.4,3.4,0,0,1-2.436,3.383v.067s3.518.406,3.518,3.891c0,3.011-2.233,4.465-4.9,4.465h-6.767Z" transform="translate(-4191.309 -1828.248)" fill="#383838"/>
      <path id="Контур_4004" data-name="Контур 4004" d="M4782.318,2014.668c0-4.432-2.267-6.5-4.871-6.5-2.471,0-4.973,2.063-4.973,6.5,0,4.4,2.131,6.464,4.871,6.464C4780.19,2021.132,4782.318,2019.066,4782.318,2014.668Zm2.132,0c0,5.447-3.519,8.258-7.1,8.258s-7.006-2.811-7.006-8.258c0-5.481,3.521-8.288,7.107-8.288S4784.45,2009.187,4784.45,2014.668Z" transform="translate(-4340.054 -1824.03)" fill="#383838"/>
      <path id="Контур_4005" data-name="Контур 4005" d="M5081.713,2026.778h-2.063V2011.01h2.063v12.148l7.849-12.148h2.065v15.768h-2.065V2014.6Z" transform="translate(-4622.399 -1828.257)" fill="#383838"/>
      <path id="Контур_4006" data-name="Контур 4006" d="M5384.208,2011.01v15.768h-2.065v-14.008h-7.849v14.008h-2.063V2011.01Z" transform="translate(-4889.473 -1828.257)" fill="#383838"/>
      <path id="Контур_4007" data-name="Контур 4007" d="M5564.876,2008.086c-1.826,0-3.282,1.353-4.7,3.213v8.7a4.654,4.654,0,0,0,3.181,1.218c2.538,0,5.043-.643,5.043-7.209C5568.4,2011.063,5567.549,2008.086,5564.876,2008.086Zm-6.766-1.32h1.659s.2,1.218.3,2.369a6.767,6.767,0,0,1,4.972-2.775c4.162,0,5.518,3.721,5.518,7.646,0,6.8-3.048,8.9-7.074,8.9a5.606,5.606,0,0,1-3.315-1.15v8.119h-2.063Z" transform="translate(-5059.149 -1824.012)" fill="#383838"/>
      <path id="Контур_4008" data-name="Контур 4008" d="M5749.729,2014.668c0-4.432-2.267-6.5-4.872-6.5-2.47,0-4.974,2.063-4.974,6.5,0,4.4,2.131,6.464,4.872,6.464C5747.6,2021.132,5749.729,2019.066,5749.729,2014.668Zm2.131,0c0,5.447-3.519,8.258-7.1,8.258s-7.005-2.811-7.005-8.258c0-5.481,3.521-8.288,7.107-8.288S5751.861,2009.187,5751.861,2014.668Z" transform="translate(-5223.128 -1824.03)" fill="#383838"/>
      <path id="Контур_4009" data-name="Контур 4009" d="M5924.588,2024.984v-12.215h-6.022c0,4.736-.2,9.61-1.928,12.215Zm-11.437,0h1.015c1.522-1.082,2.436-4.364,2.436-13.975h10.051v13.975h1.758v6.564h-1.35l-.745-4.771H5915.25l-.743,4.771h-1.356Z" transform="translate(-5383.238 -1828.257)" fill="#383838"/>
      <path id="Контур_4010" data-name="Контур 4010" d="M6121.49,2020.178v-2.943c-4.972.034-7.987.845-7.987,3.45,0,1.759,1.286,2.438,2.777,2.438C6118.142,2023.124,6119.969,2022,6121.49,2020.178Zm2.064-4.8v9.3H6121.9s-.2-1.218-.305-2.4a8.076,8.076,0,0,1-5.446,2.574c-2.842,0-4.707-1.56-4.707-4.03,0-2.909,2.135-5.142,10.051-5.243v-.2c0-3.89-1.085-4.938-4.028-4.938a15.816,15.816,0,0,0-4.6.914l-.437-1.252a13.289,13.289,0,0,1,5.546-1.387C6121.592,2008.71,6123.554,2010.232,6123.554,2015.374Z" transform="translate(-5564.24 -1826.157)" fill="#383838"/>
      <path id="Контур_4011" data-name="Контур 4011" d="M6294.905,2015.466h1.29c1.453,0,2.672-.338,3.077-2.267.88-4.06,2.267-4.5,4.364-4.5l.271,1.353c-1.119.338-2.063.609-2.47,3.18a3.8,3.8,0,0,1-1.187,2.3,3.074,3.074,0,0,1-1.421.71v.068a2.709,2.709,0,0,1,1.421.744,5.2,5.2,0,0,1,1.288,2.74c.439,2.438,1.384,3.112,2.842,3.521l-.372,1.522c-2.47,0-3.687-.848-4.6-5.043-.577-2.538-1.759-2.6-3.551-2.6h-.951v7.476h-2.063v-7.476h-.947c-1.793,0-2.977.064-3.552,2.6-.913,4.195-2.132,5.043-4.6,5.043l-.372-1.522c1.454-.409,2.4-1.083,2.841-3.521a5.2,5.2,0,0,1,1.286-2.74,2.706,2.706,0,0,1,1.421-.744v-.068a3.087,3.087,0,0,1-1.421-.71,3.783,3.783,0,0,1-1.185-2.3c-.406-2.572-1.353-2.842-2.469-3.18l.27-1.353c2.1,0,3.484.439,4.364,4.5.406,1.928,1.624,2.267,3.079,2.267h1.285V2008.9h2.063Z" transform="translate(-5721.183 -1826.148)" fill="#383838"/>
      <path id="Контур_4012" data-name="Контур 4012" d="M6553.817,2020.178v-2.943c-4.972.034-7.983.845-7.983,3.45,0,1.759,1.284,2.438,2.776,2.438C6550.467,2023.124,6552.295,2022,6553.817,2020.178Zm2.066-4.8v9.3h-1.657s-.206-1.218-.308-2.4a8.073,8.073,0,0,1-5.446,2.574c-2.842,0-4.7-1.56-4.7-4.03,0-2.909,2.13-5.142,10.047-5.243v-.2c0-3.89-1.082-4.938-4.026-4.938a15.788,15.788,0,0,0-4.6.914l-.44-1.252a13.31,13.31,0,0,1,5.548-1.387C6553.919,2008.71,6555.884,2010.232,6555.884,2015.374Z" transform="translate(-5958.882 -1826.157)" fill="#383838"/>
      <path id="Контур_4013" data-name="Контур 4013" d="M2814.015,2399.07l-5.615,18.271c-.948,3.112-2.371,4.938-4.905,4.938a4.118,4.118,0,0,1-2.912-1.252l.71-1.15a4.388,4.388,0,0,0,2.063.643c1.59,0,2.439-1.59,3.045-3.687l.574-2h-1.387l-5.379-15.768h2.232l4.976,14.482,4.466-14.482h2.13Z" transform="translate(-2541.674 -2182.487)" fill="#383838"/>
      <path id="Контур_4014" data-name="Контур 4014" d="M2999.618,2399.07v15.768h-2.064V2400.83H2989.7v14.008h-2.064V2399.07Z" transform="translate(-2712.764 -2182.487)" fill="#383838"/>
      <path id="Контур_4015" data-name="Контур 4015" d="M3177.757,2408.228v-2.943c-4.973.034-7.984.845-7.984,3.45,0,1.759,1.286,2.439,2.774,2.439C3174.409,2411.175,3176.235,2410.055,3177.757,2408.228Zm2.064-4.8v9.3h-1.658s-.2-1.218-.3-2.4a8.071,8.071,0,0,1-5.447,2.574c-2.841,0-4.7-1.559-4.7-4.028,0-2.91,2.131-5.142,10.047-5.243v-.2c0-3.89-1.082-4.939-4.025-4.939a15.794,15.794,0,0,0-4.6.914l-.44-1.252a13.31,13.31,0,0,1,5.548-1.387C3177.859,2396.76,3179.822,2398.283,3179.822,2403.425Z" transform="translate(-2877.136 -2180.379)" fill="#383838"/>
      <path id="Контур_4016" data-name="Контур 4016" d="M3367.159,2411.358l-.372,1.522c-2.47,0-3.722-.845-4.669-5.044-.541-2.534-1.691-2.6-3.484-2.6h-1.421v7.476h-2.063v-15.768h2.063v6.563h1.759c1.455,0,2.706-.338,3.112-2.267.88-4.059,2.233-4.5,4.33-4.5l.274,1.356c-1.119.369-2.03.606-2.438,3.177a3.789,3.789,0,0,1-1.185,2.3,3.292,3.292,0,0,1-1.42.71v.068a2.657,2.657,0,0,1,1.387.741,5.19,5.19,0,0,1,1.251,2.74C3364.724,2410.275,3365.739,2410.951,3367.159,2411.358Z" transform="translate(-3048.236 -2180.36)" fill="#383838"/>
      <path id="Контур_4017" data-name="Контур 4017" d="M3522.338,2402.718c0-4.431-2.266-6.495-4.874-6.495-2.47,0-4.973,2.063-4.973,6.495,0,4.4,2.131,6.465,4.874,6.465C3520.208,2409.183,3522.338,2407.116,3522.338,2402.718Zm2.129,0c0,5.447-3.516,8.258-7.1,8.258s-7.005-2.811-7.005-8.258c0-5.48,3.519-8.288,7.1-8.288S3524.467,2397.238,3524.467,2402.718Z" transform="translate(-3189.915 -2178.251)" fill="#383838"/>
      <path id="Контур_4018" data-name="Контур 4018" d="M3715,2407.487v5.65h4.093c2.842,0,3.553-1.218,3.553-2.876,0-1.894-1.388-2.774-3.756-2.774Zm0-6.732v4.938h3.755a2.619,2.619,0,0,0,2.875-2.6c0-1.691-1.217-2.334-3.416-2.334Zm-2.064-1.695h5.714c2.743,0,4.875,1.22,4.875,3.961a3.4,3.4,0,0,1-2.436,3.382v.068s3.517.406,3.517,3.891c0,3.01-2.233,4.465-4.9,4.465h-6.766Z" transform="translate(-3374.835 -2182.478)" fill="#383838"/>
      <path id="Контур_4019" data-name="Контур 4019" d="M3899.569,2411.358l-.372,1.522c-2.469,0-3.721-.845-4.668-5.044-.541-2.534-1.692-2.6-3.484-2.6h-1.421v7.476h-2.063v-15.768h2.063v6.563h1.76c1.454,0,2.706-.338,3.112-2.267.879-4.059,2.232-4.5,4.33-4.5l.273,1.356c-1.119.369-2.03.606-2.439,3.177a3.783,3.783,0,0,1-1.184,2.3,3.294,3.294,0,0,1-1.421.71v.068a2.653,2.653,0,0,1,1.387.741,5.189,5.189,0,0,1,1.252,2.74C3897.133,2410.275,3898.148,2410.951,3899.569,2411.358Z" transform="translate(-3534.232 -2180.36)" fill="#383838"/>
      <path id="Контур_4020" data-name="Контур 4020" d="M4060.344,2414.838h-2.063V2399.07h2.063v12.147l7.852-12.147h2.063v15.768H4068.2v-12.178Z" transform="translate(-3690.069 -2182.487)" fill="#383838"/>
    </g>
  </g>
</svg>
