<svg xmlns="http://www.w3.org/2000/svg" xmlns:xlink="http://www.w3.org/1999/xlink" width="760" height="600" viewBox="0 0 760 600">
  <defs>
    <clipPath id="clip-path">
      <rect id="Прямоугольник_102" data-name="Прямоугольник 102" width="549.732" height="147.249" fill="#fff"/>
    </clipPath>
  </defs>
  <g id="Сгруппировать_1510" data-name="Сгруппировать 1510" transform="translate(-94 -706)">
    <g id="Сгруппировать_1478" data-name="Сгруппировать 1478" transform="translate(0 619)">
      <g id="Сгруппировать_1260" data-name="Сгруппировать 1260" transform="translate(2658 3345)">
        <g id="Сгруппировать_1259" data-name="Сгруппировать 1259" transform="translate(-2564 -3258)">
          <g id="Сгруппировать_1040" data-name="Сгруппировать 1040" transform="translate(0)">
            <rect id="Прямоугольник_38" data-name="Прямоугольник 38" width="760" height="600" rx="75" fill="#d90017"/>
          </g>
        </g>
      </g>
    </g>
    <g id="Сгруппировать_1370" data-name="Сгруппировать 1370" transform="translate(199 932)">
      <g id="Сгруппировать_1369" data-name="Сгруппировать 1369" transform="translate(0 0)" clip-path="url(#clip-path)">
        <path id="Контур_3953" data-name="Контур 3953" d="M171.948,2.4C108.754-3.983,68.541,4.415,48.432,10.9V54.371l.108.256C60.977,42.918,76.5,35.032,92.422,29.65V145.725H122.3V22.14c22.144-3.958,41.588-4.41,50.248-5.3Z" transform="translate(97.345 0.251)" fill="#fff"/>
        <path id="Контур_3954" data-name="Контур 3954" d="M104.451,78.823l-56,0c12.166-43.93,36.36-60.292,56-66.047ZM.129,145.141H40.682a278.053,278.053,0,0,1,4.292-51.229h59.476v51.22h30V.42C-9.373.42.129,145.141.129,145.141" transform="translate(0 0.844)" fill="#fff"/>
        <path id="Контур_3955" data-name="Контур 3955" d="M137.974.419V2.908h-.006V145.134h30V12.775C195.41,20.811,231.74,49.5,231.74,145.14h40.553S281.8.419,137.974.419" transform="translate(277.307 0.842)" fill="#fff"/>
        <path id="Контур_3956" data-name="Контур 3956" d="M172.545,43.791a44.188,44.188,0,0,1,6.471,16.187c.066.31.138.6.187.906.151.933.244,1.866.337,2.808.039.373.09.722.117,1.1a44.464,44.464,0,0,1-14.02,35.924,43.956,43.956,0,0,1-62.384-2.438,42.689,42.689,0,0,1-3.2-3.943l-8.136,7.573a73.393,73.393,0,0,0,103.211,3.1,74.517,74.517,0,0,0,12.413-93.8Z" transform="translate(184.755 22.534)" fill="#fff"/>
        <path id="Контур_3957" data-name="Контур 3957" d="M124.571,64.741c-.057-.319-.135-.6-.184-.918-.153-.93-.244-1.863-.337-2.8-.036-.379-.09-.725-.114-1.1a44.476,44.476,0,0,1,14.017-35.933,43.966,43.966,0,0,1,62.39,2.444,42.818,42.818,0,0,1,3.112,3.853l8.133-7.555a73.383,73.383,0,0,0-103.135-3.019A74.514,74.514,0,0,0,96.043,113.5l35.006-32.583a44.263,44.263,0,0,1-6.477-16.178" transform="translate(170.478 0)" fill="#fff"/>
      </g>
    </g>
  </g>
</svg>
