<svg xmlns="http://www.w3.org/2000/svg" width="760" height="600" viewBox="0 0 760 600">
  <g id="Сгруппировать_1516" data-name="Сгруппировать 1516" transform="translate(-94 -4420)">
    <g id="Сгруппировать_1483" data-name="Сгруппировать 1483" transform="translate(0 4333)">
      <g id="Сгруппировать_1260" data-name="Сгруппировать 1260" transform="translate(2658 3345)">
        <g id="Сгруппировать_1259" data-name="Сгруппировать 1259" transform="translate(-2564 -3258)">
          <g id="Сгруппировать_1040" data-name="Сгруппировать 1040" transform="translate(0)">
            <rect id="Прямоугольник_38" data-name="Прямоугольник 38" width="760" height="600" rx="75" fill="#007c2b"/>
          </g>
        </g>
      </g>
    </g>
    <g id="g10" transform="translate(224.725 4684.745)">
      <g id="g12" transform="translate(0.275 -97.745)">
        <path id="path14" d="M27.621,38.228H38.336v-51H73.517v-10.2h-45.9V38.228" transform="translate(47.118 227.34)" fill="#1b1c20"/>
        <path id="path16" d="M82.041-22.967H47.558V38.228H58.271V12.718h24.7c5.6,0,10.171-1.721,13.59-5.12s5.156-7.879,5.156-13.312c0-5.314-1.818-9.577-5.4-12.68C92.807-21.431,88-22.967,82.041-22.967ZM88.518.584h0c-1.49,1.291-3.825,1.946-6.939,1.946H58.271v-15.3H81.943c2.854,0,5.056.686,6.541,2.041a7.26,7.26,0,0,1,2.162,5.684c0,2.548-.7,4.389-2.128,5.627" transform="translate(81.67 227.34)" fill="#1b1c20"/>
        <path id="path18" d="M171.864-5.715c0-5.314-1.822-9.577-5.408-12.68-3.509-3.036-8.313-4.572-14.275-4.572H117.7V38.228h10.713V12.718h24.7c5.6,0,10.171-1.721,13.589-5.12a18.03,18.03,0,0,0,5.16-13.312ZM158.659.584h0c-1.49,1.291-3.825,1.946-6.938,1.946H128.411v-15.3h23.672c2.854,0,5.058.686,6.541,2.041a7.259,7.259,0,0,1,2.162,5.684c0,2.548-.7,4.389-2.128,5.627" transform="translate(203.227 227.34)" fill="#1b1c20"/>
        <path id="path20" d="M100.952-23.421c-8.961,0-16.5,3.022-22.4,8.979S69.669-.848,69.669,8.281c0,9.089,2.979,16.714,8.861,22.667s13.428,8.976,22.422,8.976c9.029,0,16.609-3.019,22.528-8.972S132.4,17.37,132.4,8.281s-3.01-16.734-8.942-22.7-13.509-9-22.5-9Zm14.576,47.053h0a19.182,19.182,0,0,1-14.576,5.994,19.194,19.194,0,0,1-14.579-5.994c-3.893-4.053-5.784-9.07-5.784-15.351S82.483-3.032,86.376-7.1a19.154,19.154,0,0,1,14.576-6.019,19.178,19.178,0,0,1,14.606,5.995c3.879,4.055,5.765,9.1,5.765,15.409,0,6.276-1.895,11.3-5.8,15.351" transform="translate(119.989 226.554)" fill="#1b1c20"/>
        <path id="path22" d="M92.8-12.768h23.94v51H127.5v-51H151.5v-10.2H92.8v10.2" transform="translate(160.07 227.34)" fill="#1b1c20"/>
        <path id="path24" d="M30.259-22.967.275,38.228H11.918L19.448,22.9H48.982l7.53,15.325H68.156L38.174-22.967ZM24.5,12.729h0l9.718-20.4,9.715,20.4H24.5" transform="translate(-0.275 227.34)" fill="#1b1c20"/>
        <path id="path26" d="M164.656-22.967,134.673,38.228h11.643L153.844,22.9h29.539l7.529,15.325h11.643L172.571-22.967Zm-5.758,35.7h0l9.715-20.4,9.715,20.4H158.9" transform="translate(232.645 227.34)" fill="#1b1c20"/>
        <path id="path28" d="M192.448-.429l.211-.2,25.4-22.377H203.26L173.1,3.248V-23.005h-10.71v61.3H173.1V16.46l11.333-9.513a75.734,75.734,0,0,1,21.431,31.331h11.479a87.292,87.292,0,0,0-24.9-38.707" transform="translate(280.683 227.274)" fill="#1b1c20"/>
        <path id="path30" d="M183.19-43.43V-97.745L55.367,65.83l51.655-10.961,76.168-98.3" transform="translate(95.203 97.745)" fill="#fff"/>
        <path id="path32" d="M198.169-16.011a301.128,301.128,0,0,0-16.776-29.731,299.433,299.433,0,0,0-19.644-27.21L141.789-53.586q5.462,7.512,10.469,15.408l-33.372,6.794v.035L74.305,11.864,169.067-8.27A301.755,301.755,0,0,1,182.3,22.86h31.939a300.314,300.314,0,0,0-16.074-38.871" transform="translate(128.024 140.715)" fill="#fff"/>
      </g>
    </g>
  </g>
</svg>
