<svg xmlns="http://www.w3.org/2000/svg" width="760" height="600" viewBox="0 0 760 600">
  <g id="Сгруппировать_1512" data-name="Сгруппировать 1512" transform="translate(-94 -1944)">
    <g id="Сгруппировать_1480" data-name="Сгруппировать 1480" transform="translate(0 1857)">
      <g id="Сгруппировать_1260" data-name="Сгруппировать 1260" transform="translate(2658 3345)">
        <g id="Сгруппировать_1259" data-name="Сгруппировать 1259" transform="translate(-2564 -3258)">
          <g id="Сгруппировать_1040" data-name="Сгруппировать 1040" transform="translate(0)">
            <rect id="Прямоугольник_38" data-name="Прямоугольник 38" width="760" height="600" rx="75" fill="#b59e86"/>
          </g>
        </g>
      </g>
    </g>
    <g id="Herbliz" transform="translate(183 2172)">
      <path id="Контур_3967" data-name="Контур 3967" d="M68.748.43c-2.393.1-4.641.1-7.046,0C60.5.4,59.329.352,58.2.265l-.84-.059V38.2H15.594V.208l-.84.059C13.611.355,12.427.4,11.237.433c-2.414.1-4.672.1-6.967,0C3.136.4,1.974.355.831.267L0,.208V82.254l.831-.05c2.383-.156,4.7-.225,6.958-.187,2.236.038,4.594.1,7.015.187l.79.009V42.133H57.355V82.214l.781-.009c4.71-.088,9.469-.088,14.188,0l.8.009V.206l-.859.059C71.122.352,69.97.4,68.748.43Z" transform="translate(0 0.457)"/>
      <path id="Контур_3968" data-name="Контур 3968" d="M85.8,5.873l-.194-.7a4.184,4.184,0,0,1-.147-.968V2.023A4.264,4.264,0,0,1,85.609.948L85.8.224H28.6v81.94H85.8l-.194-.712a4.116,4.116,0,0,1-.147-.977V78.3a4.69,4.69,0,0,1,.147-1.093l.194-.724-41.575.246V41.38L82.17,41.9a4.563,4.563,0,0,1-.331-1.368V38.225a4.63,4.63,0,0,1,.322-1.427l-37.93.568V5.639Z" transform="translate(63.545 0.498)"/>
      <path id="Контур_3969" data-name="Контур 3969" d="M112.916,36.272c4.291-3.451,6.449-8.276,6.449-14.394a17.774,17.774,0,0,0-3.02-10.572,21.149,21.149,0,0,0-7.992-6.7A39.516,39.516,0,0,0,96.764,1.2,93.82,93.82,0,0,0,83.035.223H53.812v82l.861-.059c2.374-.156,4.71-.235,6.937-.187q3.387.089,7.017.187l.809.019V44.633H80.547l27.739,37.218.225.324.449-.009c5.462-.069,10.962-.069,16.406,0l1.4.019L96.269,43.09C103.262,41.84,108.852,39.526,112.916,36.272ZM86.2,40.035a75.621,75.621,0,0,1-11.715.84,45.158,45.158,0,0,1-5.053-.284V4.135C70.442,4.1,71.45,4.048,72.406,4c1.2-.028,2.424-.05,3.673-.05a71.363,71.363,0,0,1,10.915.781,27.61,27.61,0,0,1,8.492,2.629,13.629,13.629,0,0,1,5.49,5.159c1.318,2.189,1.983,5.98,1.983,9.36,0,3.517-.693,7.426-2.071,9.772a14.59,14.59,0,0,1-5.727,5.51A27.5,27.5,0,0,1,86.2,40.035Z" transform="translate(119.544 0.496)"/>
      <path id="Контур_3970" data-name="Контур 3970" d="M145.146,44.887a27.471,27.471,0,0,0-8.051-4.173,73.442,73.442,0,0,0-7.671-2.158c2.052-.556,4.066-1.193,5.98-1.924a31.133,31.133,0,0,0,7.132-3.791,16.693,16.693,0,0,0,4.839-5.334,14.465,14.465,0,0,0,1.717-7.074,15.329,15.329,0,0,0-3.6-10.006,23.593,23.593,0,0,0-10.111-6.88A49.485,49.485,0,0,0,123.134.83c-4.2-.409-8.423-.606-12.586-.606H84.03v81.94H110.4a134.272,134.272,0,0,0,15.038-.84A50.715,50.715,0,0,0,138.9,77.982,24.427,24.427,0,0,0,148.58,71c2.442-2.989,3.673-6.927,3.673-11.7a17.474,17.474,0,0,0-1.878-8.335A18.8,18.8,0,0,0,145.146,44.887ZM99.633,5.286h5.228q2.684,0,5.921.038c2.139.069,4.25.215,6.284.48a40.346,40.346,0,0,1,5.843,1.24,14.283,14.283,0,0,1,4.631,2.3,12.077,12.077,0,0,1,4.163,5.365,18.08,18.08,0,0,1,1.162,6.205c0,3.429-.831,6.712-2.433,8.794a14.857,14.857,0,0,1-6.478,4.74,35.356,35.356,0,0,1-9.457,2.189c-3.6.343-7.346.528-11.206.528h-2.208a13.846,13.846,0,0,1-1.446-.059V5.286Zm33.476,63.239a16.031,16.031,0,0,1-6.88,5.334,36.466,36.466,0,0,1-10.241,2.4,124.826,124.826,0,0,1-12.546.606h-2.364c-.431,0-.9-.038-1.446-.059V41.254c.606-.038,1.193-.069,1.749-.069h2.551c4.27,0,8.423.194,12.292.556a34.6,34.6,0,0,1,10.181,2.345,16.109,16.109,0,0,1,6.809,5.159c1.652,2.248,2.482,5.853,2.482,9.691C135.7,62.916,134.827,66.149,133.109,68.525Z" transform="translate(186.675 0.498)"/>
      <path id="Контур_3971" data-name="Контур 3971" d="M128.282.212l-.863.059c-1.131.1-2.3.137-3.5.175-2.416.078-4.681.078-6.968,0-1.153-.038-2.3-.078-3.46-.175l-.831-.059V82.2h57.005v-.577a6.193,6.193,0,0,0-.087-1.162,4.33,4.33,0,0,1-.058-.753,6.477,6.477,0,0,1,.058-.918,2.966,2.966,0,0,0,.087-.791V76.976l-41.39,1V.212Z" transform="translate(250.287 0.472)"/>
      <path id="Контур_3972" data-name="Контур 3972" d="M149.058.447c-2.416.1-4.662.1-6.968,0-1.124-.038-2.287-.1-3.428-.175l-.841-.059V82.271l.841-.069c2.371-.138,4.707-.216,6.939-.166,2.255.038,4.6.107,7.023.166l.789.038V.212l-.831.059C151.422.347,150.269.406,149.058.447Z" transform="translate(306.175 0.472)"/>
      <path id="Контур_3973" data-name="Контур 3973" d="M218.339,81.469a3.275,3.275,0,0,1-.148-.977V78.205a3.711,3.711,0,0,1,.148-1.105l.174-.724-51.609.372L218.23,5.76l-.039-.215a3.684,3.684,0,0,1-.155-1.093V2.028a3.6,3.6,0,0,1,.155-1.074l.168-.724H152.491V6.013l48.594-.35L150.226,75.857l-.106.128V82.16h68.4Z" transform="translate(333.497 0.51)"/>
      <path id="Контур_3974" data-name="Контур 3974" d="M184.573,20.675A10.338,10.338,0,1,1,194.93,10.337,10.34,10.34,0,0,1,184.573,20.675Zm0-19.269a8.955,8.955,0,1,0,8.92,8.932A8.9,8.9,0,0,0,184.573,1.406Zm2.816,14.881-3.057-4.681h-2.142v4.681h-1.572V4.435h4.826a3.612,3.612,0,0,1,3.769,3.616,3.484,3.484,0,0,1-3.019,3.5l3.167,4.738ZM185.446,5.8h-3.257v4.4h3.257A2.25,2.25,0,0,0,187.6,8.051,2.263,2.263,0,0,0,185.446,5.8Z" transform="translate(387.07)"/>
      <path id="Контур_3975" data-name="Контур 3975" d="M50.243,33.808h5.244a8.663,8.663,0,0,1,9.048,8.484,8.551,8.551,0,0,1-4.473,7.4c3.5,1.645,5.242,4.471,5.242,8.534,0,4.88-2.93,9.921-10.9,9.921H50.24V33.808Zm4.833,14.55c3.086,0,5.038-2.059,5.038-5.349,0-3.235-1.851-5.086-5.038-5.086h-.409V48.358Zm.36,15.677c3.446,0,5.451-2.107,5.451-5.652,0-2.88-1.439-5.914-5.451-5.914h-.769V64.035Z" transform="translate(111.611 75.106)"/>
      <path id="Контур_3976" data-name="Контур 3976" d="M64.356,33.807H76.589v4.116H68.777V48.2h7.145v4.111H68.777v11.72H77V68.15H64.358V33.807Z" transform="translate(142.969 75.104)"/>
      <path id="Контур_3977" data-name="Контур 3977" d="M78.167,33.807h3.7c7.1,0,9.045,5.195,9.045,9.512a8.327,8.327,0,0,1-3.545,7.351c2.054,1.494,3.5,5.294,4.679,10.435l1.59,7.046H89.013l-1.335-5.91c-1.546-6.735-2.57-9.715-5.091-9.459V68.152H78.167Zm4.625,14.855c2.416,0,3.7-1.8,3.7-5.19,0-3.756-1.235-5.5-3.9-5.55V48.665h.2Z" transform="translate(173.651 75.104)"/>
      <path id="Контур_3978" data-name="Контур 3978" d="M91.977,33.807H96.4V64.034h8.48V68.15h-12.9Z" transform="translate(204.331 75.104)"/>
      <path id="Контур_3979" data-name="Контур 3979" d="M104.91,33.807h4.42V68.15h-4.42Z" transform="translate(233.062 75.104)"/>
      <path id="Контур_3980" data-name="Контур 3980" d="M116.105,33.807h3.6l7.609,21.181h.1V33.807h4.062V68.15h-3.6l-7.609-21.385h-.1V68.15H116.1V33.807Z" transform="translate(257.925 75.104)"/>
    </g>
  </g>
</svg>
