<svg xmlns="http://www.w3.org/2000/svg" width="760" height="600" viewBox="0 0 760 600">
  <g id="Сгруппировать_1477" data-name="Сгруппировать 1477" transform="translate(-94 -87)">
    <g id="Сгруппировать_1260" data-name="Сгруппировать 1260" transform="translate(2658 3345)">
      <g id="Сгруппировать_1259" data-name="Сгруппировать 1259" transform="translate(-2564 -3258)">
        <g id="Сгруппировать_1040" data-name="Сгруппировать 1040" transform="translate(0)">
          <rect id="Прямоугольник_38" data-name="Прямоугольник 38" width="760" height="600" rx="75" fill="#00a0f0"/>
        </g>
      </g>
    </g>
    <g id="Слой_2" data-name="Слой 2" transform="translate(179.004 324.038)">
      <g id="Слой_1" data-name="Слой 1" transform="translate(-0.004 -0.038)">
        <path id="Контур_3946" data-name="Контур 3946" d="M806.244,138.374H783.266c-.075-1.358-.2-2.675-.2-3.979q0-23.09-.041-46.173a57.046,57.046,0,0,0-.774-9.445c-1.059-6.043-4.8-9.594-10.762-10.7-6.9-1.283-13.227,1.283-16.52,6.7-3.008,4.957-3.28,10.538-3.327,16.059-.136,14.368-.047,28.736-.047,43.1v4.3H728.172V134.4q0-25.449-.048-50.926a20.791,20.791,0,0,0-.177-3.4c-1.276-7.91-5.371-11.849-12.582-12.222-8.42-.394-15.38,4.583-17.369,12.664a31.961,31.961,0,0,0-.808,7.374c-.068,15.5,0,31,0,46.505v3.85H674V52.2H695.66V62.855l.679.564C703.17,54.8,711.5,49.437,722.821,49.634c10.986.183,20.323,3.062,25.436,13.818,3.042-2.825,5.792-5.432,8.623-7.992,10.1-9.031,31.18-6.322,38.968-.38,7.625,5.819,10.4,13.94,10.552,22.876.333,19.569.1,39.145.1,58.721A16.146,16.146,0,0,1,806.244,138.374Z" transform="translate(-216.344 -15.902)" fill="#fff"/>
        <path id="Контур_3947" data-name="Контур 3947" d="M66.209,81.814Q61.34,100.962,56.486,120.1c-1.412,5.575-2.825,11.149-4.162,16.744-.462,1.922-1.358,2.716-3.47,2.716-6.444-.149-12.9.048-19.338-.156a4.084,4.084,0,0,1-3.076-2.139q-13.3-41.4-26.346-82.88A8.481,8.481,0,0,1,0,52.881c4.57,0,9.044-.054,13.512,0,3.592.054,8.094-.978,10.5.781,2.241,1.636,2.3,6.315,3.219,9.683Q33.345,85.86,39.456,108.39c.265.964.6,1.908,1.188,3.721a32.589,32.589,0,0,0,1.243-3.239C46.2,91.36,50.531,73.856,54.727,56.317c.584-2.444,1.4-3.64,4.183-3.524,5.432.231,10.864.244,16.3,0,2.716-.122,3.694,1,4.291,3.4,4.257,17.3,8.61,34.575,12.949,51.856.265,1.066.631,2.112,1.222,4.074.631-1.738,1.012-2.614,1.263-3.524,4.753-17.4,9.506-34.8,14.144-52.236.679-2.553,1.609-3.707,4.515-3.6,6.641.258,13.3.081,20.418.081-.387,1.63-.6,2.8-.951,3.938q-12.494,39.695-24.981,79.4c-.747,2.383-1.738,3.449-4.434,3.348-5.982-.231-11.991-.183-17.98,0-2.4.068-3.286-.794-3.87-3.069-4.386-17.03-8.963-34-13.485-50.98-.333-1.249-.76-2.472-1.148-3.707Z" transform="translate(0.004 -16.867)" fill="#fff"/>
        <path id="Контур_3948" data-name="Контур 3948" d="M277.647,138.419c-6.4,0-13.4.088-20.37-.1-.9,0-2.146-1.317-2.56-2.3-.679-1.6-.767-3.429-1.236-5.8a33.774,33.774,0,0,1-17.648,9.194c-9.228,1.745-18.442,2.227-27.283-1.67-11.407-5.018-15.257-15.543-13.519-27.547,1.854-12.82,10.986-18.007,22.407-20.173,7.748-1.467,15.617-2.315,23.412-3.517a27.282,27.282,0,0,0,5.228-1.358c4.916-1.806,6.729-4.135,6.675-8.257-.081-5.6-2.587-9.9-7.435-10.817a45.2,45.2,0,0,0-13.424-.53c-5.629.679-9.336,4.074-10.633,9.927-.224.991-1.548,2.458-2.4,2.485-6.987.2-13.981.109-21.341.109a25.084,25.084,0,0,1,4.02-13.621,29.564,29.564,0,0,1,16.975-12.222,73.062,73.062,0,0,1,40.2-.163c7.917,2.186,14.443,6.654,16.629,15.312a31.233,31.233,0,0,1,.679,7.388c.061,13.465-.149,26.936.1,40.4C276.269,122.775,277.1,130.38,277.647,138.419ZM252.727,97c-4.97,1.032-9.37,1.854-13.73,2.872-5.018,1.175-10.341,1.8-14.938,3.972-7.564,3.6-8.114,14.864-1.433,19.128s19.515,2.838,24.947-2.831c6.471-6.722,5.072-15.128,5.154-23.134Z" transform="translate(-62.472 -15.804)" fill="#fff"/>
        <path id="Контур_3949" data-name="Контур 3949" d="M573.477,49.72c22.89,0,38.649,12.046,43.348,33.625,2.37,10.9,1.9,21.871-2.485,32.273-6.58,15.617-19.012,23.331-35.472,24.886a54.8,54.8,0,0,1-22.122-2.037,41.067,41.067,0,0,1-28.1-36.762c-.421-8.039-.312-16.018,2.349-23.765,5.962-17.376,20.52-27.724,39.776-28.193C571.671,49.706,572.574,49.727,573.477,49.72Zm-21.925,44.7c.448,4.169.679,7.469,1.188,10.66,1.752,10.572,8.977,17.824,18.007,18.252,12.222.577,19.522-4.678,22.509-16.466a47.3,47.3,0,0,0-.3-24.444c-2.648-9.656-9.92-15.156-19.522-15.176-10.022,0-17.159,5.188-19.868,15.06-1.148,4.19-1.46,8.623-2.017,12.114Z" transform="translate(-169.626 -15.933)" fill="#fff"/>
        <path id="Контур_3950" data-name="Контур 3950" d="M321.07,50.914V35.975c3.449,0,6.79-.238,10.138.068,3.578.319,4.414-1.181,4.352-4.468-.177-9.044.054-18.089-.122-27.16-.061-3.232.564-4.638,4.251-4.434,6.294.346,12.623.1,19.427.1V6.662c0,8.372.2,16.744-.1,25.123-.129,3.639,1.175,4.468,4.441,4.237,3.4-.238,6.79,0,10.185-.068,1.765-.041,2.791.441,2.757,2.438q-.1,5.256,0,10.511c.034,1.962-.93,2.506-2.716,2.472-3.843-.075-7.693.088-11.543-.054-2.417-.081-3.1.856-3.1,3.178.088,14.13,0,28.267.061,42.4,0,5.6,2.336,8,8,8.331,2.9.177,5.819.034,9.173.034,0,5.249.081,10.64-.109,16.018,0,.679-1.562,1.813-2.363,1.793-8.325-.251-16.772.1-24.92-1.3-8.827-1.521-13.044-7.422-13.173-16.378-.238-16.391-.177-32.789-.244-49.181,0-4.848,0-4.841-4.848-4.862q-4.237,0-8.481-.075a4.536,4.536,0,0,1-1.073-.373Z" transform="translate(-103.057 0.038)" fill="#fff"/>
        <path id="Контур_3951" data-name="Контур 3951" d="M470.295,53.056c-3.185,4.074-5.9,7.469-8.562,10.932-8.291,10.749-16.724,21.389-24.723,32.348a24.445,24.445,0,0,0-4.285,10.477c-1,6.844,1.976,11.856,7.557,14.544,6.5,3.123,12.9,2.886,18.333-1.983,4.074-3.673,7.551-8.094,11.265-12.222.822-.9,1.569-1.881,2.431-2.933l14.483,15.339c-10.117,15.2-23.9,24.3-43.844,22.333-16.072-1.589-28.912-11.91-31.988-27.5a35.159,35.159,0,0,1,5.894-27.826c7.727-10.864,16.106-21.273,24.261-31.839a3.874,3.874,0,0,1,2.4-1.6C452.165,53.016,460.843,53.056,470.295,53.056Z" transform="translate(-131.669 -17.002)" fill="#fff"/>
        <path id="Контур_3952" data-name="Контур 3952" d="M459.87,25.579V.17h19.372c6.22,0,6.22,0,6.213,6.362,0,5.432.075,10.864-.081,16.3,0,.944-1.018,2.641-1.6,2.655C475.9,25.64,468.025,25.579,459.87,25.579Z" transform="translate(-147.61 -0.028)" fill="#fff"/>
      </g>
    </g>
  </g>
</svg>
