<svg xmlns="http://www.w3.org/2000/svg" width="760" height="600" viewBox="0 0 760 600">
  <g id="Сгруппировать_1521" data-name="Сгруппировать 1521" transform="translate(-884 -1944)">
    <g id="Сгруппировать_1488" data-name="Сгруппировать 1488" transform="translate(790 1857)">
      <g id="Сгруппировать_1260" data-name="Сгруппировать 1260" transform="translate(2658 3345)">
        <g id="Сгруппировать_1259" data-name="Сгруппировать 1259" transform="translate(-2564 -3258)">
          <g id="Сгруппировать_1040" data-name="Сгруппировать 1040" transform="translate(0)">
            <rect id="Прямоугольник_38" data-name="Прямоугольник 38" width="760" height="600" rx="75" fill="#2955c1"/>
          </g>
        </g>
      </g>
    </g>
    <g id="credits" transform="translate(974 2172)">
      <path id="Контур_4057" data-name="Контур 4057" d="M62.91,87.23a37.567,37.567,0,0,1-14.739-13.9,38.147,38.147,0,0,1-5.362-20.092,38.107,38.107,0,0,1,5.366-20.088A37.449,37.449,0,0,1,62.91,19.262,43.9,43.9,0,0,1,83.98,14.247a44.466,44.466,0,0,1,17.826,3.418,35.7,35.7,0,0,1,13.375,9.911L103.916,37.91a24.309,24.309,0,0,0-19.072-8.835A25.454,25.454,0,0,0,72.3,32.146a21.837,21.837,0,0,0-8.61,8.56A25.061,25.061,0,0,0,60.6,53.178a25.048,25.048,0,0,0,3.092,12.473,21.837,21.837,0,0,0,8.61,8.56,25.446,25.446,0,0,0,12.545,3.075,24.175,24.175,0,0,0,19.072-8.941l11.266,10.377a35.022,35.022,0,0,1-13.434,10.038A44.835,44.835,0,0,1,83.9,92.207,44.075,44.075,0,0,1,62.91,87.23Zm87.218-52.975A30.532,30.532,0,0,1,161.986,32.1v15.51q-1.892-.163-3.791-.212-7.255,0-11.376,4.04T142.7,63.551v27.36H125.8V32.959h16.141v7.649a18.833,18.833,0,0,1,8.183-6.353ZM228.3,66.681H184.2a13.659,13.659,0,0,0,5.633,8.5,18.719,18.719,0,0,0,11.054,3.121,22.434,22.434,0,0,0,8.072-1.351,19.512,19.512,0,0,0,6.552-4.248l9,9.695q-8.233,9.364-24.057,9.36a38.3,38.3,0,0,1-17.441-3.816,28.207,28.207,0,0,1-11.7-10.614,29.113,29.113,0,0,1-4.117-15.4,29.477,29.477,0,0,1,4.066-15.349,28.381,28.381,0,0,1,11.16-10.656,34.717,34.717,0,0,1,31.362-.161,26.826,26.826,0,0,1,10.893,10.5,31.172,31.172,0,0,1,3.952,15.878q0,.337-.326,4.532ZM188.749,48.045a13.718,13.718,0,0,0-4.765,8.831H212.7a13.85,13.85,0,0,0-4.769-8.767,14.324,14.324,0,0,0-9.538-3.282,14.548,14.548,0,0,0-9.64,3.219ZM299.266,10.986V90.923H283.125V84.232q-6.277,7.554-18.2,7.543a30.363,30.363,0,0,1-14.9-3.664,26.344,26.344,0,0,1-10.449-10.448,31.739,31.739,0,0,1-3.791-15.726,31.762,31.762,0,0,1,3.791-15.726,26.344,26.344,0,0,1,10.461-10.449,30.452,30.452,0,0,1,14.9-3.664q11.156,0,17.441,7V10.986h16.89Zm-20.8,62.636q4.225-4.352,4.223-11.685t-4.223-11.689a14.146,14.146,0,0,0-10.618-4.362,14.3,14.3,0,0,0-10.728,4.362q-4.225,4.358-4.227,11.689t4.227,11.685a14.341,14.341,0,0,0,10.728,4.362,14.2,14.2,0,0,0,10.618-4.362Zm37.266-51.434a9.089,9.089,0,0,1,0-13.354,10.793,10.793,0,0,1,7.585-2.677A11.036,11.036,0,0,1,330.9,8.742a8.284,8.284,0,0,1,2.922,6.463,9.085,9.085,0,0,1-2.922,6.95,12.027,12.027,0,0,1-15.171.034Zm-.864,10.77h16.9V90.915H314.851l.017-57.952Zm70.209,55.156a17.538,17.538,0,0,1-6.128,2.749,31.273,31.273,0,0,1-7.645.9q-10.4,0-16.094-5.277t-5.7-15.514V47.164h-8.966V34.255h9V20.143h16.9V34.255h14.519V47.181H366.437V70.789a7.937,7.937,0,0,0,1.893,5.671,7.015,7.015,0,0,0,5.366,1.991,10.876,10.876,0,0,0,6.844-2.16ZM400.023,90a36.88,36.88,0,0,1-11.046-4.468l5.633-12.062a35.326,35.326,0,0,0,9.428,4.036,39.883,39.883,0,0,0,10.834,1.567q10.724,0,10.728-5.281,0-2.471-2.927-3.553a42.988,42.988,0,0,0-8.992-1.83,86.191,86.191,0,0,1-11.812-2.478,18.3,18.3,0,0,1-8.073-4.955q-3.424-3.558-3.422-10.127a15.78,15.78,0,0,1,3.193-9.745,20.574,20.574,0,0,1,9.318-6.628A40,40,0,0,1,417.354,32.1a57.191,57.191,0,0,1,12.3,1.347,34.743,34.743,0,0,1,10.131,3.719l-5.633,11.956a33.839,33.839,0,0,0-16.793-4.307q-5.426,0-8.128,1.508c-1.8,1-2.706,2.3-2.706,3.875q0,2.694,2.922,3.769a52.032,52.032,0,0,0,9.318,2.05,101.523,101.523,0,0,1,11.7,2.528,17.649,17.649,0,0,1,7.911,4.9q3.348,3.558,3.359,9.911a15.255,15.255,0,0,1-3.253,9.585A20.722,20.722,0,0,1,429,89.458a42.4,42.4,0,0,1-14.781,2.308A56.9,56.9,0,0,1,400.023,90Z" transform="translate(138.5 19.923)" fill="#fff"/>
      <path id="Контур_4058" data-name="Контур 4058" d="M72,142.687c39.765,0,72-31.85,72-71.141S111.766.406,72,.406,0,32.256,0,71.547,32.235,142.687,72,142.687Z" transform="translate(0 1.313)" fill="#fff"/>
      <path id="Контур_4059" data-name="Контур 4059" d="M66.367,72.206a4.265,4.265,0,0,0-1.821-.4,4.646,4.646,0,0,0-1.6.284,7.056,7.056,0,0,0-2.478,1.88,9.913,9.913,0,0,1-.9.86c-4.358,3.38-8.382,4.947-13.252,5.15V34.694c4.32.593,7.437,2.38,9.254,5.32a14.487,14.487,0,0,1,1,2.143,12.972,12.972,0,0,0,1.728,3.32c.085.11.407.479.466.563a4.066,4.066,0,0,0,2.922,1.186,3.939,3.939,0,0,0,1.715-.356,4.074,4.074,0,0,0,1.41-1.072,6.4,6.4,0,0,0,1.177-4c0-.788.059-1.309.085-1.69a10.712,10.712,0,0,0-.03-2.253c-.466-4.108-1.576-4.9-5.027-6.76l-1.088-.593c-5.26-2.922-8.356-3.592-13.574-4.307.517-8.344,2.1-11.266,3.782-13.129a5.281,5.281,0,0,1,4.028-1.69,6.23,6.23,0,0,1,.8.047c-1.635,2.931-1.216,6.023,1.088,8.047a7.076,7.076,0,0,0,4.612,1.508A6.585,6.585,0,0,0,64.8,19.722c2.969-2.452,2.969-6.819,1.266-9.445a13.4,13.4,0,0,0-8.424-5.7,16.611,16.611,0,0,0-9.4.686,17.2,17.2,0,0,0-7.641,5.73l-.212.271a23.658,23.658,0,0,0-5.4,14.9C18.216,29.912,9,40.59,9,56.349c0,9.631,3.409,26.471,25.988,32.3V89.6c-.1,3.32-.174,5.718-2.033,9.39a5.626,5.626,0,0,1-2.075,2.1,5.455,5.455,0,0,1-2.821.745,5.514,5.514,0,0,1-1.088-.106,6.565,6.565,0,0,0,.572-3.032,5.921,5.921,0,0,0-.648-2.533,5.709,5.709,0,0,0-1.808-2.063,7.78,7.78,0,0,0-3.812-1.127,6.216,6.216,0,0,0-4.29,1.83,6.632,6.632,0,0,0-1.931,4.367,8.42,8.42,0,0,0,2.262,5.963,12.24,12.24,0,0,0,4.3,3.329,11.835,11.835,0,0,0,5.264,1.088,21.812,21.812,0,0,0,4.354-.491c6.277-1.6,10.855-5.718,13.608-12.24.949-2.249,1.275-6.052,1.381-8.073A32.172,32.172,0,0,0,56.164,86c6.62-3.147,8.708-5.366,10.343-7.145l.432-.462a4.032,4.032,0,0,0,1.152-4.235,3.431,3.431,0,0,0-1.724-1.952ZM35.022,57.459V79.593C27.945,77.458,23.1,68.831,23.1,57.853c0-8.983,2.13-20,11.977-22.93-.042,7.48-.055,15.023-.059,22.532Z" transform="translate(29.118 13.571)" fill="#2955c1"/>
      <path id="Контур_4060" data-name="Контур 4060" d="M122.824,20.986A70.734,70.734,0,0,0,21.248,22.027a77.176,77.176,0,0,0-1,105.286Z" transform="translate(0 0)" fill="#fff" opacity="0.1"/>
    </g>
  </g>
</svg>
