<svg xmlns="http://www.w3.org/2000/svg" xmlns:xlink="http://www.w3.org/1999/xlink" width="760" height="600" viewBox="0 0 760 600">
  <defs>
    <clipPath id="clip-path">
      <rect id="Прямоугольник_116" data-name="Прямоугольник 116" width="606.192" height="156.423" fill="#3e3e3e"/>
    </clipPath>
  </defs>
  <g id="Сгруппировать_1529" data-name="Сгруппировать 1529" transform="translate(-1674 -1325)">
    <g id="Сгруппировать_1495" data-name="Сгруппировать 1495" transform="translate(1580 1238)">
      <g id="Сгруппировать_1260" data-name="Сгруппировать 1260" transform="translate(2658 3345)">
        <g id="Сгруппировать_1259" data-name="Сгруппировать 1259" transform="translate(-2564 -3258)">
          <g id="Сгруппировать_1040" data-name="Сгруппировать 1040" transform="translate(0)">
            <rect id="Прямоугольник_38" data-name="Прямоугольник 38" width="760" height="600" rx="75" fill="#fdefca"/>
          </g>
        </g>
      </g>
    </g>
    <g id="Сгруппировать_1528" data-name="Сгруппировать 1528" transform="translate(1751 1547)">
      <g id="Сгруппировать_1439" data-name="Сгруппировать 1439" clip-path="url(#clip-path)">
        <text id="Vipail" transform="translate(252.516 117.383)" fill="#3e3e3e" font-size="119" font-family="Montserrat-Bold, Montserrat" font-weight="700"><tspan x="0" y="0" letter-spacing="-0.004em">V</tspan><tspan y="0">i</tspan><tspan y="0" letter-spacing="-0.008em">p</tspan><tspan y="0">ail</tspan></text>
        <path id="Контур_4104" data-name="Контур 4104" d="M20.242,34c.486-2.812.769-5.473,1.421-8.039A34.482,34.482,0,0,1,54.532.079Q111.764-.067,169,.083c17.787.056,32.381,14.141,33.93,32.3.049.572.111,1.144.157,1.609a59.232,59.232,0,0,1,6.7,1.04,19.926,19.926,0,0,1,3.86,36.955A3.021,3.021,0,0,0,211.71,75.2c.079,8.315,0,16.631.047,24.945.04,7.314-2.42,13.531-8.012,18.321-1.126.966-.931,1.855-.667,2.933,1.717,6.981,3.473,13.954,5.154,20.944,1.576,6.557-1.272,12.116-6.932,13.689a10.354,10.354,0,0,1-12.866-7.3c-.934-3.355-1.8-6.734-2.528-10.139-.346-1.621-1.051-2.109-2.695-2.093-8.609.082-17.221.039-25.832.039q-57.9,0-115.8-.047c-2.011,0-2.84.543-3.22,2.553-.6,3.2-1.5,6.347-2.4,9.479a10.308,10.308,0,0,1-12.592,7.426c-5.5-1.449-8.6-6.86-7.242-12.692,1.735-7.436,3.535-14.855,5.2-22.306a3,3,0,0,0-.738-2.395,24.083,24.083,0,0,1-7.893-18.231c.025-8.464-.02-16.929.03-25.391a2.573,2.573,0,0,0-1.591-2.749,20.064,20.064,0,0,1,7.246-37.957c.587-.061,1.174-.141,1.868-.224M184.148,81.168c0-.728,0-1.441,0-2.152.04-8.61.149-17.222.1-25.832-.038-7.049,3.139-12.2,8.972-15.853,4.089-2.562,4.186-2.662,3.257-7.428a34.794,34.794,0,0,0-.876-3.673c-3.768-12.144-14.7-20.076-27.931-20.09q-56-.06-112-.011c-.816,0-1.633.038-2.447.081a28.731,28.731,0,0,0-26.664,26.9,2.706,2.706,0,0,0,1.751,3.057c7.979,3.908,11.822,10.418,11.766,19.3-.049,7.867-.013,15.737-.006,23.6,0,.711.06,1.423.1,2.254a2.942,2.942,0,0,0,.754-.313c5.287-5.083,11.685-6.979,18.9-6.894,9.869.114,19.743.154,29.611-.007,9.515-.155,17,3.386,22.31,11.354.064.1.245.118.421.2a2.575,2.575,0,0,0,.445-.415c5.3-7.889,12.786-11.291,22.191-11.136q14.248.234,28.5-.008c7.653-.141,14.584,1.409,20.181,7.013.073.073.267.023.659.045m-72.166,37.248q37.192,0,74.385-.007c11.545-.009,18.885-7.4,18.9-18.966q.016-13.587,0-27.174c0-3.248.374-3.766,3.41-4.854a13.852,13.852,0,1,0-18.546-13.085c-.041,14.7-.011,29.4-.013,44.1,0,3.87-.7,4.589-4.483,4.589q-73.494,0-146.988,0c-3.855,0-4.569-.7-4.57-4.5q0-22.274-.009-44.549A13.743,13.743,0,0,0,21.752,40.218a13.96,13.96,0,0,0-6.5,26.947c3.525,1.33,3.673,1.544,3.673,5.318,0,9.133-.047,18.266.038,27.4a22.149,22.149,0,0,0,.812,6.134c2.34,7.762,9.159,12.391,18.041,12.4q37.081.025,74.161.006M40.5,96.868H109c-.063-.822-.056-1.485-.173-2.127A17.373,17.373,0,0,0,91.807,80.268c-11.426-.083-22.854-.034-34.28,0a18.353,18.353,0,0,0-3.745.451c-7.5,1.609-13.66,9.039-13.285,16.149m143.431.212a9.272,9.272,0,0,0,.039-.934,17,17,0,0,0-17.13-15.719c-11.279-.127-22.562-.063-33.842,0a20.212,20.212,0,0,0-5.264.756c-7.21,2.014-12.708,9.248-12.161,15.894ZM39.9,130.12H183.992v-5.29H39.9ZM196.93,123.1c-1.746.456-3.353,1-5,1.265-1.227.192-1.548.706-1.587,1.878-.239,7.408,2.507,14.231,4.159,21.258.456,1.943,3.056,3.053,4.867,2.566a4.175,4.175,0,0,0,3.08-4.781c-1.759-7.4-3.657-14.765-5.514-22.186m-169.35-.2a4.5,4.5,0,0,0-.377.811c-1.689,7.042-3.406,14.078-5.024,21.135-.592,2.582.646,4.647,2.882,5.237,2.259.6,4.448-.784,5.113-3.385.987-3.867,2.077-7.724,2.729-11.652.572-3.458.6-7.006.87-10.5-2.323-.619-4.227-1.124-6.192-1.647" transform="translate(0 0)" fill="#3e3e3e"/>
        <path id="Контур_4105" data-name="Контур 4105" d="M52.681,38.4a4.329,4.329,0,0,1,4.378,4.319A4.45,4.45,0,0,1,52.63,47.26,4.582,4.582,0,0,1,48.2,42.884,4.452,4.452,0,0,1,52.681,38.4" transform="translate(8.295 6.608)" fill="#3e3e3e"/>
        <path id="Контур_4106" data-name="Контур 4106" d="M111.187,38.4a4.459,4.459,0,0,1,4.3,4.5,4.584,4.584,0,0,1-4.5,4.367,4.477,4.477,0,0,1-4.36-4.671,4.334,4.334,0,0,1,4.551-4.191" transform="translate(18.352 6.608)" fill="#3e3e3e"/>
        <path id="Контур_4107" data-name="Контур 4107" d="M72.262,25.809a4.4,4.4,0,0,1-4.327,4.4,4.442,4.442,0,1,1,.075-8.88,4.395,4.395,0,0,1,4.252,4.475" transform="translate(10.912 3.671)" fill="#3e3e3e"/>
        <path id="Контур_4108" data-name="Контур 4108" d="M130.8,25.89a4.4,4.4,0,0,1-4.407,4.324,4.44,4.44,0,1,1,.014-8.88A4.4,4.4,0,0,1,130.8,25.89" transform="translate(20.985 3.672)" fill="#3e3e3e"/>
        <path id="Контур_4109" data-name="Контур 4109" d="M82.03,38.4a4.4,4.4,0,0,1,4.256,4.473,4.439,4.439,0,1,1-8.878-.143A4.4,4.4,0,0,1,82.03,38.4" transform="translate(13.322 6.608)" fill="#3e3e3e"/>
        <path id="Контур_4110" data-name="Контур 4110" d="M101.587,25.8a4.379,4.379,0,0,1-4.363,4.414,4.444,4.444,0,1,1,.064-8.887,4.37,4.37,0,0,1,4.3,4.473" transform="translate(15.966 3.671)" fill="#3e3e3e"/>
        <path id="Контур_4111" data-name="Контур 4111" d="M135.838,42.837a4.306,4.306,0,0,1,4.3-4.441,4.415,4.415,0,0,1,4.522,4.261,4.533,4.533,0,0,1-4.45,4.609,4.431,4.431,0,0,1-4.367-4.428" transform="translate(23.378 6.608)" fill="#3e3e3e"/>
      </g>
    </g>
  </g>
</svg>
