<svg xmlns="http://www.w3.org/2000/svg" width="760" height="600" viewBox="0 0 760 600">
  <g id="Сгруппировать_1541" data-name="Сгруппировать 1541" transform="translate(-2464 -3801)">
    <g id="Сгруппировать_1507" data-name="Сгруппировать 1507" transform="translate(2370 3714)">
      <g id="Сгруппировать_1260" data-name="Сгруппировать 1260" transform="translate(2658 3345)">
        <g id="Сгруппировать_1259" data-name="Сгруппировать 1259" transform="translate(-2564 -3258)">
          <g id="Сгруппировать_1040" data-name="Сгруппировать 1040" transform="translate(0)">
            <rect id="Прямоугольник_38" data-name="Прямоугольник 38" width="760" height="600" rx="75" fill="#0865ac"/>
          </g>
        </g>
      </g>
    </g>
    <g id="seedstars_white" transform="translate(2567 4063)">
      <path id="path-1" d="M49.023,72.49a40.126,40.126,0,0,1-12.034-1.8A26,26,0,0,1,28,66.182l3.144-5.434A26.592,26.592,0,0,0,39.3,64.872a32.76,32.76,0,0,0,10.217,1.6q7.074,0,10.463-2.183a6.928,6.928,0,0,0,3.389-6.162A5.509,5.509,0,0,0,61.5,53.712a12.455,12.455,0,0,0-4.715-2.426,68,68,0,0,0-7.565-1.6A87.645,87.645,0,0,1,39.1,47.307a14.889,14.889,0,0,1-6.533-4.124q-2.7-2.911-2.7-8.054a12.574,12.574,0,0,1,5.4-10.48q5.4-4.076,15.031-4.076a39.468,39.468,0,0,1,10.02,1.31,27.751,27.751,0,0,1,8.252,3.445l-3.045,5.531A26.315,26.315,0,0,0,50.3,26.492q-6.681,0-10.07,2.329a7.112,7.112,0,0,0-3.389,6.114,6,6,0,0,0,1.916,4.658,11.823,11.823,0,0,0,4.764,2.572,77.716,77.716,0,0,0,7.859,1.7A91.351,91.351,0,0,1,61.3,46.191a14.6,14.6,0,0,1,6.386,3.979,10.867,10.867,0,0,1,2.652,7.763A12.3,12.3,0,0,1,64.693,68.56Q59.044,72.49,49.023,72.49ZM245.758,0V72h-6.68V61.912a21.16,21.16,0,0,1-8.3,7.86,24.59,24.59,0,0,1-11.641,2.717,26.483,26.483,0,0,1-13.164-3.3,23.723,23.723,0,0,1-9.234-9.219,26.966,26.966,0,0,1-3.34-13.489,26.967,26.967,0,0,1,3.34-13.489,23.388,23.388,0,0,1,9.234-9.17,26.8,26.8,0,0,1,13.164-3.251,24.681,24.681,0,0,1,11.347,2.572,21.408,21.408,0,0,1,8.3,7.521V0ZM219.724,66.376A19.492,19.492,0,0,0,229.5,63.9a17.673,17.673,0,0,0,6.877-7.035,21.209,21.209,0,0,0,2.505-10.383A21.21,21.21,0,0,0,236.376,36.1a17.674,17.674,0,0,0-6.877-7.035,20.738,20.738,0,0,0-19.648,0,17.674,17.674,0,0,0-6.877,7.035,21.21,21.21,0,0,0-2.505,10.383,21.209,21.209,0,0,0,2.505,10.383,17.673,17.673,0,0,0,6.877,7.035A19.687,19.687,0,0,0,219.724,66.376Zm58.028,6.113a40.126,40.126,0,0,1-12.034-1.8,26,26,0,0,1-8.989-4.512l3.144-5.434a26.6,26.6,0,0,0,8.154,4.124,32.76,32.76,0,0,0,10.217,1.6q7.074,0,10.463-2.183a6.931,6.931,0,0,0,3.389-6.162,5.5,5.5,0,0,0-1.867-4.415,12.444,12.444,0,0,0-4.715-2.426,68.019,68.019,0,0,0-7.565-1.6,87.63,87.63,0,0,1-10.119-2.378,14.889,14.889,0,0,1-6.533-4.124q-2.7-2.911-2.7-8.054a12.574,12.574,0,0,1,5.4-10.48q5.4-4.076,15.031-4.076a39.473,39.473,0,0,1,10.021,1.31,27.769,27.769,0,0,1,8.253,3.445l-3.048,5.531a26.3,26.3,0,0,0-15.225-4.367q-6.681,0-10.07,2.329a7.112,7.112,0,0,0-3.389,6.114,6,6,0,0,0,1.916,4.658,11.823,11.823,0,0,0,4.764,2.572,77.694,77.694,0,0,0,7.859,1.7,91.349,91.349,0,0,1,9.922,2.329,14.6,14.6,0,0,1,6.386,3.979,10.865,10.865,0,0,1,2.653,7.763,12.306,12.306,0,0,1-5.651,10.626Q287.772,72.49,277.752,72.49ZM334.1,68.9a13.311,13.311,0,0,1-4.813,2.668,19.358,19.358,0,0,1-5.995.922q-7.269,0-11.2-3.881t-3.929-10.966V9.8h6.974v11.16H330.76v5.822H315.139V57.254q0,4.561,2.262,6.938t6.582,2.378a11.1,11.1,0,0,0,7.662-2.62Zm59.826-47.938V72h-6.68V61.912a21.142,21.142,0,0,1-8.3,7.86,24.592,24.592,0,0,1-11.642,2.717,26.483,26.483,0,0,1-13.164-3.3,23.746,23.746,0,0,1-9.235-9.219,26.981,26.981,0,0,1-3.338-13.489,26.981,26.981,0,0,1,3.338-13.489,23.411,23.411,0,0,1,9.235-9.17,26.8,26.8,0,0,1,13.164-3.251,24.686,24.686,0,0,1,11.348,2.572,21.411,21.411,0,0,1,8.3,7.521v-9.7ZM367.9,66.376a19.5,19.5,0,0,0,9.775-2.475,17.677,17.677,0,0,0,6.876-7.035,21.2,21.2,0,0,0,2.5-10.383,21.2,21.2,0,0,0-2.5-10.383,17.678,17.678,0,0,0-6.876-7.035,20.738,20.738,0,0,0-19.648,0,17.687,17.687,0,0,0-6.879,7.035,21.241,21.241,0,0,0-2.5,10.383,21.24,21.24,0,0,0,2.5,10.383,17.686,17.686,0,0,0,6.879,7.035A19.685,19.685,0,0,0,367.9,66.376Zm45.281-35.42a16.755,16.755,0,0,1,7.318-7.763,25.116,25.116,0,0,1,12.033-2.62v6.7l-1.671-.1q-8.15,0-12.769,4.949T413.471,46V72H406.5V20.961h6.68ZM459.741,72.49a40.126,40.126,0,0,1-12.033-1.8,25.992,25.992,0,0,1-8.989-4.512l3.142-5.434a26.61,26.61,0,0,0,8.155,4.124,32.749,32.749,0,0,0,10.217,1.6q7.073,0,10.46-2.183a6.926,6.926,0,0,0,3.393-6.162,5.512,5.512,0,0,0-1.867-4.415,12.475,12.475,0,0,0-4.716-2.426,67.976,67.976,0,0,0-7.568-1.6,87.521,87.521,0,0,1-10.116-2.378,14.892,14.892,0,0,1-6.535-4.124q-2.7-2.911-2.7-8.054a12.573,12.573,0,0,1,5.4-10.48q5.4-4.076,15.031-4.076a39.452,39.452,0,0,1,10.018,1.31,27.727,27.727,0,0,1,8.253,3.445l-3.045,5.531a26.319,26.319,0,0,0-15.226-4.367q-6.682,0-10.072,2.329a7.115,7.115,0,0,0-3.389,6.114,5.991,5.991,0,0,0,1.917,4.658,11.808,11.808,0,0,0,4.763,2.572,77.64,77.64,0,0,0,7.861,1.7,91.228,91.228,0,0,1,9.92,2.329,14.6,14.6,0,0,1,6.386,3.979,10.866,10.866,0,0,1,2.653,7.763,12.306,12.306,0,0,1-5.651,10.626Q469.761,72.49,459.741,72.49ZM185.49,48.248H143.169a18.707,18.707,0,0,0,6.06,13.057,19.823,19.823,0,0,0,13.85,4.976,21.369,21.369,0,0,0,8.656-1.725,18.936,18.936,0,0,0,6.829-5.075l3.847,4.533A21.7,21.7,0,0,1,174,70.322a27.871,27.871,0,0,1-11.109,2.168,27.549,27.549,0,0,1-13.8-3.4,24.207,24.207,0,0,1-9.378-9.411,27.349,27.349,0,0,1-3.366-13.6,28.324,28.324,0,0,1,3.222-13.6,23.654,23.654,0,0,1,8.849-9.361,24.246,24.246,0,0,1,12.648-3.35,23.994,23.994,0,0,1,12.6,3.35,23.5,23.5,0,0,1,8.752,9.312,28.593,28.593,0,0,1,3.174,13.648Zm-24.43-22.467A16.974,16.974,0,0,0,148.8,30.56a18.967,18.967,0,0,0-5.627,12.466h35.876a18.967,18.967,0,0,0-5.627-12.466A17.1,17.1,0,0,0,161.059,25.781ZM126.4,48.248H84.075a18.7,18.7,0,0,0,6.059,13.057,19.823,19.823,0,0,0,13.85,4.976,21.372,21.372,0,0,0,8.657-1.725,18.934,18.934,0,0,0,6.829-5.075l3.847,4.533a21.706,21.706,0,0,1-8.416,6.307,27.872,27.872,0,0,1-11.109,2.168,27.551,27.551,0,0,1-13.8-3.4,24.208,24.208,0,0,1-9.378-9.411,27.349,27.349,0,0,1-3.366-13.6,28.328,28.328,0,0,1,3.222-13.6,23.652,23.652,0,0,1,8.849-9.361,24.245,24.245,0,0,1,12.648-3.35,23.994,23.994,0,0,1,12.6,3.35,23.5,23.5,0,0,1,8.753,9.312,28.6,28.6,0,0,1,3.174,13.648Zm-24.43-22.467A16.974,16.974,0,0,0,89.7,30.56a18.967,18.967,0,0,0-5.627,12.466h35.876a18.967,18.967,0,0,0-5.627-12.466A17.1,17.1,0,0,0,101.965,25.781Z" transform="translate(73.485)" fill="#fff"/>
      <path id="path-3" d="M29.674,1a1.593,1.593,0,0,0-1.555,1.683q.277,8.359,2.178,27.5-7.638-4.6-24.108-10.8A1.546,1.546,0,0,0,4.18,20.418L.077,33.8a1.654,1.654,0,0,0,1.076,2.1q12.163,3.37,25.6,6.12-5.32,5.17-17.369,20.79a1.709,1.709,0,0,0,.291,2.375l10.508,8a1.492,1.492,0,0,0,2.153-.35,202.947,202.947,0,0,0,13.513-23.9Q44,63.769,50.143,72.813a1.492,1.492,0,0,0,2.153.372l10.7-8a1.713,1.713,0,0,0,.3-2.391Q51.744,47.956,45.273,42.014A130.879,130.879,0,0,0,71.4,35.965a1.678,1.678,0,0,0,1.011-2.081L68.277,20.4a1.553,1.553,0,0,0-1.989-1.053A184.186,184.186,0,0,0,41.611,30.062q2.06-16.209,2.5-27.372A1.594,1.594,0,0,0,42.551,1Z" transform="translate(0 2.624)" fill="#fff"/>
    </g>
  </g>
</svg>
