<svg xmlns="http://www.w3.org/2000/svg" xmlns:xlink="http://www.w3.org/1999/xlink" width="760" height="600" viewBox="0 0 760 600">
  <defs>
    <clipPath id="clip-path">
      <rect id="Прямоугольник_115" data-name="Прямоугольник 115" width="682.385" height="79.207" fill="none"/>
    </clipPath>
  </defs>
  <g id="Сгруппировать_1527" data-name="Сгруппировать 1527" transform="translate(-1674 -706)">
    <g id="Сгруппировать_1494" data-name="Сгруппировать 1494" transform="translate(1580 619)">
      <g id="Сгруппировать_1260" data-name="Сгруппировать 1260" transform="translate(2658 3345)">
        <g id="Сгруппировать_1259" data-name="Сгруппировать 1259" transform="translate(-2564 -3258)">
          <g id="Сгруппировать_1040" data-name="Сгруппировать 1040" transform="translate(0)">
            <rect id="Прямоугольник_38" data-name="Прямоугольник 38" width="760" height="600" rx="75" fill="#232323"/>
          </g>
        </g>
      </g>
    </g>
    <g id="Сгруппировать_1431" data-name="Сгруппировать 1431" transform="translate(3287 -2887)">
      <g id="Сгруппировать_1433" data-name="Сгруппировать 1433" transform="translate(-1574 3853)">
        <g id="Сгруппировать_1432" data-name="Сгруппировать 1432" transform="translate(0 0)" clip-path="url(#clip-path)">
          <path id="Контур_4091" data-name="Контур 4091" d="M137.307,39.888c-.258,1.842-1.98,2.513-3.512,2.892-3.632.9-7.178,1.653-10.484,3.718-2.135,1.343-4.286-1.067-4.854-2.875-3.718-11.671-13.532-14.787-23.722-17.61-3.391-.93-6.989-1.274-9.984-3.977,13.961-.654,27.939-1.257,40.73,6.2.62.362,1.721.912,1.67,1.239-.93,5.922,4.355,4.717,7.144,6.4,1.479.9,3.322,1.859,3.013,4.011" transform="translate(61.144 15.638)" fill="#f8f8f8"/>
          <path id="Контур_4092" data-name="Контур 4092" d="M91.8,33.735c-5.388-.052-9.02,3.581-8.986,9,.05,5.44,3.649,9.106,8.986,9.106a8.612,8.612,0,0,0,9.038-9.038c.017-5.337-3.634-9-9.038-9.072M91.78,48.884c-3.77-.207-6.2-2.1-6.318-5.836-.12-3.942,2.152-6.4,6.18-6.4,3.768.017,5.956,2.393,6.025,6.06.069,3.736-2.24,5.75-5.887,6.18" transform="translate(59.744 24.339)" fill="#f8f8f8"/>
          <path id="Контур_4093" data-name="Контур 4093" d="M45.559,33.836a8.889,8.889,0,0,0-9.347,8.831,9.119,9.119,0,0,0,8.936,9.347,9.361,9.361,0,0,0,9.468-8.934,9.227,9.227,0,0,0-9.057-9.244m-.293,15.028c-3.785-.052-6.092-2.376-6.163-6.008-.086-3.959,2.36-6.128,6.3-6.455,3.772.379,6.2,2.393,6.214,6.094,0,3.873-2.236,6.421-6.352,6.369" transform="translate(26.124 24.41)" fill="#f8f8f8"/>
          <path id="Контур_4094" data-name="Контур 4094" d="M145.549,38.333a25.773,25.773,0,0,0-11.033-4.011c-9.349-1.171-17.32-5.388-25.049-10.346A37.052,37.052,0,0,0,94.56,18.244c-14.081-2-28.215-1.1-42.348-.981a19.975,19.975,0,0,0-4.2.775c-4.374,1.033-6.612,4.545-9.246,7.712-2.117,2.548-.482,4.459.138,6.783.568,2.152-.568,3.925-2.444,5.491a10.664,10.664,0,0,0-2.513,13.651c.362-.4.844-.689,1.035-1.119,2.839-6.421,7.624-10.053,14.753-9.141,6.85.861,10.723,5.216,11.739,12.05.5,3.288,3,3.736,5.595,3.77,14.133.12,28.266.138,42.4.275,3.271.034,4.632-1.394,5.388-4.6,1.756-7.437,7.042-11.671,13.5-11.43,6.523.241,11.067,4.441,12.567,12.343.652,3.426,2.2,3.546,4.853,2.634,2.978-1.016,4.908-2.858,5.233-6.094.535-5.078-1.205-9.193-5.457-12.033M72.095,31.912c-2.307.172-4.648.034-6.972.034v.1a29.65,29.65,0,0,1-4.286-.034c-2.806-.411-6.576.5-6.886-4.08-.275-4.063,3.013-8.573,6.853-8.952a90.933,90.933,0,0,1,11.258-.1c4.147.121,4.08,3.305,4.044,6.214-.033,2.978.482,6.49-4.011,6.817m35.944-1.205c-.773,3.391-3.959,2.238-6.266,2.444-1.773.155-3.563.034-5.337.034A61.968,61.968,0,0,1,84.749,32.17a5.772,5.772,0,0,1-4.822-4.321c-2.357-7.626-.275-10.07,7.559-8.5,5.765,1.153,11.5,2.5,16.576,5.646,2.117,1.308,4.65,2.789,3.977,5.715" transform="translate(23.447 12.235)" fill="#f8f8f8"/>
          <path id="Контур_4095" data-name="Контур 4095" d="M56.018,39.189c-2.066,4.631-1.136,9.9-3.6,14.46-1.429,2.651-3.1,3.6-5.991,2.944Q27.347,52.281,8.213,48.054c-2.049-.448-3.889-1.222-3.734-3.753.153-2.582,2.116-2.892,4.2-3.15,7.213-.878,7.247-.93,4.39-7.626C9.125,24.316,5.114,15.14,1.19,5.913-1.014.766-.463-.043,5.459.043c2.84-.31,5.336,1.067,7.66,3.34,9.435,9.279,19,18.437,28.473,27.681,3.254,3.185,6.473,6.2,11.518,5.922,1.444-.086,3.613.62,2.908,2.2" transform="translate(0 0.001)" fill="#f8f8f8"/>
          <path id="Контур_4096" data-name="Контур 4096" d="M161.821,15.057A18.74,18.74,0,0,1,173.35,33.1a19.664,19.664,0,0,1-2.994,10.881,19.073,19.073,0,0,1-8.535,7.12,31.909,31.909,0,0,1-13.068,2.469H137.347V69.183H124.24V12.549h24.513a31.507,31.507,0,0,1,13.068,2.508M157.006,40.34a8.879,8.879,0,0,0,3.075-7.24,8.972,8.972,0,0,0-3.075-7.321q-3.073-2.549-8.981-2.549H137.347V42.888h10.678q5.905,0,8.981-2.548" transform="translate(89.633 9.054)" fill="#f8f8f8"/>
          <path id="Контур_4097" data-name="Контур 4097" d="M196.943,57.047H170.651l-5.016,12.136H152.2l25.242-56.634h12.945l25.323,56.634H201.961ZM192.818,47.1l-8.981-21.682L174.857,47.1Z" transform="translate(109.808 9.054)" fill="#f8f8f8"/>
          <path id="Контур_4098" data-name="Контур 4098" d="M228.61,69.181,217.689,53.406H205.634V69.181H192.527V12.549H217.04a31.452,31.452,0,0,1,13.068,2.51,19.413,19.413,0,0,1,8.535,7.118A19.617,19.617,0,0,1,241.637,33.1,19.225,19.225,0,0,1,238.6,43.981a19.225,19.225,0,0,1-8.614,7l12.7,18.2Zm-3.317-43.4q-3.073-2.549-8.981-2.548H205.634v19.74h10.678q5.905,0,8.981-2.589a9,9,0,0,0,3.075-7.282,8.974,8.974,0,0,0-3.075-7.321" transform="translate(138.899 9.054)" fill="#f8f8f8"/>
          <path id="Контур_4099" data-name="Контур 4099" d="M247.7,46.934l-7.6,7.929V69.182H227.071V12.549H240.1V39l25.08-26.455h14.562L256.277,37.791l24.837,31.391h-15.29Z" transform="translate(163.821 9.055)" fill="#f8f8f8"/>
          <path id="Контур_4100" data-name="Контур 4100" d="M300.807,57.047H274.515L269.5,69.183H256.068L281.31,12.549h12.945l25.323,56.634H305.825ZM296.682,47.1,287.7,25.413,278.721,47.1Z" transform="translate(184.741 9.054)" fill="#f8f8f8"/>
          <path id="Контур_4101" data-name="Контур 4101" d="M340.242,58.665V69.183H296.39V12.549h42.8V23.067H309.418v12.3H335.71V45.56H309.418V58.665Z" transform="translate(213.831 9.054)" fill="#f8f8f8"/>
          <path id="Контур_4102" data-name="Контур 4102" d="M364.009,69.181,353.088,53.406H341.033V69.181H327.926V12.549h24.513a31.452,31.452,0,0,1,13.068,2.51,19.413,19.413,0,0,1,8.535,7.118A19.617,19.617,0,0,1,377.036,33.1,19.225,19.225,0,0,1,374,43.981a19.226,19.226,0,0,1-8.614,7l12.7,18.2Zm-3.317-43.4q-3.073-2.549-8.981-2.548H341.033v19.74h10.678q5.905,0,8.981-2.589a9,9,0,0,0,3.075-7.282,8.974,8.974,0,0,0-3.075-7.321" transform="translate(236.583 9.054)" fill="#f8f8f8"/>
          <path id="Контур_4103" data-name="Контур 4103" d="M375.489,66.757a28.205,28.205,0,0,1-11.083-10.477A28.6,28.6,0,0,1,360.4,41.273a28.6,28.6,0,0,1,4.006-15.008,28.217,28.217,0,0,1,11.083-10.477,35.05,35.05,0,0,1,31.756,0,28.332,28.332,0,0,1,15.128,25.484,28.332,28.332,0,0,1-15.128,25.484,35.05,35.05,0,0,1-31.756,0m24.959-9.668a16.539,16.539,0,0,0,6.35-6.431,18.907,18.907,0,0,0,2.307-9.385,18.912,18.912,0,0,0-2.307-9.385,16.539,16.539,0,0,0-6.35-6.431,18.961,18.961,0,0,0-18.122,0,16.532,16.532,0,0,0-6.352,6.431,18.929,18.929,0,0,0-2.3,9.385,18.925,18.925,0,0,0,2.3,9.385,16.532,16.532,0,0,0,6.352,6.431,18.961,18.961,0,0,0,18.122,0" transform="translate(260.012 8.648)" fill="#f8f8f8"/>
        </g>
      </g>
    </g>
  </g>
</svg>
