<svg xmlns="http://www.w3.org/2000/svg" width="760" height="600" viewBox="0 0 760 600">
  <g id="Сгруппировать_1538" data-name="Сгруппировать 1538" transform="translate(-2464 -1944)">
    <g id="Сгруппировать_1504" data-name="Сгруппировать 1504" transform="translate(2370 1857)">
      <g id="Сгруппировать_1260" data-name="Сгруппировать 1260" transform="translate(2658 3345)">
        <g id="Сгруппировать_1259" data-name="Сгруппировать 1259" transform="translate(-2564 -3258)">
          <g id="Сгруппировать_1040" data-name="Сгруппировать 1040" transform="translate(0)">
            <rect id="Прямоугольник_38" data-name="Прямоугольник 38" width="760" height="600" rx="75" fill="#0c314e"/>
          </g>
        </g>
      </g>
    </g>
    <path id="Logos_scool" data-name="Logos scool" d="M56.982,23.645,9.538,39.264V55.317H0V78.34H23.36l-.086-11.43-.087-11.43-4.694-.09L13.8,55.3l.089-6.558.089-6.557,1.18-.287c1.061-.259,5.608,1.168,45.442,14.257L104.863,70.7l47.143-15.524c25.928-8.539,47.348-15.628,47.6-15.755.41-.207-94.015-31.486-94.852-31.42C104.574,8.014,83.076,15.055,56.982,23.645Zm488,47.561V87.1H533.474v23.022h11.487l.11,27c.122,30.032,0,28.311,2.421,33.193a23.994,23.994,0,0,0,14.929,12.136c2.169.622,3.511.726,11.261.873l8.8.167v-23.1l-4.521-.014c-6.147-.019-7.705-.606-9-3.391-.566-1.219-.6-2.667-.61-24.076l-.006-22.78h14.14V87.1H568.34V55.317H544.986ZM47.877,56.863c-.1.1-.186,5.255-.186,11.452V79.583l27.217,8.944c14.969,4.919,27.329,8.945,27.467,8.945s.212-5.144.165-11.43l-.087-11.43L75.258,65.645C60.3,60.714,47.979,56.761,47.877,56.863Zm86.561,8.8-27.216,8.942V86.04c0,6.287.11,11.432.246,11.432.44,0,53.849-17.584,54.109-17.814.138-.123.212-5.333.164-11.579l-.087-11.356ZM0,133.145V183.41l11.594-.085,11.594-.085.083-50.18.083-50.18H0ZM46.357,86.8a70.057,70.057,0,0,0-7.4,19.795c-.721,3.345-.892,5.139-1.036,10.839-.233,9.282.6,15.172,3.227,22.934A66.3,66.3,0,0,0,75.153,178.7a68.574,68.574,0,0,0,21.163,6.323,92.346,92.346,0,0,0,17.79-.169,68.211,68.211,0,0,0,26.8-9.791l2.272-1.445,5.954,5.864c3.275,3.225,6.1,5.863,6.277,5.863s3.988-3.61,8.465-8.023l8.143-8.023L165.9,163.27l-6.111-6.032,1.465-2.24a66.321,66.321,0,0,0,9.927-26.4,86.043,86.043,0,0,0-.027-18.58,66.714,66.714,0,0,0-4.1-15.124,60.338,60.338,0,0,0-5-9.867c-.443-.588-.908-.466-11.615,3.043-6.134,2.01-11.263,3.716-11.4,3.791a8.476,8.476,0,0,0,1.532,2.631,41.714,41.714,0,0,1,7.865,24.871,40.149,40.149,0,0,1-4.132,18.417l-1.365,2.854-5.2-5.12-5.2-5.12-8.221,8.1-8.221,8.1,5.164,5.1a65.827,65.827,0,0,1,5.015,5.234,44.262,44.262,0,0,1-6.994,3.092,45.006,45.006,0,0,1-28.7.192c-18.961-6.383-31.324-25.164-29.415-44.681a42.578,42.578,0,0,1,7.72-20.957c1.2-1.733,1.679-2.684,1.408-2.784C68.913,91.27,48.151,84.5,47.957,84.5A10.56,10.56,0,0,0,46.357,86.8Zm184.218-1.644a50.351,50.351,0,0,0-43.763,65.489,51.038,51.038,0,0,0,59.5,33.69,54.126,54.126,0,0,0,15.223-6,8.58,8.58,0,0,1,1.415-.774,12.7,12.7,0,0,1,.171,2.923v2.922l11.594-.085,11.594-.085.083-48.072.083-48.072H263.119v2.918a16.862,16.862,0,0,1-.128,2.919c-.07,0-1.135-.58-2.365-1.289A52.64,52.64,0,0,0,230.575,85.157Zm118.8.015A51.622,51.622,0,0,0,304.186,125.2c-.732,3.2-.742,3.6-.855,30.728l-.114,27.486,11.608-.085,11.607-.085.179-26.59c.2-29.515.063-27.705,2.475-32.861a28.129,28.129,0,0,1,18.725-15.152,34.5,34.5,0,0,1,12.663-.036,27.56,27.56,0,0,1,13.186,7.353,26.289,26.289,0,0,1,6.968,11.025l1.061,3.08.164,26.59.164,26.59,11.609.085,11.61.085-.118-27.486c-.114-26.842-.134-27.558-.833-30.591a49.557,49.557,0,0,0-14.022-25.448A46.679,46.679,0,0,0,377.1,90.332a50.363,50.363,0,0,0-18.5-5.174A38.09,38.09,0,0,0,349.374,85.172Zm115.753-.019c-30.226,3.105-51.095,31.134-44.952,60.377,4.075,19.4,19.986,35.033,39.673,38.98,12.133,2.434,25.717.23,35.8-5.807a15.756,15.756,0,0,1,2.1-1.138,10.7,10.7,0,0,1,.2,2.919V183.4h23.023V87.1H497.953v2.918a12.587,12.587,0,0,1-.172,2.919,30.661,30.661,0,0,1-2.713-1.455A52.759,52.759,0,0,0,465.127,85.153ZM242.563,108.019a29.287,29.287,0,0,1,19.326,17.015,29.905,29.905,0,0,1,.922,17.777,28.246,28.246,0,0,1-15.531,17.862A25.774,25.774,0,0,1,236.9,163.2a28.394,28.394,0,0,1-29.092-20.819,32.041,32.041,0,0,1,0-14.267,28.629,28.629,0,0,1,22.1-20.443A40.554,40.554,0,0,1,242.563,108.019Zm232.749-.361a28.543,28.543,0,0,1,22.364,20.457,33.362,33.362,0,0,1,0,14.25A28.4,28.4,0,0,1,468.589,163.2a25.776,25.776,0,0,1-10.381-2.528,27.849,27.849,0,0,1,0-50.86,29.053,29.053,0,0,1,7.678-2.382A40.07,40.07,0,0,1,475.312,107.658Z" transform="translate(2553 2147)" fill="#fff" fill-rule="evenodd"/>
  </g>
</svg>
