<svg xmlns="http://www.w3.org/2000/svg" xmlns:xlink="http://www.w3.org/1999/xlink" width="760" height="600" viewBox="0 0 760 600">
  <defs>
    <clipPath id="clip-path">
      <rect id="Прямоугольник_130" data-name="Прямоугольник 130" width="651.474" height="233.74" fill="none"/>
    </clipPath>
  </defs>
  <g id="Сгруппировать_1536" data-name="Сгруппировать 1536" transform="translate(-2464 -706)">
    <g id="Сгруппировать_1503" data-name="Сгруппировать 1503" transform="translate(2370 619)">
      <g id="Сгруппировать_1260" data-name="Сгруппировать 1260" transform="translate(2658 3345)">
        <g id="Сгруппировать_1259" data-name="Сгруппировать 1259" transform="translate(-2564 -3258)">
          <g id="Сгруппировать_1040" data-name="Сгруппировать 1040" transform="translate(0)">
            <rect id="Прямоугольник_38" data-name="Прямоугольник 38" width="760" height="600" rx="75" fill="#2f4397"/>
          </g>
        </g>
      </g>
    </g>
    <g id="Сгруппировать_1460" data-name="Сгруппировать 1460" transform="translate(2518 889)">
      <g id="Сгруппировать_1459" data-name="Сгруппировать 1459" clip-path="url(#clip-path)">
        <path id="Контур_4227" data-name="Контур 4227" d="M651.474,226.79H0M343.012,106.955h.049c0-13.862.314-27.736-.145-41.586a68.992,68.992,0,0,0-3.149-17.517c-2.714-8.988-9.036-13.6-17.349-14.115-9.965-.6-18.253,2.594-21.764,12.257-2.461,6.756-2.811,14.3-3.995,21.511-.65,3.933-.4,8.168-1.845,11.739-.9,2.244-4.319,4.934-6.442,4.79-1.954-.133-4.162-3.523-5.344-5.936-1-2.027-1-4.717-.881-7.094.471-9,.917-18.024,1.858-26.988.772-7.383.446-7.964-7.178-7.347a41.025,41.025,0,0,1-7.2-.036c-7.492-.724-8.385.35-7.866,7.673,1.11,15.551,2.751,31.15,2.629,46.713-.216,26.831,2.667,53.819-3.027,80.456-.253,1.158-.7,2.763-.157,3.524,1.146,1.592,2.763,3.692,4.416,3.933,4.331.627,8.807.205,13.2.507,4.668.326,6.165-1.653,5.489-6.117a99.422,99.422,0,0,1-1.6-14.357c-.06-13.017.036-26.059.736-39.052.1-1.918,3.981-5.284,5.778-5.079,2.5.277,5.092,2.992,6.83,5.284,1.025,1.338.567,3.885.591,5.887.1,9.434-.241,18.9.338,28.315.326,5.055,1.941,10.086,3.426,14.995,3.909,12.862,25.07,19.521,35.216,3.982a46.176,46.176,0,0,0,7.07-21.149c1.074-15,.325-30.113.325-45.193m-18.059,3.378h-.037c0,11.437.037,22.885-.023,34.323-.012,2.2.145,4.621-.724,6.5-.822,1.773-2.739,3.873-4.452,4.162-1.568.253-4.212-1.279-5.139-2.787a15.992,15.992,0,0,1-2.316-7.83c-.169-22.681-.1-45.363-.06-68.055,0-1.592-.277-3.607.542-4.693,1.8-2.378,4.091-5.851,6.4-6.02,3.606-.279,5.731,3.052,5.731,7.058,0,10.243.047,20.473.084,30.716ZM112.391,171.572c-1.243-5.429-2.426-11.015-2.473-16.552q-.4-46.128-.1-92.244c.06-6.925,1.35-13.874,2.606-20.714.784-4.283-.3-6.177-4.682-6.044-3.812.121-7.637.362-11.436.169-4.512-.217-6.261,1.592-5.706,6.092,1.06,8.5.7,16.781-3.657,24.563-3.426,6.129-6.477,12.462-9.7,18.712l-2.16-.326c-.555-2.135-1.5-4.247-1.58-6.4A135.9,135.9,0,0,1,73.5,61.364c.6-7.07,2.182-14.055,2.871-21.125.109-1.206-2.075-3.668-3.342-3.776a137.52,137.52,0,0,0-16.252-.241,17.269,17.269,0,0,0-4.7,1.267c1.231,5.658,2.98,10.013,3,14.381.205,34.359.267,68.73-.1,103.09-.06,6-2.243,11.98-3.606,17.928-.869,3.812-.253,6.454,4.283,6.527q8.433.127,16.878.048c4.621-.036,5.381-2.607,3.956-6.442-.831-2.244-2.015-4.428-2.436-6.756-3.6-19.521,3.68-36.6,12.245-53.361a3.549,3.549,0,0,1,2.787-1.665,3.758,3.758,0,0,1,2.437,2.22,13.618,13.618,0,0,1,.493,4.753C91.5,136.875,91,155.551,90.277,174.2c-.145,3.668.892,5.272,4.607,5.188,3.8-.074,7.614.012,11.414.169,6.466.241,7.576-1.472,6.092-7.987M173.569,36.138c-10.641.012-21.294-.048-31.922-.507-7.142-.3-7.952.82-7.914,8.107.133,28.737-.049,57.474-.3,86.2-.049,5.284-1.074,10.436-6.878,13.09-1.073.483-1.869,2.618-1.966,4.042-.518,8.433-1.314,16.89-.879,25.287.169,3.2,2.7,7.842,5.344,8.928,2.7,1.1,7.7-.386,10.158-2.509a16.658,16.658,0,0,0,5.369-10.279c1.906-28.448,3.269-56.919,4.8-85.393.158-2.8-.362-5.886.653-8.335,1.025-2.474,3.583-4.307,5.465-6.418,1.1,2.316,2.292,4.6,3.232,6.96a8.536,8.536,0,0,1,.11,3.005c.012,22.922.109,45.832-.06,68.755a147.233,147.233,0,0,1-1.351,22.245c-1.6,10.063-2.039,9.99,8.324,9.966h1.81v.133c1.8,0,3.607.024,5.417-.012,6.479-.134,7.383-1.5,5.622-7.661a27.134,27.134,0,0,1-1.412-8.252c1.532-40.066-4.114-80.338,3.39-120.246,1.122-5.984-.555-7.1-7.009-7.1m68.115-.012c-5.4.362-10.846.084-16.275.084v.422c-5.224-.29-10.448-.458-15.647-.893-7.383-.6-8.119.277-8.108,7.9q.038,44.012-.205,88.01c-.011,4.271-.035,8.638-5.634,9.953a3.586,3.586,0,0,0-2.122,2.618c-.362,10.8-1.11,21.643-.519,32.4.3,5.308,6.828,7.865,11.172,4.44,3.462-2.739,7.178-7.214,7.685-11.3,2.134-17.119,3.366-34.359,4.391-51.6.724-12.028.434-24.117.929-36.169a37.037,37.037,0,0,1,2.389-10.424c.483-1.351,2.437-2.172,3.716-3.247a23.709,23.709,0,0,1,2.834,3.536,7.546,7.546,0,0,1,.616,3.535c-.677,32.731-1.291,65.461-2.233,98.19-.119,4.393,1.147,5.889,5.285,5.756,3.811-.109,7.625.06,11.437.072,5.96.036,6.865-1.327,5.875-7.288-1.05-6.3-2.521-12.678-2.316-18.976,1.146-36.676-3.535-73.556,3.414-110.051,1.013-5.272-1.3-7.335-6.684-6.973" transform="translate(0 6.95)" fill="#cd2b3b"/>
        <path id="Контур_4228" data-name="Контур 4228" d="M409.21,0" transform="translate(84.474)" fill="#2f4397"/>
        <path id="Контур_4229" data-name="Контур 4229" d="M463.566,131.58c.9,14.013,1.673,28.034,2.766,42.032.327,4.192-1.512,5.447-5.158,5.412-4.007-.04-8.019-.244-12.016-.088-5.036.2-5.527-2.313-4.75-6.507,1.233-6.638,2.781-13.358,2.824-20.053.187-29.328.1-58.664-.407-87.988-.119-6.883-2.414-13.71-3.442-20.6-1.01-6.772.077-7.027,6.752-7.967,10.842-1.524,14.955,5.5,18.978,13.169C470.695,52,472,55.175,473.85,58.006c.82,1.257,2.666,1.843,4.048,2.736.9-1.409,2.642-2.873,2.555-4.216-.322-4.987-.617-10.135-2.114-14.844-1.6-5.027.788-5.692,4.508-5.784,4.417-.109,8.841-.158,13.255-.024,5.57.17,6.85,2.614,5.008,7.865-1.362,3.876-2.784,8.007-2.811,12.034q-.347,51.832-.034,103.666c.025,4.017,1.583,8.116,2.916,12.011,1.729,5.055.443,7.259-4.919,7.3-3.61.029-7.254-.374-10.817.017-4.874.534-6.658-1.317-6.22-6.084.828-8.984,1.823-17.975,2.114-26.983.464-14.3-.878-28.427-6.322-41.885-.15-.37-.121-.866-.362-1.14-2.261-2.566-4.563-5.1-6.851-7.639-1.148,3.122-3.129,6.2-3.289,9.375-.45,9.019-.158,18.075-.158,27.116l-.791.051" transform="translate(91.462 7.351)" fill="#fff"/>
        <path id="Контур_4230" data-name="Контур 4230" d="M366.51,204.227c-7.43,0-14.869-.215-22.29.078-4.279.17-5.709-1.455-5.509-5.55a104.618,104.618,0,0,0-.029-13.849c-.491-5.833.93-8.936,9.478-10.585,10.41-2.009,11.023-2.922,10.443-13.312-.635-11.4-.519-22.847-.766-34.274-.045-2,.277-4.238-.5-5.944-5.145-11.324-3.7-23.209-3.151-34.977.25-5.369-.007-10.1-5.641-12.664-.358-.163-.91-.415-.949-.686-1.328-9.127-3.518-18.276-3.354-27.382.051-2.831,6.283-5.88,10.051-8.25,8.655-5.446,9.117-6.39,5.281-15.729-2.6-6.323.72-13.613,6.416-14.1s9.43,4.124,8.65,10.753a13.987,13.987,0,0,1-.629,2.319C370.584,31.5,371.494,33.5,382.456,38.6c7.225,3.362,8.866,7.031,7.009,14.67a49.1,49.1,0,0,0-1.073,8.92c-.269,4.995.253,9.933-5.618,12.863-1.755.877-2.652,4.794-2.768,7.373-.292,6.406.5,12.87.081,19.259-.353,5.3-1.96,10.507-2.753,15.793-.561,3.741-.776,7.541-1,11.322-.68,11.585-1.147,23.184-1.991,34.755-.384,5.273,2.361,9.38,7.675,10.285,12.2,2.077,12.776,2.757,12.792,15.02.019,15.369.019,15.369-15.049,15.369q-6.627,0-13.255,0" transform="translate(69.897 1.438)" fill="#fff"/>
        <path id="Контур_4231" data-name="Контур 4231" d="M440.111,107.374h-.036c0-16.059.35-32.129-.145-48.174-.253-8.276-2.666-16.48-10.025-21.45-15.031-10.158-34.444-.965-35.348,18.736-1.472,31.838-1.448,63.772-1.327,95.658a42.984,42.984,0,0,0,5.284,19.882c6.177,11.135,24.95,15.466,34.118,1.544a45.961,45.961,0,0,0,7.154-21.052c1.075-14.983.326-30.088.326-45.144m-17.723-7.867c.025,3.607.012,7.214.012,10.822h-.072c0,11.642.06,23.272-.036,34.9a20.679,20.679,0,0,1-.953,7.083c-1.689,4.451-6.937,5.078-9.157.928a24.4,24.4,0,0,1-3.064-10.7c-.276-21.064-.228-42.117-.048-63.169a23.511,23.511,0,0,1,2.087-9.832c.917-1.882,4.524-4.379,5.623-3.849,2.279,1.074,5.031,3.9,5.186,6.165.639,9.181.374,18.422.422,27.651" transform="translate(81.165 6.931)" fill="#fff"/>
        <path id="Контур_4232" data-name="Контур 4232" d="M310.607,178.107c-4.312.309-7.515.6-10.726.752-3.582.163-5.372-1.548-4.651-5.183,2.023-10.194,4.061-20.386,6.254-30.546,2.021-9.37,4.327-18.68,6.37-28.047,2.086-9.569,4.032-19.171,5.975-28.771.474-2.348,1.495-4.992.848-7.058-.819-2.616-2.626-5.616-4.882-6.851-1.585-.869-4.671.818-7.006,1.6-.881.3-1.448,1.432-2.314,1.883-1.607.836-3.33,1.45-5,2.157-.727-1.974-2.308-4.08-2.027-5.9.886-5.716,2.5-11.319,3.775-16.977.966-4.28,2.3-8.544,2.643-12.88.335-4.236,2.061-6.429,6.185-6.471,10.212-.1,20.425-.078,30.639-.071,4.043,0,5.334,2.447,4.706,5.98-1.4,7.879-2.856,15.757-4.564,23.576-2.129,9.747-4.542,19.432-6.824,29.147-2.1,8.951-4.33,17.873-6.237,26.865-1.5,7.052-3.082,14.153-3.6,21.306-.194,2.669,1.865,6.779,4.1,7.962,1.936,1.024,5.626-1,8.438-1.969,2.614-.9,5.091-2.2,7.628-3.329-.136,3.044-.051,6.118-.458,9.124-.589,4.353-1.653,8.639-2.3,12.986-1.577,10.55-3.824,12.31-14.214,11.327-4.591-.434-9.222-.457-12.746-.618" transform="translate(60.57 7.378)" fill="#fff"/>
      </g>
    </g>
  </g>
</svg>
