<svg xmlns="http://www.w3.org/2000/svg" xmlns:xlink="http://www.w3.org/1999/xlink" width="760" height="600" viewBox="0 0 760 600">
  <defs>
    <clipPath id="clip-path">
      <rect id="Прямоугольник_134" data-name="Прямоугольник 134" width="540.798" height="67.91" fill="#fff"/>
    </clipPath>
  </defs>
  <g id="Сгруппировать_1543" data-name="Сгруппировать 1543" transform="translate(-3254 -87)">
    <g id="Сгруппировать_1509" data-name="Сгруппировать 1509" transform="translate(3160)">
      <g id="Сгруппировать_1260" data-name="Сгруппировать 1260" transform="translate(2658 3345)">
        <g id="Сгруппировать_1259" data-name="Сгруппировать 1259" transform="translate(-2564 -3258)">
          <g id="Сгруппировать_1040" data-name="Сгруппировать 1040" transform="translate(0)">
            <rect id="Прямоугольник_38" data-name="Прямоугольник 38" width="760" height="600" rx="75" fill="#04ca00"/>
          </g>
        </g>
      </g>
    </g>
    <g id="Сгруппировать_1474" data-name="Сгруппировать 1474" transform="translate(3364 353)">
      <g id="Сгруппировать_1473" data-name="Сгруппировать 1473" transform="translate(0 0)" clip-path="url(#clip-path)">
        <path id="Контур_4236" data-name="Контур 4236" d="M31.842,2.862V15.125a16.431,16.431,0,0,0-2.988-.311q-7.525,0-11.751,4.379T12.88,31.816V58.508H0V3.479H12.267v8.037Q17.826,2.86,31.842,2.862" transform="translate(0 8.68)" fill="#fff"/>
        <path id="Контур_4237" data-name="Контур 4237" d="M65.41,35.116H22.232A14.983,14.983,0,0,0,28.16,44.75a19.4,19.4,0,0,0,11.9,3.557A20.065,20.065,0,0,0,55,42.33l6.908,7.932a23.188,23.188,0,0,1-9.38,6.7,34.118,34.118,0,0,1-12.775,2.266,34.007,34.007,0,0,1-15.973-3.605A25.983,25.983,0,0,1,13.114,45.573,28.355,28.355,0,0,1,9.352,30.995,28.836,28.836,0,0,1,13.01,16.514,25.98,25.98,0,0,1,23.164,6.468a29.568,29.568,0,0,1,14.63-3.605A28.865,28.865,0,0,1,52.171,6.416a25.215,25.215,0,0,1,9.9,10A30.326,30.326,0,0,1,65.624,31.3q0,1.343-.214,3.815M27.334,16.824a15.385,15.385,0,0,0-5.2,9.739H53.356a15.052,15.052,0,0,0-15.562-13.4,15.558,15.558,0,0,0-10.461,3.658" transform="translate(28.361 8.683)" fill="#fff"/>
        <path id="Контур_4238" data-name="Контур 4238" d="M112.315,8.891q6.079,6.031,6.081,18.086V58.508H105.512V28.627q0-7.216-3.194-10.872T93.148,14.1a13.445,13.445,0,0,0-10.408,4.275q-3.914,4.277-3.916,12.211V58.508H65.943V28.627q0-7.216-3.194-10.872T53.579,14.1q-6.6,0-10.461,4.222T39.255,30.582V58.508H26.371V3.483H38.634v7a20,20,0,0,1,7.731-5.666,26.2,26.2,0,0,1,10.3-1.96A24.933,24.933,0,0,1,67.645,5.181a17.82,17.82,0,0,1,7.573,6.851,22.97,22.97,0,0,1,8.759-6.751,28.51,28.51,0,0,1,11.848-2.42q10.41,0,16.489,6.029" transform="translate(79.974 8.68)" fill="#fff"/>
        <path id="Контур_4239" data-name="Контур 4239" d="M66.5,55.625A26.323,26.323,0,0,1,56.044,45.576a28.37,28.37,0,0,1-3.762-14.582,28.1,28.1,0,0,1,3.762-14.53,26.441,26.441,0,0,1,10.457-10,31.257,31.257,0,0,1,15.05-3.605A31.461,31.461,0,0,1,96.7,6.467a26.478,26.478,0,0,1,10.461,10,28.093,28.093,0,0,1,3.758,14.53,28.368,28.368,0,0,1-3.758,14.582A26.359,26.359,0,0,1,96.7,55.625,31.461,31.461,0,0,1,81.551,59.23,31.257,31.257,0,0,1,66.5,55.625M93.3,43.463q4.64-4.736,4.634-12.469T93.3,18.525a15.75,15.75,0,0,0-11.747-4.738,15.565,15.565,0,0,0-11.695,4.738q-4.591,4.742-4.589,12.469t4.589,12.469a15.553,15.553,0,0,0,11.695,4.742A15.739,15.739,0,0,0,93.3,43.463" transform="translate(158.553 8.68)" fill="#fff"/>
        <path id="Контур_4240" data-name="Контур 4240" d="M108.469,64.2a15.115,15.115,0,0,1-5.513,2.783,24.861,24.861,0,0,1-6.851.928q-9.067,0-14.013-4.738T77.143,49.36V22.877H68.074v-10.3h9.069V0h12.88V12.574h14.735v10.3H90.024V49.053a8.7,8.7,0,0,0,1.96,6.13A7.33,7.33,0,0,0,97.649,57.3a11.3,11.3,0,0,0,7.21-2.266Z" transform="translate(206.444 0.001)" fill="#fff"/>
        <path id="Контур_4241" data-name="Контур 4241" d="M135.2,35.116H92.019a14.983,14.983,0,0,0,5.928,9.634,19.4,19.4,0,0,0,11.9,3.557,20.065,20.065,0,0,0,14.941-5.976l6.908,7.932a23.188,23.188,0,0,1-9.38,6.7,34.118,34.118,0,0,1-12.775,2.266,34.007,34.007,0,0,1-15.973-3.605A25.983,25.983,0,0,1,82.9,45.573a28.355,28.355,0,0,1-3.762-14.578A28.836,28.836,0,0,1,82.8,16.514,25.98,25.98,0,0,1,92.951,6.468a29.569,29.569,0,0,1,14.63-3.605,28.865,28.865,0,0,1,14.376,3.553,25.179,25.179,0,0,1,9.892,10A30.282,30.282,0,0,1,135.407,31.3q0,1.343-.21,3.815M97.121,16.824a15.385,15.385,0,0,0-5.2,9.739h31.225a15.052,15.052,0,0,0-15.562-13.4,15.558,15.558,0,0,0-10.461,3.658" transform="translate(240.001 8.683)" fill="#fff"/>
        <path id="Контур_4242" data-name="Контур 4242" d="M138.342,8.681q6.442,5.825,6.44,17.57V58.508H132.624v-6.7a15,15,0,0,1-6.751,5.513,26.392,26.392,0,0,1-10.562,1.907,25.884,25.884,0,0,1-10.82-2.113,16.728,16.728,0,0,1-7.166-5.876,14.913,14.913,0,0,1-2.524-8.5,14.588,14.588,0,0,1,5.513-11.9q5.517-4.476,17.365-4.48H131.9v-.823q0-5.771-3.448-8.864T118.2,13.577a29.668,29.668,0,0,0-9.126,1.444,22.506,22.506,0,0,0-7.573,4.021l-5.049-9.38A31.333,31.333,0,0,1,106.86,4.612a46.429,46.429,0,0,1,12.884-1.75q12.158,0,18.6,5.819M126.6,47.636a12.037,12.037,0,0,0,5.3-6.339V34.909H118.611q-11.13,0-11.13,7.315a6.557,6.557,0,0,0,2.778,5.565q2.783,2.063,7.731,2.061a16.659,16.659,0,0,0,8.61-2.214" transform="translate(287.501 8.68)" fill="#fff"/>
        <path id="Контур_4243" data-name="Контур 4243" d="M197.23,8.891q6.079,6.031,6.081,18.086V58.508H190.427V28.627q0-7.216-3.194-10.872t-9.17-3.658a13.445,13.445,0,0,0-10.408,4.275q-3.914,4.277-3.916,12.211V58.508h-12.88V28.627q0-7.216-3.194-10.872t-9.17-3.658q-6.6,0-10.461,4.222T124.17,30.582V58.508H111.286V3.483h12.263v7a20,20,0,0,1,7.731-5.666,26.2,26.2,0,0,1,10.3-1.96A24.933,24.933,0,0,1,152.56,5.181a17.82,17.82,0,0,1,7.573,6.851,22.97,22.97,0,0,1,8.759-6.751,28.51,28.51,0,0,1,11.848-2.42q10.41,0,16.489,6.029" transform="translate(337.491 8.68)" fill="#fff"/>
      </g>
    </g>
  </g>
</svg>
