<svg xmlns="http://www.w3.org/2000/svg" xmlns:xlink="http://www.w3.org/1999/xlink" width="760" height="600" viewBox="0 0 760 600">
  <defs>
    <clipPath id="clip-path">
      <rect id="Прямоугольник_112" data-name="Прямоугольник 112" width="474.238" height="386.014" fill="#fff"/>
    </clipPath>
  </defs>
  <g id="Сгруппировать_1524" data-name="Сгруппировать 1524" transform="translate(-884 -3801)">
    <g id="Сгруппировать_1491" data-name="Сгруппировать 1491" transform="translate(790 3714)">
      <g id="Сгруппировать_1260" data-name="Сгруппировать 1260" transform="translate(2658 3345)">
        <g id="Сгруппировать_1259" data-name="Сгруппировать 1259" transform="translate(-2564 -3258)">
          <g id="Сгруппировать_1040" data-name="Сгруппировать 1040" transform="translate(0)">
            <rect id="Прямоугольник_38" data-name="Прямоугольник 38" width="760" height="600" rx="75" fill="#8e2398"/>
          </g>
        </g>
      </g>
    </g>
    <g id="Сгруппировать_1420" data-name="Сгруппировать 1420" transform="translate(1027 3908)">
      <g id="Сгруппировать_1419" data-name="Сгруппировать 1419" clip-path="url(#clip-path)">
        <path id="Контур_4074" data-name="Контур 4074" d="M37.244,183.786c-10.429-2.93-21.1-.971-31.622-1.736-4.745-.35-5.668,1.5-5.541,5.8.42,14.037-.126,28.1.127,42.147.462,8.9-1.228,17.865.876,26.718,9.776.048,19.585.669,29.313.032,41.3-3.127,46.127-62.308,6.847-72.957m-9.315,59.152c-13.009.908-13.009.908-13.009-11.767v-23.04c0-12.706,0-12.706,12.961-11.83,13.5.923,21.78,9.792,21.75,23.326-.032,13.661-8.12,22.355-21.7,23.31" transform="translate(0 107.793)" fill="#fff"/>
        <path id="Контур_4075" data-name="Контур 4075" d="M163.881,196.146c-3.662-1.083-9.553-2.2-11.273.446-2.786,4.283-4.379,1.5-6.56.653-26.355-10.33-49.223,19.354-33.15,41.971a28.057,28.057,0,0,0,32.545,9.474c2.611-.971,4.188-1.895,7.659.048,7.4,4.14,12.386.207,12.372-8.3q0-8.718.014-17.435c0-6.608.177-13.216-.078-19.808-.111-2.42,1.656-6.114-1.529-7.054m-28.549,40.9a14.108,14.108,0,0,1-14.362-13.8,14.779,14.779,0,0,1,14.33-14.919c7.436-.048,14.171,6.528,14.41,14.091a14.184,14.184,0,0,1-14.378,14.633" transform="translate(63.699 115.464)" fill="#fff"/>
        <path id="Контур_4076" data-name="Контур 4076" d="M92.848,195.261c-4.138-.414-5.318,4.824-10.523,2.357-25.7-12.09-49.229,20.022-32.945,41.637,7.756,10.334,20.557,13.837,33.343,9.06,2.006-.748,2.993-1,5.573.366,7.8,4.14,12.865.223,12.865-8.662V222.552c0-6.353-.525-12.77.143-19.043.763-7.117-2.422-7.659-8.456-8.248m-20.285,41.8A14.6,14.6,0,0,1,57.309,223.2c-.271-7.706,6.624-14.76,14.475-14.824a14.453,14.453,0,0,1,14.266,14.06,13.946,13.946,0,0,1-13.488,14.617" transform="translate(26.061 115.473)" fill="#fff"/>
        <path id="Контур_4077" data-name="Контур 4077" d="M254.557,207.619c21.481-10.908,36.943-2.051,38.343,21.244.46,7.657-.218,15.384.258,23.04.439,7.078-4.426,4.759-7.91,5.164-3.888.451-6.436.045-6.1-5.176.486-7.652.282-15.365.064-23.045-.232-8.16-4.075-12.415-11.063-12.838-7.409-.449-12.533,3.694-13.146,11.736a209.138,209.138,0,0,0-.333,24.615c.282,6.678-4.277,4.372-7.444,4.667-3.493.326-6.465.723-6.372-4.887q.525-32.58-.008-65.172c-.1-5.816,3.151-4.992,6.46-4.775,3.178.207,7.827-2.025,7.356,4.7-.463,6.581-.1,13.219-.1,20.728" transform="translate(142.635 107.785)" fill="#fff"/>
        <path id="Контур_4078" data-name="Контур 4078" d="M242.138,202.2c-2.643-1.56-7.308-1.385-6.449-6.449,1.035-6.13-2.325-6.624-7.308-6.672-4.952-.064-7.531.987-6.5,6.417.621,3.36-1.5,4.124-4.172,5.35-10.732,4.936-16.7,13.343-17.023,26.973,1.153,14.574,13.617,26.995,28.423,26.368,28.422-1.615,36.886-37.824,13.025-51.987m-13.025,38.325a14.326,14.326,0,0,1-15.126-13.916,14.924,14.924,0,0,1,13.693-14.792A14.553,14.553,0,0,1,242.663,226a13.863,13.863,0,0,1-13.55,14.521" transform="translate(118.857 111.977)" fill="#fff"/>
        <path id="Контур_4079" data-name="Контур 4079" d="M278.753,41.642h0C273.5,31.584,265.217,24.38,256.278,17.8,248.6,10.1,239.888,3.979,229.554.344c-2.326,2.173-1.145,4.985-1.167,7.471-.126,14.808-.062,29.617-.062,44.427V87.049c-.033,1.63-.081,3.261-.119,4.893-3.829-13.16-7.89-25.942-14.986-37.577v0c-4.35-7.506-8.391-15.244-15.528-20.653-4.285-7.541-10.875-12.7-17.932-17.376-4.2-5.13-9.791-8.339-15.593-11.252-2.552-2.208-5.63-5.543-8.624-4.012-2.678,1.368-1.038,5.8-1.048,8.843-.1,28.428-.057,56.856-.057,86.034-3.143-6.074-2.366-12.611-5.858-17.736-2.239-14-9.985-25.3-17.933-36.494-5.313-7.963-11.506-15.106-19.317-20.741-4.372-5.152-9.924-8.824-15.542-12.412C90.87,5.38,86.34,1.441,80.235,0V220.551a43.878,43.878,0,0,0,14.588-8.261h0a60.609,60.609,0,0,0,15.341-11.6c8.35-6.692,15.832-14.173,21.322-23.465a93.659,93.659,0,0,0,18.195-36.954q2.037-7.791,4.075-15.585l1.03.191v95.254c2.966.084,4.692-1.516,6.441-3.068a71.676,71.676,0,0,0,20.7-14.429,64.613,64.613,0,0,0,16.414-15.828,76.151,76.151,0,0,0,14.923-21.041c7.211-11.5,11.138-24.258,14.378-37.387.049.618.1,1.237.154,1.857.509,27.132.479,54.171.594,81.209.013,2.728-1.322,5.812,1.189,8.238,10.4-3.549,18.749-10.286,26.875-17.36,8.133-6.216,15.521-13.15,21.034-21.885,1.092-1.374,2.226-2.72,3.277-4.125,30.614-41.013,28.606-97.366-2.019-134.669" transform="translate(47.519)" fill="#fff"/>
        <path id="Контур_4080" data-name="Контур 4080" d="M151.026,219.164c0-10.585.417-21.194-.15-31.749-.373-6.942,4.014-5.17,7.6-5.264,3.812-.1,7.635-1.285,7.391,5.525-.588,16.387-.024,32.811-.291,49.215-.08,4.727,1.054,6.619,6.1,6.358,7.652-.395,15.354.169,23.011-.183,6.361-.295,4.844,4.025,4.915,7.441.067,3.226,1.216,6.834-4.646,6.664-13.219-.382-26.457-.245-39.687-.038-3.676.057-4.353-1.363-4.305-4.624.159-11.112.062-22.229.062-33.343" transform="translate(89.342 107.795)" fill="#fff"/>
        <path id="Контур_4081" data-name="Контур 4081" d="M87.062,219.109c0-10.577.409-21.175-.158-31.721-.328-6.124,3.14-5.372,6.824-5.272,3.458.094,7.955-1.288,6.957,5.039a25.876,25.876,0,0,0-.029,3.961c.006,11.2-.019,11.5,10.867,12.424,6.049.514,3.6,4.63,3.981,7.527.436,3.356.263,6.813-4.629,5.872-9.128-1.753-11.16,2.382-10.381,10.721.755,8.125-.2,16.4.274,24.568.374,6.493-3.909,4.772-7.249,4.88-3.277.108-6.805,1.127-6.579-4.689.427-11.088.123-22.205.123-33.311" transform="translate(51.456 107.809)" fill="#fff"/>
        <path id="Контур_4082" data-name="Контур 4082" d="M279.964,219.416c0-10.842.328-21.694-.123-32.517-.275-6.632,4.1-4.56,7.3-4.711,3.253-.156,7.291-1.087,6.46,4.708-.3,2.073.2,4.258-.088,6.334-1.064,7.648.855,12.126,9.834,10.5,6.1-1.108,4.968,3.479,5.145,7.071.189,3.829-.029,7.2-5.229,6.18-8.939-1.753-10.424,2.74-9.845,10.416.615,8.149-.272,16.41.269,24.57.414,6.221-3.407,5.172-6.985,5.2-3.621.025-7.222.989-6.9-5.234.564-10.811.158-21.672.158-32.514" transform="translate(165.701 107.786)" fill="#fff"/>
        <path id="Контур_4083" data-name="Контур 4083" d="M200.171,222.6c0,6.622-.427,13.281.127,19.855.5,5.871-1.826,6.835-7.111,6.85-5.374.016-7.288-1.167-7.1-6.926.449-13.76.424-27.552.011-41.314-.169-5.638,2.551-5.875,6.742-5.68,3.973.185,8.012-.834,7.466,5.77-.588,7.1-.134,14.292-.134,21.444" transform="translate(110.201 115.69)" fill="#fff"/>
        <path id="Контур_4084" data-name="Контур 4084" d="M228.589,247.358c-7.133,0-14.3-.4-21.39.126-5.633.416-5.91-2.458-5.668-6.63.205-3.583-.931-7.191,5.213-7.007,14.516.433,29.062.4,43.581.021,6.628-.175,4.375,4.176,4.718,7.359.4,3.716.314,6.619-5.062,6.251-7.1-.486-14.26-.119-21.392-.119" transform="translate(119.321 138.49)" fill="#fff"/>
        <path id="Контур_4085" data-name="Контур 4085" d="M200.091,188.67c1.037,5.326-.264,7.522-6.423,7.466-5.965-.054-7.6-1.449-7.667-7.442-.062-5.969,2.151-6.812,7.312-6.734,5.081.075,8.49.57,6.778,6.71" transform="translate(110.157 107.762)" fill="#fff"/>
      </g>
    </g>
  </g>
</svg>
