<svg xmlns="http://www.w3.org/2000/svg" xmlns:xlink="http://www.w3.org/1999/xlink" width="760" height="570.75" viewBox="0 0 760 570.75">
  <defs>
    <clipPath id="clip-path">
      <rect width="760" height="570.75" fill="none"/>
    </clipPath>
    <clipPath id="clip-path-2">
      <rect id="Прямоугольник_119" data-name="Прямоугольник 119" width="487.767" height="317.964" fill="#fff"/>
    </clipPath>
  </defs>
  <g id="Сгруппировать_1448" data-name="Сгруппировать 1448" transform="translate(-1104 -6743)">
    <g id="Сгруппировать_1437" data-name="Сгруппировать 1437" transform="translate(0 2980)">
      <g id="Сгруппировать_1417" data-name="Сгруппировать 1417" transform="translate(0 1788)">
        <g id="Сгруппировать_1407" data-name="Сгруппировать 1407" transform="translate(851)">
          <g id="Сгруппировать_1371" data-name="Сгруппировать 1371" transform="translate(0 -76)">
            <g id="Повторить_сетку_4" data-name="Повторить сетку 4" transform="translate(253 2051)" clip-path="url(#clip-path)">
              <g id="Сгруппировать_1361" data-name="Сгруппировать 1361" transform="translate(-1249 -178)">
                <g id="Сгруппировать_1343" data-name="Сгруппировать 1343" transform="translate(-868 -3450)">
                  <g id="Сгруппировать_1271" data-name="Сгруппировать 1271" transform="translate(1897)">
                    <g id="Сгруппировать_1262" data-name="Сгруппировать 1262">
                      <rect id="Прямоугольник_94" data-name="Прямоугольник 94" width="760" height="570.75" rx="75" transform="translate(220 3628)" fill="#0062a1"/>
                    </g>
                  </g>
                </g>
              </g>
            </g>
          </g>
        </g>
      </g>
    </g>
    <g id="Сгруппировать_1447" data-name="Сгруппировать 1447" transform="translate(1246.912 6864.758)">
      <g id="Сгруппировать_1446" data-name="Сгруппировать 1446" clip-path="url(#clip-path-2)">
        <path id="Контур_4154" data-name="Контур 4154" d="M273.116,103.98c4.668.126,8.67-1.624,12.519-3.814.638-.363,1.214-1.227,1.98-.7,1.01.692.278,1.579-.084,2.346a10.576,10.576,0,0,1-9.507,5.785c-5.873.179-9.981,2.825-13.844,6.557a9.175,9.175,0,0,1-5.227,2.876c-5.063.594-8.33,3.8-11.509,7.349-4.447,4.964-9.706,7.413-16.763,7.907-5.282.369-10.411-.735-15.6-.114-2.633.316-4.513-.9-6.205-2.889C190.19,107.287,184.215,82.3,192.209,54.552c8.4-29.177,34.069-50.526,64.521-53.993,23.641-2.692,44.188,4.381,61.859,20.074,4.747,4.216,8.5,9.333,12.057,14.583,1.188,1.754,1.426,3.253-.646,4.431a15.108,15.108,0,0,0-8.027,12.714c-.186,2.335-1.741,4.259-3.439,5.747a15.016,15.016,0,0,0-3.273,4.061c-3.729,6.609-9.407,11.873-13.211,18.352-3.395,5.783-9.232,8.283-13.606,12.468-4.713,4.509-9.909,7.651-15.328,10.991" transform="translate(-45.474 0)" fill="#fff"/>
        <path id="Контур_4155" data-name="Контур 4155" d="M149.077,277.392c-4.378,5.7-8.778,11.379-13.128,17.1Q123.088,311.4,110.3,328.359a5.638,5.638,0,0,1-5.064,2.535q-49.9-.13-99.8-.08c-5.411,0-5.431-.008-5.432-5.534q-.011-43.449,0-86.9c0-6.279.012-6.022,6.28-5.969,18.592.158,37.188.027,55.781.142,10.723.066,19.02,4.958,24.621,13.92,6.412,10.261,6.487,20.83-.269,31.036-1.911,2.885-2.457,4.945-.109,8A24.744,24.744,0,0,1,91.2,303.746c-.109,1.029-.976,2.469.611,2.924,1.254.36,1.97-.935,2.645-1.818q10.252-13.4,20.464-26.84c10.714-14.088,21.468-28.144,32.073-42.312a7.185,7.185,0,0,1,6.72-3.233,58.809,58.809,0,0,0,10.607-.178c3.335-.457,4.519.795,5.1,3.825,2.669,13.906,5.5,27.781,8.215,41.679,3.073,15.756,6.065,31.527,9.121,47.287,1.111,5.729,1.149,5.73-4.635,5.732q-29.979.01-59.957-.016c-1.2,0-2.8.575-3.482-.739-.692-1.337.755-2.28,1.463-3.232,4.147-5.576,8.447-11.041,12.525-16.665a5.865,5.865,0,0,1,5.491-2.551c5.056.134,10.118.088,15.176.092,1.927,0,3.757-.247,3.144-2.924-2.076-9.076-4.2-18.142-6.3-27.212l-1.1-.172M23.1,281.48c0,7.211.181,14.428-.074,21.631-.133,3.76,1.286,4.809,4.838,4.67,8.837-.347,17.686-.4,26.529-.591,2.644-.056,5.269.491,7.94-.071a6.729,6.729,0,0,0,5.731-6.236c.349-3.327-1.523-5.751-4.616-7.112a14.379,14.379,0,0,0-5.961-.864c-9.741.014-19.483-.042-29.224.039-2.724.023-3.348-.657-2.1-3.272a144.947,144.947,0,0,0,6.293-14.629c1.375-3.946,3.452-5.516,7.732-5.3,6.939.349,13.912.159,20.868.01A7.285,7.285,0,0,0,68,263.815c.461-3.421-1.3-5.81-4.214-7.363a10.764,10.764,0,0,0-5.192-.863c-10.374,0-20.749.09-31.121-.062-3.244-.048-4.529.934-4.435,4.321.2,7.206.061,14.421.064,21.632" transform="translate(0 -55.942)" fill="#fff"/>
        <path id="Контур_4156" data-name="Контур 4156" d="M315.049,269.349c5.289-5.237,10.032-9.868,14.7-14.57,6.684-6.731,13.317-13.512,19.967-20.276a5.811,5.811,0,0,1,4.24-2.157c8.458-.077,16.915-.26,25.374-.373,1.1-.014,2.546-.344,3.055.915.525,1.3-.894,1.95-1.64,2.714-11.924,12.208-23.82,24.444-35.869,36.528-2.232,2.239-2.519,3.776-.492,6.346,6.889,8.734,13.544,17.65,20.276,26.506,2.876,3.784,11.867,4,14.747.194,11.292-14.913,22.475-29.908,33.778-44.814,6.492-8.561,13.17-16.981,19.685-25.525a6.331,6.331,0,0,1,6.2-2.692,54.418,54.418,0,0,0,10.219.112c3.406-.342,4.791.95,5.4,4.15,2.951,15.525,6.035,31.024,9.068,46.534,2.838,14.516,5.594,29.049,8.565,43.538.666,3.253-.137,4.318-3.449,4.3-20.618-.082-41.237-.029-61.855-.049-1.09,0-2.508.426-3.168-.673-.748-1.246.622-2.024,1.257-2.881,4.142-5.584,8.407-11.079,12.448-16.735a6.218,6.218,0,0,1,5.755-2.828c5.183.1,10.371-.054,15.557,0,2.572.028,3.318-.973,2.721-3.477-2.137-8.971-4.158-17.97-6.431-27.858-3.628,4.642-6.867,8.7-10.011,12.828q-14.826,19.463-29.562,38.994a6.161,6.161,0,0,1-5.47,2.67c-10.5-.076-21-.134-31.5.024-3.174.048-5.092-1.23-6.9-3.684-7.881-10.682-15.979-21.2-23.868-31.882-1.74-2.354-3.136-2.642-4.961-.344a1.446,1.446,0,0,1-.268.268c-6.124,4.471-8.7,10.276-7.7,17.979.6,4.6.044,9.347.118,14.026.041,2.583-1.067,3.644-3.641,3.6q-7.967-.133-15.938-.008c-2.654.045-3.66-1.173-3.522-3.684.061-1.135,0-2.276,0-3.414-.024-29.462-.017-58.924-.13-88.385-.008-2.143.525-3.085,2.635-3.059,6.187.075,12.376.071,18.559.25,2.52.073,1.985,2.239,1.993,3.759.058,9.487.04,18.974.047,28.461,0,1.34,0,2.678,0,4.661" transform="translate(-70.306 -55.876)" fill="#fff"/>
        <path id="Контур_4157" data-name="Контур 4157" d="M322.376,111.608c.66-4.475,3.551-7.125,6.82-9.56a4.446,4.446,0,0,0,1.955-3.574c-.585-7.57,3.88-13.305,6.709-19.693,2.536-5.726,4.366-11.766,6.464-17.682.326-.917.122-2.219,1.456-2.337s1.474,1.15,1.866,2.043c13.9,31.692,4.146,69.779-23.332,91.15a77.11,77.11,0,0,1-86.9,5.627c-1.145-.671-2.469-1.2-3.224-2.812,7.343-.009,14.346-.329,21.2-2.144,5.708-1.512,8.88-5.63,10.587-10.827,1.407-4.28,4.2-5.945,8.19-3.763,1.518.832,2.215.735,3.49-.482,3.993-3.811,9.15-5.051,14.441-5.353a16.61,16.61,0,0,0,12.387-6.807c2.483-3.151,5.041-5.467,9.119-5.812a7.916,7.916,0,0,0,2.566-.556A3.278,3.278,0,0,0,318,114.608c-.636-1.937-2.174-1.794-3.752-1.334-.8.234-1.766,1.14-2.408.21-.788-1.142.581-1.725,1.161-2.443,1.193-1.473,2.415-2.929,3.717-4.3,1.256-1.326,2.83-2.57,4.657-1.536,1.7.965.676,2.707.4,4.14-.113.581-.284,1.152-.428,1.726l1.033.539" transform="translate(-56.423 -14.155)" fill="#fff"/>
        <path id="Контур_4158" data-name="Контур 4158" d="M531.192,280.888c0-14.671.079-29.342-.059-44.011-.032-3.392.846-4.712,4.5-4.523,4.778.249,9.595-.137,14.391-.353,3.443-.154,4.877,1.04,4.848,4.806-.16,21.751-.083,43.5-.071,65.258,0,5.279.307,5.6,5.585,5.6,16.946-.006,33.893.009,50.84-.129,3.213-.026,4.629.926,4.488,4.316-.2,4.8-.212,9.617.008,14.413.161,3.512-1.207,4.577-4.632,4.561-22.891-.112-45.782-.061-68.673-.063-2.276,0-4.564-.146-6.827.032-3.294.259-4.464-1.095-4.441-4.378.108-15.175.047-30.352.047-45.529" transform="translate(-127.963 -55.892)" fill="#fff"/>
        <path id="Контур_4159" data-name="Контур 4159" d="M255.115,281.507q0-22.385.012-44.771c.006-4.466.433-4.772,4.807-4.465a77.088,77.088,0,0,0,13.255-.152c4.576-.468,5.5.375,5.5,4.824q.027,44.392,0,88.784c0,4.651-.414,5.011-4.942,5.037-4.426.025-8.853.014-13.279,0-5.29-.02-5.349-.071-5.352-5.241q-.015-22.006,0-44.013" transform="translate(-61.463 -55.896)" fill="#fff"/>
        <path id="Контур_4160" data-name="Контур 4160" d="M18.348,394.385H8.293l.03,17.152H3.461V390.4H18.379Z" transform="translate(-0.834 -94.057)" fill="#fff"/>
        <path id="Контур_4161" data-name="Контур 4161" d="M55,391.335a6.993,6.993,0,0,1,4.3,6.734,7.339,7.339,0,0,1-1.117,4.062A7.119,7.119,0,0,1,55,404.788a11.909,11.909,0,0,1-4.877.921H45.866v5.828H40.975V390.4h9.149a11.757,11.757,0,0,1,4.877.936m-1.8,9.437a3.312,3.312,0,0,0,1.148-2.7,3.349,3.349,0,0,0-1.148-2.733,5.14,5.14,0,0,0-3.352-.951H45.866v7.338h3.986a5.14,5.14,0,0,0,3.352-.951" transform="translate(-9.872 -94.057)" fill="#fff"/>
        <path id="Контур_4162" data-name="Контур 4162" d="M101.041,390.4l-9,16.729a10.022,10.022,0,0,1-3.126,3.653,6.939,6.939,0,0,1-3.971,1.238A9.1,9.1,0,0,1,81.5,411.3l1.177-3.714a7.422,7.422,0,0,0,2.114.392,3.1,3.1,0,0,0,1.63-.437,4.246,4.246,0,0,0,1.328-1.374l.181-.242L79.6,390.4h5.224l5.616,11.354,5.8-11.354Z" transform="translate(-19.178 -94.057)" fill="#fff"/>
        <path id="Контур_4163" data-name="Контур 4163" d="M144.1,390.4v21.138h-4.862V394.385h-9.542v17.152h-4.862V390.4Z" transform="translate(-30.075 -94.057)" fill="#fff"/>
        <path id="Контур_4164" data-name="Контур 4164" d="M190.324,390.4v21.138h-4.862V394.385H175.92v17.152h-4.862V390.4Z" transform="translate(-41.212 -94.057)" fill="#fff"/>
        <path id="Контур_4165" data-name="Контур 4165" d="M230.841,407.008h-9.813l-1.873,4.529h-5.013l9.422-21.137H228.4l9.452,21.137h-5.134Zm-1.54-3.714-3.351-8.092-3.352,8.092Z" transform="translate(-51.592 -94.057)" fill="#fff"/>
        <path id="Контур_4166" data-name="Контур 4166" d="M296.337,403.022h-3.382v8.515h-4.861V390.4h4.861v8.545h3.5l5.556-8.545h5.164l-6.915,10.206,7.127,10.931h-5.557Z" transform="translate(-69.409 -94.057)" fill="#fff"/>
        <path id="Контур_4167" data-name="Контур 4167" d="M334.025,410.365a10.536,10.536,0,0,1-4.138-3.91,11.249,11.249,0,0,1,0-11.2,10.543,10.543,0,0,1,4.138-3.911,13.086,13.086,0,0,1,11.852,0,10.781,10.781,0,0,1,0,19.024,13.074,13.074,0,0,1-11.852,0m9.315-3.608a6.177,6.177,0,0,0,2.371-2.4,7.557,7.557,0,0,0,0-7.005,6.177,6.177,0,0,0-2.371-2.4,7.08,7.08,0,0,0-6.764,0,6.174,6.174,0,0,0-2.37,2.4,7.557,7.557,0,0,0,0,7.005,6.174,6.174,0,0,0,2.37,2.4,7.074,7.074,0,0,0,6.764,0" transform="translate(-79.118 -93.942)" fill="#fff"/>
        <path id="Контур_4168" data-name="Контур 4168" d="M397,411.537l-.03-12.652-6.22,10.418h-2.175l-6.221-10.176v12.411h-4.59V390.4h4.047l7.912,13.136,7.79-13.136h4.047l.03,21.138Z" transform="translate(-91.012 -94.057)" fill="#fff"/>
        <path id="Контур_4169" data-name="Контур 4169" d="M449.26,390.4v21.138H444.4V394.385h-9.542v17.152h-4.862V390.4Z" transform="translate(-103.596 -94.057)" fill="#fff"/>
        <path id="Контур_4170" data-name="Контур 4170" d="M489.776,407.008h-9.814l-1.873,4.529h-5.012L482.5,390.4h4.832l9.452,21.137h-5.134Zm-1.54-3.714-3.351-8.092-3.353,8.092Z" transform="translate(-113.976 -94.057)" fill="#fff"/>
        <path id="Контур_4171" data-name="Контур 4171" d="M541.314,390.4v21.138h-4.892v-8.666h-9.6v8.666h-4.891V390.4h4.891v8.334h9.6V390.4Z" transform="translate(-125.745 -94.057)" fill="#fff"/>
        <path id="Контур_4172" data-name="Контур 4172" d="M568.352,390.4h4.862v13.77L583.3,390.4h4.59v21.138h-4.831V397.8l-10.085,13.74h-4.62Z" transform="translate(-136.93 -94.057)" fill="#fff"/>
        <path id="Контур_4173" data-name="Контур 4173" d="M614.936,390.4H619.8v13.77l10.085-13.77h4.59v21.138h-4.831V397.8l-10.085,13.74h-4.62Z" transform="translate(-148.154 -94.057)" fill="#fff"/>
      </g>
    </g>
  </g>
</svg>
