<svg xmlns="http://www.w3.org/2000/svg" xmlns:xlink="http://www.w3.org/1999/xlink" width="760" height="570.75" viewBox="0 0 760 570.75">
  <defs>
    <clipPath id="clip-path">
      <rect width="760" height="570.75" fill="none"/>
    </clipPath>
    <clipPath id="clip-path-2">
      <rect id="Прямоугольник_103" data-name="Прямоугольник 103" width="576.228" height="271.154" fill="none"/>
    </clipPath>
  </defs>
  <g id="Сгруппировать_1391" data-name="Сгруппировать 1391" transform="translate(-264 -3166)">
    <g id="Сгруппировать_1377" data-name="Сгруппировать 1377" transform="translate(0 462)">
      <g id="Повторить_сетку_5" data-name="Повторить сетку 5" transform="translate(264 2704)" clip-path="url(#clip-path)">
        <g id="Сгруппировать_1361" data-name="Сгруппировать 1361" transform="translate(-1249 -178)">
          <g id="Сгруппировать_1343" data-name="Сгруппировать 1343" transform="translate(-868 -3450)">
            <g id="Сгруппировать_1271" data-name="Сгруппировать 1271" transform="translate(1897)">
              <g id="Сгруппировать_1262" data-name="Сгруппировать 1262">
                <rect id="Прямоугольник_94" data-name="Прямоугольник 94" width="760" height="570.75" rx="75" transform="translate(220 3628)" fill="#43d0f3"/>
              </g>
            </g>
          </g>
        </g>
      </g>
    </g>
    <g id="Сгруппировать_1378" data-name="Сгруппировать 1378" transform="translate(0 -194)">
      <g id="Сгруппировать_1375" data-name="Сгруппировать 1375" transform="translate(356 3510)">
        <g id="Сгруппировать_1374" data-name="Сгруппировать 1374" transform="translate(0 0)" clip-path="url(#clip-path-2)">
          <path id="Контур_3958" data-name="Контур 3958" d="M45.573,11.116s66.255,11.324,91.833,54.095L169.7,40.469S127.762,18.243,45.573,11.116" transform="translate(105.716 25.786)" fill="#fff"/>
          <path id="Контур_3959" data-name="Контур 3959" d="M76.015,101.059l90.157-75.9L272.263,0,177.074,36.9l-78,105.255" transform="translate(176.333 0.001)" fill="#2e2e2e"/>
          <path id="Контур_3960" data-name="Контур 3960" d="M90.81,123.958,71.622,57.73H46.857L27.666,123.958H21.159v13.279H41.808l5.049-16.831H71.622l5.043,16.831H97.316V123.958ZM47.919,107.791,59.236,76.32l11.32,31.471Z" transform="translate(49.083 133.917)" fill="#2e2e2e"/>
          <path id="Контур_3961" data-name="Контур 3961" d="M24.433,87.707v-17H49.394v9.86H63.34V57.73H0V73.665H5.046v63.406H42.26s25.263,3.784,26.956-25.263c1.66-29.047-44.783-24.1-44.783-24.1m30.84,24.068c-1.427,13.08-11.652,14.308-11.652,14.308H24.6V97.467H43.455S56.667,98.7,55.273,111.775" transform="translate(0 133.917)" fill="#2e2e2e"/>
          <path id="Контур_3962" data-name="Контур 3962" d="M56.163,57.73h75.689V73.651h-6.082v50.742h6.082v12.841H102.918V76.32H82.373v42.828s.209,18.089-22.016,18.089H45.889V122.295s16.353,4.4,16.353-11.951V76.32h-6.5Z" transform="translate(106.449 133.917)" fill="#2e2e2e"/>
          <path id="Контур_3963" data-name="Контур 3963" d="M107.068,57.73h75.689V73.651h-6.082v50.742h6.082v12.841H153.823V76.32H133.278v42.828s.209,18.089-22.016,18.089H96.794V122.295s16.353,4.4,16.353-11.951V76.32h-6.5Z" transform="translate(224.534 133.917)" fill="#fff"/>
          <path id="Контур_3964" data-name="Контур 3964" d="M111.394,57.73H74.957V79.052H89.9V69.458h10.225v53.308H93.986v14.471h34.907V122.766h-6.132V69.458h10.221v9.594h14.939V57.73H111.394Z" transform="translate(173.879 133.916)" fill="#2e2e2e"/>
          <path id="Контур_3965" data-name="Контур 3965" d="M188.036,57.73H151.6V79.052h14.939V69.458h10.225v53.308h-6.135v14.471h34.91V122.766h-6.132V69.458h10.221v9.594h14.939V57.73h-36.53Z" transform="translate(351.665 133.916)" fill="#fff"/>
          <path id="Контур_3966" data-name="Контур 3966" d="M125.72,57.73V72.815H131.8v64.422h24.533L181.7,91.684v45.553h22.225V72.393h4.405V57.73H179.6l-27.046,46.954V73.024h8.6V57.73Z" transform="translate(291.634 133.916)" fill="#fff"/>
        </g>
      </g>
    </g>
  </g>
</svg>
