<svg xmlns="http://www.w3.org/2000/svg" xmlns:xlink="http://www.w3.org/1999/xlink" width="760" height="570.75" viewBox="0 0 760 570.75">
  <defs>
    <clipPath id="clip-path">
      <rect width="760" height="570.75" fill="none"/>
    </clipPath>
  </defs>
  <g id="Сгруппировать_1470" data-name="Сгруппировать 1470" transform="translate(-1100 -1366)">
    <g id="Сгруппировать_1406" data-name="Сгруппировать 1406" transform="translate(847 -76)">
      <g id="Повторить_сетку_3" data-name="Повторить сетку 3" transform="translate(253 1442)" clip-path="url(#clip-path)">
        <g id="Сгруппировать_1361" data-name="Сгруппировать 1361" transform="translate(-1249 -178)">
          <g id="Сгруппировать_1343" data-name="Сгруппировать 1343" transform="translate(-868 -3450)">
            <g id="Сгруппировать_1271" data-name="Сгруппировать 1271" transform="translate(1897)">
              <g id="Сгруппировать_1262" data-name="Сгруппировать 1262">
                <rect id="Прямоугольник_94" data-name="Прямоугольник 94" width="760" height="570.75" rx="75" transform="translate(220 3628)" fill="#ab47bc"/>
              </g>
            </g>
          </g>
        </g>
      </g>
    </g>
    <g id="acropolis" transform="translate(1328.871 1484.618)">
      <path id="Контур_4061" data-name="Контур 4061" d="M151.357,14.547a30.394,30.394,0,0,1,15.178,4.067l105.707,61.03a30.44,30.44,0,0,1,15.178,26.288V227.992a30.439,30.439,0,0,1-15.178,26.288l-105.707,61.03a30.354,30.354,0,0,1-30.355,0L30.473,254.281A30.44,30.44,0,0,1,15.3,227.993V105.933A30.44,30.44,0,0,1,30.473,79.645l105.707-61.03a30.384,30.384,0,0,1,15.178-4.068m0-14.166A44.493,44.493,0,0,0,129.1,6.346L23.39,67.376a44.521,44.521,0,0,0-22.26,38.556V227.992A44.521,44.521,0,0,0,23.39,266.548L129.1,327.578a44.521,44.521,0,0,0,44.521,0l105.707-61.03a44.522,44.522,0,0,0,22.261-38.556V105.932a44.521,44.521,0,0,0-22.261-38.557L173.618,6.346A44.493,44.493,0,0,0,151.357.382Z" transform="translate(0 0)" fill="#fff"/>
      <path id="Контур_4062" data-name="Контур 4062" d="M103.634,15.021a12.159,12.159,0,0,1,6.071,1.627l75.933,43.84A12.176,12.176,0,0,1,191.71,71v87.68a12.176,12.176,0,0,1-6.071,10.515l-75.933,43.84a12.143,12.143,0,0,1-12.143,0L21.63,169.2a12.176,12.176,0,0,1-6.071-10.515V71A12.176,12.176,0,0,1,21.63,60.489l75.934-43.84a12.156,12.156,0,0,1,6.071-1.627m0-12.142A24.269,24.269,0,0,0,91.492,6.133L15.559,49.973A24.284,24.284,0,0,0,3.417,71v87.68a24.284,24.284,0,0,0,12.142,21.031l75.933,43.84a24.285,24.285,0,0,0,24.284,0l75.933-43.84a24.284,24.284,0,0,0,12.142-21.031V71A24.284,24.284,0,0,0,191.71,49.973L115.777,6.133a24.269,24.269,0,0,0-12.142-3.253Z" transform="translate(47.723 52.118)" fill="#fff"/>
      <path id="Контур_4063" data-name="Контур 4063" d="M56.718,16.52l.506.136L96.64,40,96.134,85.8,56.212,108.267,16.8,84.926,17.3,39.12,56.212,16.655a1,1,0,0,1,.505-.135m0-11.13a12.134,12.134,0,0,0-6.071,1.627L11.737,29.481A12.142,12.142,0,0,0,5.665,40v44.93a12.142,12.142,0,0,0,6.071,10.515l38.91,22.465a12.143,12.143,0,0,0,12.142,0L101.7,95.441a12.142,12.142,0,0,0,6.071-10.515V40A12.142,12.142,0,0,0,101.7,29.481L62.789,7.017A12.133,12.133,0,0,0,56.718,5.39Z" transform="translate(94.639 104.501)" fill="#fff"/>
    </g>
  </g>
</svg>
