<svg xmlns="http://www.w3.org/2000/svg" xmlns:xlink="http://www.w3.org/1999/xlink" width="760" height="570.75" viewBox="0 0 760 570.75">
  <defs>
    <clipPath id="clip-path">
      <rect width="760" height="570.75" fill="none"/>
    </clipPath>
    <clipPath id="clip-path-2">
      <rect id="Прямоугольник_113" data-name="Прямоугольник 113" width="545.309" height="202.986" fill="#fff"/>
    </clipPath>
  </defs>
  <g id="Сгруппировать_1425" data-name="Сгруппировать 1425" transform="translate(-1104 -3167)">
    <g id="Сгруппировать_1416" data-name="Сгруппировать 1416" transform="translate(0 1192)">
      <g id="Сгруппировать_1407" data-name="Сгруппировать 1407" transform="translate(851)">
        <g id="Сгруппировать_1371" data-name="Сгруппировать 1371" transform="translate(0 -76)">
          <g id="Повторить_сетку_4" data-name="Повторить сетку 4" transform="translate(253 2051)" clip-path="url(#clip-path)">
            <g id="Сгруппировать_1361" data-name="Сгруппировать 1361" transform="translate(-1249 -178)">
              <g id="Сгруппировать_1343" data-name="Сгруппировать 1343" transform="translate(-868 -3450)">
                <g id="Сгруппировать_1271" data-name="Сгруппировать 1271" transform="translate(1897)">
                  <g id="Сгруппировать_1262" data-name="Сгруппировать 1262">
                    <rect id="Прямоугольник_94" data-name="Прямоугольник 94" width="760" height="570.75" rx="75" transform="translate(220 3628)" fill="#5b5b5b"/>
                  </g>
                </g>
              </g>
            </g>
          </g>
        </g>
      </g>
    </g>
    <g id="Сгруппировать_1424" data-name="Сгруппировать 1424" transform="translate(1211 3351)">
      <path id="Контур_4086" data-name="Контур 4086" d="M44.691,68.944c2.235,9.889,8.828,15.74,21.055,15.74,13.608,0,18.82-6.8,18.82-14.89,0-8.4-3.724-13.608-20.1-17.651-15.735-3.93-22.544-9.034-22.544-19.778,0-9.781,7.128-18.923,23.074-18.923,16.379,0,23.291,9.992,24.243,19.031H83.289c-1.7-7.973-6.912-13.716-18.609-13.716-10.739,0-16.585,5-16.585,13.288,0,8.189,4.888,11.377,18.609,14.782C87.651,52.04,90.731,60.44,90.731,69.371c0,10.95-7.973,20.417-25.2,20.417-18.6,0-25.413-10.847-26.793-20.844ZM108.9,81.068V110.2h-5.315V48.846c0-4.357,0-9.034-.108-13.077h5.212c.211,2.019.211,5.212.211,9.57,3.3-6.381,9.147-10.847,18.717-10.847,12.547,0,21.266,10.528,21.266,26.479,0,19.139-10.208,29.239-23.074,29.239C116.448,90.21,111.555,86.064,108.9,81.068Zm34.349-19.886c0-12.335-5.959-21.586-16.482-21.586-12.866,0-18.186,8.081-18.186,22.544,0,14.246,4.146,23.074,17.44,23.074C137.075,85.214,143.246,75.856,143.246,61.182Zm20.715,1.808c.108,13.716,7.02,22.224,17.228,22.224,9.992,0,13.4-5.635,15.307-10h5.424c-2.23,7.02-7.865,14.993-20.947,14.993-16.162,0-22.436-13.927-22.436-27.432,0-15.2,7.551-28.287,23.074-28.287,16.373,0,21.586,14.143,21.586,24.14,0,1.488,0,2.977-.108,4.357Zm33.71-4.677c-.108-10.528-5.851-18.82-16.27-18.82-10.955,0-15.951,7.654-17.12,18.82Zm0,0Zm20.715,10.631c2.235,9.889,8.828,15.74,21.055,15.74,13.608,0,18.82-6.8,18.82-14.89,0-8.4-3.719-13.608-20.1-17.651-15.735-3.93-22.544-9.034-22.544-19.778,0-9.781,7.128-18.923,23.074-18.923,16.379,0,23.291,9.992,24.243,19.031h-5.954c-1.7-7.973-6.912-13.716-18.609-13.716-10.739,0-16.585,5-16.585,13.288,0,8.189,4.888,11.377,18.609,14.782,20.947,5.212,24.032,13.613,24.032,22.544,0,10.95-7.978,20.417-25.2,20.417-18.609,0-25.418-10.847-26.8-20.844ZM283.87,10.568V44.7c2.977-5.526,8.189-10.208,17.543-10.208,7.551,0,17.97,3.832,17.97,20.628V88.938h-5.315V56.186c0-10.528-4.785-16.482-13.608-16.482-10.528,0-16.59,6.484-16.59,19.567V88.938h-5.315V10.568Zm91.962,62.841c0,5.212.1,13.5.1,15.529h-5.1a85.957,85.957,0,0,1-.319-9.255c-2.23,6.278-7.654,10.528-17.115,10.528-7.659,0-17.44-2.977-17.44-19.242v-35.2h5.207V69.691c0,7.762,2.446,15.312,12.974,15.312,11.908,0,16.373-6.7,16.373-21.905V35.769h5.32Z" transform="translate(160.778 43.864)" fill="#fff"/>
      <g id="Сгруппировать_1423" data-name="Сгруппировать 1423" transform="translate(0 0)">
        <g id="Сгруппировать_1422" data-name="Сгруппировать 1422" clip-path="url(#clip-path-2)">
          <path id="Контур_4087" data-name="Контур 4087" d="M85.514,101.49,151.991.628A50.817,50.817,0,0,0,144.43,0H50.748a50.745,50.745,0,1,0,0,101.49Z" transform="translate(0 0.002)" fill="#fff"/>
          <path id="Контур_4088" data-name="Контур 4088" d="M70.02,19.705,3.537,120.567a50.2,50.2,0,0,0,7.566.634h93.682a50.748,50.748,0,1,0,0-101.5Z" transform="translate(14.68 81.788)" fill="#fff"/>
        </g>
      </g>
    </g>
  </g>
</svg>
