<svg xmlns="http://www.w3.org/2000/svg" xmlns:xlink="http://www.w3.org/1999/xlink" width="760" height="570.75" viewBox="0 0 760 570.75">
  <defs>
    <clipPath id="clip-path">
      <rect width="760" height="570.75" fill="none"/>
    </clipPath>
    <clipPath id="clip-path-2">
      <rect id="Прямоугольник_110" data-name="Прямоугольник 110" width="415.721" height="409.053" fill="none"/>
    </clipPath>
  </defs>
  <g id="Сгруппировать_1411" data-name="Сгруппировать 1411" transform="translate(-1104 -178)">
    <g id="Сгруппировать_1404" data-name="Сгруппировать 1404" transform="translate(851)">
      <g id="Повторить_сетку_1" data-name="Повторить сетку 1" transform="translate(253 178)" clip-path="url(#clip-path)">
        <g id="Сгруппировать_1361" data-name="Сгруппировать 1361" transform="translate(-1249 -178)">
          <g id="Сгруппировать_1343" data-name="Сгруппировать 1343" transform="translate(-868 -3450)">
            <g id="Сгруппировать_1271" data-name="Сгруппировать 1271" transform="translate(1897)">
              <g id="Сгруппировать_1262" data-name="Сгруппировать 1262">
                <rect id="Прямоугольник_94" data-name="Прямоугольник 94" width="760" height="570.75" rx="75" transform="translate(220 3628)" fill="#6674ff"/>
              </g>
            </g>
          </g>
        </g>
      </g>
    </g>
    <g id="Сгруппировать_1409" data-name="Сгруппировать 1409" transform="translate(1276 259)">
      <g id="Сгруппировать_1408" data-name="Сгруппировать 1408" clip-path="url(#clip-path-2)">
        <path id="Контур_4037" data-name="Контур 4037" d="M173.161,66.729s-62.31,63.568-56.046,143.792c0,0,39.233-103.406,110.774-143.792Z" transform="translate(187.835 107.429)" fill="#ffd747"/>
        <path id="Контур_4038" data-name="Контур 4038" d="M77.449,185.269s-9.892-65.275,30.99-109.453c0,0,102.2-26.373,161.542-22.417,0,0-89.343,62.195-88.025,179.23Z" transform="translate(122.994 85.319)" fill="#fefefe"/>
        <path id="Контур_4039" data-name="Контур 4039" d="M224.949,131.6s-95.936-21.923-136.487,83.573l-44.5-40.551S105.276,90.88,224.949,131.6" transform="translate(70.77 193.885)" fill="#ffd747"/>
        <path id="Контур_4040" data-name="Контур 4040" d="M0,134.42s79.12,56.375,101.868,87.529c0,0,79.616-104.836,193.85-54.4,0,0-164.181-131.048-295.719-33.133" transform="translate(0 157.927)" fill="#fefefe"/>
        <path id="Контур_4041" data-name="Контур 4041" d="M74.748,130.595l3.808-24.711q.716-4.62-1.216-5.784a9.46,9.46,0,0,0-3.521-1.067c-.41-.063-.833-.112-1.271-.146q-4.056-.435-5.016,2.722l-.321,1.146-13.548.308,9.13-46.191L98.76,62.415,94.5,74.5,73.548,71.268,69.729,89.83a11.935,11.935,0,0,1,9.738-2.281,15.417,15.417,0,0,1,1.621.347q6.792,1.621,9.662,6.9,2.357,4.287,1,13.128l-3.813,24.742q-2.549,16.513-16.675,15.915a45.845,45.845,0,0,1-4.948-.525q-1.452-.223-3.035-.517-15.985-3.136-13.266-20.767L51.6,116.439l12.825,4.369-1.234,8q-.877,5.708,3.724,6.608l.934.144a13.021,13.021,0,0,0,3.993.185q2.2-.572,2.9-5.149" transform="translate(79.875 91.56)" fill="#fbfbfb"/>
        <path id="Контур_4042" data-name="Контур 4042" d="M44.016,66.769,56.382,104.7l3.625-1.182,1.221,9.393-1.963.642,4.946,15.169-9.926,1.394-4.4-13.506-19.066,6.217-2.558-7.853,3.777-44.3ZM38.645,92.19l-1.464,18.768,9.816-3.2-5.39-16.534Z" transform="translate(45.497 107.494)" fill="#fbfbfb"/>
        <path id="Контур_4043" data-name="Контур 4043" d="M27.212,95.7q-.078-11.111,11.51-19.086Q50.349,68.6,50.357,63.085l-.11-16.142q-.035-5.559-5.437-5.52h-.086q-5.446.035-5.408,5.59l.06,8.947L26.959,58.116,26.885,47.1q-.114-17.233,17.761-17.353Q62.561,29.622,62.676,46.9l.11,16.44q.074,11.283-11.549,19.34Q39.6,90.652,39.648,96.644l.031,4.935,23.362-.157-2.122,11.7-33.59.224Z" transform="translate(43.283 47.884)" fill="#fbfbfb"/>
        <path id="Контур_4044" data-name="Контур 4044" d="M41.722,24.5a8.359,8.359,0,0,1,5.885-.373c.384.1.778.222,1.18.352a9.461,9.461,0,0,1,5.139,4.147q1.562,2.783-.008,8.561L51.149,47.36q-2.936,10.778-14.115,7.733-11.146-3.038-8.211-13.814l8.537-31.34Q40.3-.863,51.449,2.171,62.63,5.213,59.683,16.019l-1.869,6.872-7.4-3.432,1.511-5.551q.951-3.492-2.443-4.413l-.055-.018q-3.371-.916-4.319,2.573Zm1.263,5.927-3.03.564-3.978,14.6L38.248,47.6l1.545.42,3-.569,3.975-14.6L44.418,30.82Z" transform="translate(45.419 2.422)" fill="#fbfbfb"/>
        <path id="Контур_4045" data-name="Контур 4045" d="M42.918,34.12l-1.743,9.6q-1.143,6.291-6.914,7.926,4.823,3.559,3.685,9.85L35.84,73.089q-1.515,8.343-6.582,10.565-3.187,1.394-9.226.438l-.822-.149q-5.328-.967-7.973-3.142-4.745-3.794-3.121-12.75L10.22,56.464q1.143-6.291,6.911-7.926-4.823-3.559-3.683-9.85l1.743-9.607q1.679-9.227,7.822-10.972A18.012,18.012,0,0,1,31.4,17.62a20.213,20.213,0,0,1,7.488,3.088q5.786,3.735,4.027,13.412M23.562,56.484l-3.638.788L17.087,72.9l3.069,1.968,1.978.36,3.6-.757,2.837-15.623-3.163-2.023ZM28.91,27.052l-3.641.788L22.435,43.463,25.5,45.431l1.981.363,3.6-.759,2.837-15.623-3.163-2.023Z" transform="translate(12.395 27.908)" fill="#fbfbfb"/>
        <path id="Контур_4046" data-name="Контур 4046" d="M29.015,87.408a10.337,10.337,0,0,1-6.24,3.735c-.428.094-.887.164-1.375.222a11.4,11.4,0,0,1-7.866-1.6q-3.265-2.181-4.774-9.284L6.092,67.9Q3.269,54.58,17.061,51.617q13.765-2.917,16.6,10.44l8.211,38.75q2.823,13.322-10.977,16.247-13.769,2.917-16.6-10.44l-1.809-8.532,9.946-.331,1.446,6.833q.908,4.283,5.1,3.429l.068-.016q4.15-.877,3.234-5.186ZM18.061,60.854,15.1,63.148,18.927,81.2l3.56.88,1.905-.4,2.931-2.255L23.5,61.371l-3.67-.893Z" transform="translate(9.035 82.259)" fill="#fbfbfb"/>
        <path id="Контур_4047" data-name="Контур 4047" d="M45.243,21.064l2.218-7.973,23.972,2.057-.5,5.818L54.506,70.83,45.8,68.643l15.56-46.2Z" transform="translate(72.839 21.075)" fill="#fbfbfb"/>
        <path id="Контур_4048" data-name="Контур 4048" d="M80.537,30.038a8.233,8.233,0,0,1-5.763-.548,10.365,10.365,0,0,1-.981-.506,9.063,9.063,0,0,1-4.288-4.734q-1.069-2.94,1.315-8.2l4.22-9.317q4.471-9.869,14.7-5.267,10.194,4.62,5.716,14.514l-13,28.7q-4.471,9.873-14.694,5.241-10.2-4.62-5.716-14.511l2.863-6.321,6.53,4.476-2.292,5.061q-1.437,3.171,1.647,4.6l.052.023q3.069,1.39,4.515-1.8ZM86.031,7.856l-2.978.076L77,21.3l1.866,2.242,1.412.639,2.941-.065,6.055-13.371-1.931-2.3Z" transform="translate(97.695 0)" fill="#fbfbfb"/>
        <path id="Контур_4049" data-name="Контур 4049" d="M94.46,26.523,86.972,67.742l3.938.715-3.552,9.289-2.135-.386-3,16.487-9.866-3.662,2.667-14.678L54.311,71.743l1.55-8.532,25.585-39.05ZM76.824,47.335,66.111,63.952l10.664,1.937L80.04,47.919Z" transform="translate(87.437 38.898)" fill="#fbfbfb"/>
        <path id="Контур_4050" data-name="Контур 4050" d="M97.627,63.347a10.792,10.792,0,0,1,7.457,1.509c.446.261.9.543,1.349.835a12.244,12.244,0,0,1,5.006,6.893q1.01,4-2.889,10.656L101.68,94.971Q94.4,107.4,81.508,99.854q-12.86-7.528-5.577-19.961L97.1,43.746q7.293-12.465,20.157-4.935,12.892,7.548,5.59,20.013L118.2,66.75l-8.049-6.757,3.751-6.407q2.357-4.025-1.558-6.321l-.068-.037q-3.876-2.271-6.238,1.754Zm-.42,7.8-3.962-.316L83.387,87.666l2.151,3.262,1.785,1.044,3.931.3,9.858-16.839-2.247-3.32Z" transform="translate(118.004 57.916)" fill="#fbfbfb"/>
        <path id="Контур_4051" data-name="Контур 4051" d="M96.793,44.076q1.437-2.459.619-3.552a5.707,5.707,0,0,0-1.642-1.287l-1.107-.647,4.946-5.684.433.253a3.572,3.572,0,0,0,1.6.585q1.171.035,2.5-2.226l3.925-6.7c.958-1.639,1.169-2.824.624-3.552a6.7,6.7,0,0,0-1.73-1.3c-.224-.133-.462-.258-.715-.386q-2.494-1.366-4.278,1.67l-2.8,4.774-7.433-2.733,3.531-6.026q3.813-6.51,8.931-6.133a14.516,14.516,0,0,1,6.467,1.942,16.2,16.2,0,0,1,4.8,4.4q3.347,4.416-.652,11.238l-3.967,6.775a7.452,7.452,0,0,1-7.41,4.079,7.442,7.442,0,0,1,.068,8.456l-4.784,8.172q-3.445,5.884-7.882,6.165-2.791.176-7.094-2.211l-.579-.339a14,14,0,0,1-5.155-4.573q-2.541-4.169,1.159-10.489l3.526-6.026,6.021,5.142L85.891,48.7q-1.836,3.132,1.2,4.912,3.061,1.793,4.9-1.339Z" transform="translate(123.945 17.874)" fill="#fbfbfb"/>
        <path id="Контур_4052" data-name="Контур 4052" d="M129.657,15.574,109.7,49.647l5.635,3.3L110.947,58,94.721,48.5l4.4-5.055,4.567,2.675,16.625-28.393-5.632-3.3,4.39-5.055Z" transform="translate(152.494 15.09)" fill="#fbfbfb"/>
        <path id="Контур_4053" data-name="Контур 4053" d="M122.423,78.534q-3.5,11.475-15.383,7.843-11.85-3.617-8.349-15.088l10.184-33.358q3.516-11.5,15.365-7.879,11.878,3.629,8.37,15.127Zm1.942-35.9q1.135-3.719-2.464-4.818l-.057-.018q-3.574-1.088-4.708,2.631L106.94,73.8q-1.135,3.723,2.469,4.821,3.625,1.108,4.761-2.613Z" transform="translate(157.6 46.986)" fill="#fbfbfb"/>
        <path id="Контур_4054" data-name="Контур 4054" d="M117.645,63.649q1.171-7.622,9.988-11.81,8.856-4.212,9.466-7.989l1.707-11.071q.587-3.813-3.116-4.385l-.06-.008q-3.739-.576-4.319,3.234l-.947,6.136-8.749.11,1.167-7.561q1.82-11.823,14.083-9.931,12.293,1.891,10.463,13.747L145.592,45.4q-1.194,7.74-10.051,11.98-8.844,4.177-9.479,8.289l-.525,3.385,16.025,2.472-2.743,7.78-23.043-3.552Z" transform="translate(186.392 32.381)" fill="#fbfbfb"/>
        <path id="Контур_4055" data-name="Контур 4055" d="M147.955,45.105q-.489-2.314-1.6-2.529a4.734,4.734,0,0,0-1.728.128l-1.044.222-.141-6.253.41-.089a2.932,2.932,0,0,0,1.308-.538q.744-.63.29-2.764l-1.334-6.308q-.489-2.314-1.605-2.532a5.587,5.587,0,0,0-1.79.167c-.214.044-.431.1-.652.162-1.532.376-2.1,1.511-1.694,3.419l.95,4.492-6.092,2.477-1.2-5.671q-1.3-6.131,2.062-8.762a12.04,12.04,0,0,1,5.058-2.425,13.631,13.631,0,0,1,5.41.016q4.518.846,5.878,7.269l1.352,6.376a6.189,6.189,0,0,1-2.263,6.648,6.183,6.183,0,0,1,4.763,5.155l1.631,7.694q1.174,5.536-1.394,8.193c-1.078,1.112-2.936,1.981-5.59,2.6l-.54.115a11.672,11.672,0,0,1-5.726.078q-3.9-1.143-5.157-7.089l-1.2-5.677,6.58-.2.963,4.56q.623,2.952,3.482,2.344c1.924-.407,2.673-1.595,2.26-3.563Z" transform="translate(211.971 29.04)" fill="#fbfbfb"/>
        <path id="Контур_4056" data-name="Контур 4056" d="M156.493,33.486l5.483,25.872,2.472-.525.146,6.277-1.339.284,2.192,10.348-6.64.219-1.952-9.213L143.85,69.506l-1.135-5.356,5.609-28.934Zm-5.327,16.375-2.284,12.272,6.692-1.42-2.391-11.28Z" transform="translate(229.762 53.91)" fill="#fbfbfb"/>
      </g>
    </g>
  </g>
</svg>
