<svg xmlns="http://www.w3.org/2000/svg" xmlns:xlink="http://www.w3.org/1999/xlink" width="760" height="570.75" viewBox="0 0 760 570.75">
  <defs>
    <clipPath id="clip-path">
      <rect width="760" height="570.75" fill="none"/>
    </clipPath>
    <clipPath id="clip-path-2">
      <rect id="Прямоугольник_117" data-name="Прямоугольник 117" width="429.402" height="313.375" fill="none"/>
    </clipPath>
  </defs>
  <g id="Сгруппировать_1450" data-name="Сгруппировать 1450" transform="translate(-1104 -5551)">
    <g id="Сгруппировать_1435" data-name="Сгруппировать 1435" transform="translate(0 2980)">
      <g id="Сгруппировать_1415" data-name="Сгруппировать 1415" transform="translate(0 596)">
        <g id="Сгруппировать_1407" data-name="Сгруппировать 1407" transform="translate(851)">
          <g id="Сгруппировать_1371" data-name="Сгруппировать 1371" transform="translate(0 -76)">
            <g id="Повторить_сетку_4" data-name="Повторить сетку 4" transform="translate(253 2051)" clip-path="url(#clip-path)">
              <g id="Сгруппировать_1361" data-name="Сгруппировать 1361" transform="translate(-1249 -178)">
                <g id="Сгруппировать_1343" data-name="Сгруппировать 1343" transform="translate(-868 -3450)">
                  <g id="Сгруппировать_1271" data-name="Сгруппировать 1271" transform="translate(1897)">
                    <g id="Сгруппировать_1262" data-name="Сгруппировать 1262">
                      <rect id="Прямоугольник_94" data-name="Прямоугольник 94" width="760" height="570.75" rx="75" transform="translate(220 3628)" fill="#f2891e"/>
                    </g>
                  </g>
                </g>
              </g>
            </g>
          </g>
        </g>
      </g>
    </g>
    <g id="Сгруппировать_1442" data-name="Сгруппировать 1442" transform="translate(1269 5680)">
      <g id="Сгруппировать_1441" data-name="Сгруппировать 1441" clip-path="url(#clip-path-2)">
        <path id="Контур_4113" data-name="Контур 4113" d="M35.873,242.462c-3.611-2.313-7.33-1.85-10.945-3.415-8.68-3.763-11.375-8.275-8.77-17.423.534-1.869.949-3.525,3.4-3.959,1.911-.34,6.54,1.395,4.664-2.989-1.22-2.854,2.908-9.637-5.417-8.617-3.855.471-2.8-3.227-2.76-5.668.809-47.509-1.423-95.027.48-142.53.23-5.741.812-10,9.216-9.679,8.586.332,14.673-7.549,21.728-11.728,31.587-18.72,63.711-18.309,96.355-4.577,31.459,13.232,45.421,38.777,46.4,71.663.818,27.308,2.434,54.721-1.65,81.952-6.1,40.679-34.023,66.947-75.952,68.027-29.375.757-58.745,2.447-88.149,2.2-2.562-.021-6.631,1.715-7.36-2.069-.582-3.016,2.751-4.79,5.576-5.615,4.525-1.316,7.933-5.105,13.179-5.568M135.587,189.8c-6.773-.071-6.717-.06-5.367-6.692a100.5,100.5,0,0,0,1.9-22.877c-.077-2.849-.6-7.528.766-8.265,7.013-3.792,2.363-8.087,2.779-12.666,1.085-12.007-5.128-22.3-4.135-34.067,1.268-15.074-7.5-24.609-21.982-29.613-9.229-3.19-18.249-.474-27.331-1-7.533-.434-10.6,2.332-9.164,9.788.29,1.494,1.081,2.995.978,4.445-2.574,36.341.569,72.683-.133,109.018-.094,4.871,1.55,6.46,6.569,6.709,9.66.48,19.515.494,28.412-2.576,9.251-3.19,21.4-1.187,26.7-12.209" transform="translate(14.004 20.206)" fill="#040200"/>
        <path id="Контур_4114" data-name="Контур 4114" d="M117.991,133.945c.344-10.737-.7-25.783,1.763-40.7C126.2,54.2,150.141,29.925,189.073,23.035c38.335-6.784,75.41,9.736,92.644,41.3a83.17,83.17,0,0,1,7.795,19.5c2.3,9.128-.924,14.164-9.875,12.931-12.646-1.742-25.064.991-37.609.378-4.721-.23-7.211-1.293-9.229-6-6.2-14.44-17.679-20.779-31.862-18.607C186.9,74.689,178.753,83.348,176.413,99.2a239.267,239.267,0,0,0-1.3,58.327c.837,8.49-.148,17.172,2.326,25.673,3.65,12.547,10.958,20.2,22.585,21.626,15.56,1.909,26.28-2.726,31.564-15.685,3.089-7.574,6.938-8.382,14.385-7.845,12.623.914,25.414.177,38.1-.561,7.71-.448,8.375,2.8,6.85,9.033-10.852,44.413-44.8,65.943-86.695,65.743-7.6-.036-15.366-.19-22.8-2.5-1.781-.553-4.708-.859-5.084-1.967-3.417-10.042-12.28-8-19.765-10.574C139.5,234.587,130.361,219.9,124.387,203.6c-7.76-21.171-6.325-43.4-6.4-69.659" transform="translate(108.588 19.822)" fill="#030200"/>
        <path id="Контур_4115" data-name="Контур 4115" d="M53.052,24.941C43.071,31.3,31.428,31.416,21.9,36.959c-1.575.916-6.521,2.057-6.064-2.849.344-3.694-3.509-9.439,3.916-10.647,10.891-1.771,21.764-3.058,33.295,1.477" transform="translate(13.943 20.107)" fill="#040200"/>
      </g>
    </g>
  </g>
</svg>
