<svg xmlns="http://www.w3.org/2000/svg" xmlns:xlink="http://www.w3.org/1999/xlink" width="760" height="570.75" viewBox="0 0 760 570.75">
  <defs>
    <clipPath id="clip-path">
      <rect width="760" height="570.75" fill="none"/>
    </clipPath>
  </defs>
  <g id="Сгруппировать_1388" data-name="Сгруппировать 1388" transform="translate(-264 -4976)">
    <g id="Сгруппировать_1380" data-name="Сгруппировать 1380" transform="translate(0 2272)">
      <g id="Повторить_сетку_5" data-name="Повторить сетку 5" transform="translate(264 2704)" clip-path="url(#clip-path)">
        <g id="Сгруппировать_1361" data-name="Сгруппировать 1361" transform="translate(-1249 -178)">
          <g id="Сгруппировать_1343" data-name="Сгруппировать 1343" transform="translate(-868 -3450)">
            <g id="Сгруппировать_1271" data-name="Сгруппировать 1271" transform="translate(1897)">
              <g id="Сгруппировать_1262" data-name="Сгруппировать 1262">
                <rect id="Прямоугольник_94" data-name="Прямоугольник 94" width="760" height="570.75" rx="75" transform="translate(220 3628)" fill="#2a3e92"/>
              </g>
            </g>
          </g>
        </g>
      </g>
    </g>
    <g id="lonely-planet" transform="translate(352.5 5117.5)">
      <path id="Контур_4021" data-name="Контур 4021" d="M375.342,134.836a142.14,142.14,0,0,1-134.021,94.252c-62.2,0-115.083-39.187-134.021-94.543l7.284-2.476,7.284-2.476c17.481,48.947,64.243,83.326,119.454,83.326A127.419,127.419,0,0,0,361.066,129.3Z" transform="translate(48.781 58.83)" fill="#fff"/>
      <path id="Контур_4022" data-name="Контур 4022" d="M107.3,96.5C126.675,40.706,179.409.5,241.321.5A141.112,141.112,0,0,1,375.342,96.791l-7.284,2.476-7.284,2.476c-17.481-49.821-64.243-84.929-119.454-84.929-55.065,0-102.118,35.69-119.745,85.074Z" transform="translate(48.781)" fill="#fff"/>
      <line id="Линия_1" data-name="Линия 1" x1="0.583" y1="18.209" transform="translate(324.773 113.835)" fill="#2a3e92"/>
      <line id="Линия_2" data-name="Линия 2" x1="0.146" y1="18.209" transform="translate(402.855 113.835)" fill="#2a3e92"/>
      <path id="Контур_4023" data-name="Контур 4023" d="M488.189,126.117l.874-.874.728,17.627c.146,4.225-16.024,10.489-25.056,3.933s-9.178-14.13-9.178-24.036h-42.1c4.516,12.091,18.938,10.78,23.017,4.662l17.627,2.913c-6.555,20.249-23.891,23.017-40.5,17.481-8.449-4.079-13.548-9.178-17.335-17.772V150.3H375.582c0-12.382,0-26.513-.146-39.041-.728-8.158-13.839-7.575-13.839.437v38.6l-20.395.291h-14.13V138.354c0-4.807-5.536,12.674-12.237,12.237-14.276,1.02-25.93-6.41-31.9-19.229V150.3H261.955V131.361c-6.118,12.237-22.143,20.1-37.73,16.17l-2.331-1.02s.583,21.706.583,27.387H201.5V118.25c.583-26.222,28.844-41.809,50.4-26.222A36.957,36.957,0,0,1,261.955,104.7V61h20.977v43.848c6.847-13.985,19.958-20.832,35.545-18.209,11.508,3.2,18.209,8.886,22.871,19.52,5.827-17.044,22-24.036,38.9-18.209,8.449,3.933,13.111,9.469,16.024,18.209,7.721-16.753,24.328-24.036,41.663-17.918,8.741,3.933,14.276,9.032,17.918,17.918V73.528H476.1V86.347h12.819V105.14H476.1c0,6.41-1.02,12.819,1.02,18.792,1.894,4.225,7.429,5.1,11.071,2.185" transform="translate(91.807 27.633)" fill="#fff"/>
      <line id="Линия_3" data-name="Линия 3" x2="0.874" y2="17.918" transform="translate(516.482 113.981)" fill="#2a3e92"/>
      <line id="Линия_4" data-name="Линия 4" y1="17.918" x2="0.291" transform="translate(49.156 113.835)" fill="#2a3e92"/>
      <path id="Контур_4024" data-name="Контур 4024" d="M267.086,154.378V86.056H246.4V125.1c0,7.138-10.343,7.138-10.343,0V86.056H215.371V61H194.394v45.159c-6.7-14.422-19.52-21.851-35.545-19.666-11.508,2.622-19.666,8.886-24.036,19.666-3.933-12.674-13.4-19.52-26.513-20.1-13.839,0-24.182,6.847-28.407,20.1C72.9,90.718,58.916,83.288,42.163,87.076c-10.052,3.2-16.024,8.449-20.686,17.772V61H.5v89.3H21.477V130.2c5.973,11.945,15.879,18.5,29.281,18.792,14.276-.874,23.308-7.575,28.989-20.1V150.3H100v-38.6c.728-8.449,13.548-8.595,14.276,0v38.6h20.249V130.05c4.662,10.343,11.945,16.607,23.017,19.375,24.036,2.331,33.651-14.276,33.8-18.5L174,128.3c-8.741,6.7-18.792,3.2-22-5.681h42.246v27.533h21.123v-14.13c3.5,13.985,20.832,18.792,30.592,8.3a30.663,30.663,0,0,1-1.311,9.615c-3.2,7.575-13.693,7.575-19.083,2.476l-12.382,16.024c7.866,6.264,15.879,9.178,26.076,8.3,8.449-.874,13.693-2.331,20.249-8.158,4.953-5.244,7.138-10.926,7.575-18.209" transform="translate(0 27.633)" fill="#fff"/>
      <path id="Контур_4025" data-name="Контур 4025" d="M227.957,90.8A13.256,13.256,0,1,1,214.7,104.056,13.12,13.12,0,0,1,227.957,90.8" transform="translate(97.835 41.245)" fill="#2a3e92"/>
      <path id="Контур_4026" data-name="Контур 4026" d="M281.257,90.8A13.256,13.256,0,1,1,268,104.056,13.12,13.12,0,0,1,281.257,90.8" transform="translate(122.18 41.245)" fill="#2a3e92"/>
      <path id="Контур_4027" data-name="Контур 4027" d="M346.9,100.081h25.493c-4.079-12.965-22.143-12.382-25.493,0" transform="translate(158.219 41.142)" fill="#2a3e92"/>
      <path id="Контур_4028" data-name="Контур 4028" d="M38.656,90.6A13.256,13.256,0,1,1,25.4,103.856,13.3,13.3,0,0,1,38.656,90.6" transform="translate(11.373 41.153)" fill="#2a3e92"/>
      <path id="Контур_4029" data-name="Контур 4029" d="M130.085,101.017c-4.225-13.4-21.851-13.111-25.785,0Z" transform="translate(47.411 41.37)" fill="#2a3e92"/>
    </g>
  </g>
</svg>
