<svg xmlns="http://www.w3.org/2000/svg" xmlns:xlink="http://www.w3.org/1999/xlink" width="760" height="570.75" viewBox="0 0 760 570.75">
  <defs>
    <clipPath id="clip-path">
      <rect width="760" height="570.75" fill="none"/>
    </clipPath>
    <clipPath id="clip-path-2">
      <rect id="Прямоугольник_109" data-name="Прямоугольник 109" width="330.947" height="331.036" fill="#fff"/>
    </clipPath>
  </defs>
  <g id="Сгруппировать_1403" data-name="Сгруппировать 1403" transform="translate(-264 -7459)">
    <g id="Сгруппировать_1400" data-name="Сгруппировать 1400" transform="translate(0 614)">
      <g id="Сгруппировать_1396" data-name="Сгруппировать 1396" transform="translate(0 623)">
        <g id="Сгруппировать_1385" data-name="Сгруппировать 1385">
          <g id="Сгруппировать_1382" data-name="Сгруппировать 1382" transform="translate(0 3518)">
            <g id="Повторить_сетку_5" data-name="Повторить сетку 5" transform="translate(264 2704)" clip-path="url(#clip-path)">
              <g id="Сгруппировать_1361" data-name="Сгруппировать 1361" transform="translate(-1249 -178)">
                <g id="Сгруппировать_1343" data-name="Сгруппировать 1343" transform="translate(-868 -3450)">
                  <g id="Сгруппировать_1271" data-name="Сгруппировать 1271" transform="translate(1897)">
                    <g id="Сгруппировать_1262" data-name="Сгруппировать 1262">
                      <rect id="Прямоугольник_94" data-name="Прямоугольник 94" width="760" height="570.75" rx="75" transform="translate(220 3628)" fill="#d35164"/>
                    </g>
                  </g>
                </g>
              </g>
            </g>
          </g>
        </g>
      </g>
    </g>
    <g id="Сгруппировать_1402" data-name="Сгруппировать 1402" transform="translate(478.078 7579.083)">
      <g id="Сгруппировать_1401" data-name="Сгруппировать 1401" clip-path="url(#clip-path-2)">
        <path id="Контур_4036" data-name="Контур 4036" d="M330.015,142.07c-1.833-22.927-5.567-45.474-12.332-67.547-9.23-30.119-27.964-50.636-58.3-60.205A264.463,264.463,0,0,0,208.316,3.279C195.031,1.83,181.794.214,168.427.028a331.7,331.7,0,0,0-62.449,5.413c-18.848,3.333-37.23,8.334-54.211,17.61C35.35,32.019,24.478,45.614,17.89,62.9a12.515,12.515,0,0,0-.848,1.491C5.858,91.9,1.971,120.9.413,150.23a300.876,300.876,0,0,0,1.5,49.506c2.009,17.918,4.947,35.6,10.227,52.841a14.227,14.227,0,0,1,.2,8.163Q6.653,282.278,1.129,303.858c-4.413,17.15,8.93,30.527,25.96,26.051,14.5-3.811,29.021-7.567,43.49-11.5a12.01,12.01,0,0,1,7.168.266c23.039,7.32,46.833,10.61,70.825,11.891a321.962,321.962,0,0,0,78.327-5.295c13.45-2.594,26.8-5.67,39.355-11.4,13.912-5.21,25.995-12.919,35.279-24.818,9.67-12.393,14.165-27.086,18.738-41.66,5.235-16.682,7.274-34.027,9.08-51.379a293.718,293.718,0,0,0,.662-53.948M186.34,238.47c-.135,6.532-3.317,9.708-9.839,9.734q-11.065.043-22.131.008c-6.644-.024-9.6-3.027-9.606-9.822-.018-19.034-.066-38.069.089-57.1.023-2.918-.907-4.428-3.413-5.85-16.136-9.158-32.17-18.492-48.233-27.777-7.355-4.252-8.137-6.83-4.55-14.694a10.033,10.033,0,0,0,.445-1.7,3.52,3.52,0,0,1-2.263-.836,3.52,3.52,0,0,0,2.263.836c4.047-5.055,6.74-10.938,10.05-16.443,3.642-6.059,7.443-7.155,13.617-3.612,16.464,9.447,32.923,18.9,49.3,28.506a5.81,5.81,0,0,0,6.795.005c16.208-9.52,32.511-18.878,48.792-28.272,6.837-3.945,10.527-2.94,14.5,3.946,3.529,6.125,7.094,12.231,10.494,18.427,3.175,5.787,1.928,9.956-3.775,13.254-16.279,9.416-32.53,18.883-48.9,28.142-2.653,1.5-3.732,3.042-3.7,6.151.2,17.559.164,35.12.208,52.682-.048,1.472-.11,2.945-.14,4.417" transform="translate(0 0)" fill="#fff"/>
      </g>
    </g>
  </g>
</svg>
