<svg xmlns="http://www.w3.org/2000/svg" width="760" height="570.75" viewBox="0 0 760 570.75">
  <g id="Сгруппировать_1545" data-name="Сгруппировать 1545" transform="translate(-1941 -5641)">
    <g id="Сгруппировать_1476" data-name="Сгруппировать 1476" transform="translate(0 727)">
      <rect id="Прямоугольник_131" data-name="Прямоугольник 131" width="760" height="570.75" rx="75" transform="translate(1941 4914)" fill="#4d4a4a"/>
      <g id="Сгруппировать_1544" data-name="Сгруппировать 1544" transform="translate(2036 5131.999)">
        <path id="Контур_4244" data-name="Контур 4244" d="M62.65,35.365H0v25.77H45.97v74.53H79.33V61.135H125.3V35.365Z" fill="#fff"/>
        <path id="Контур_4245" data-name="Контур 4245" d="M244.926,35.365V70.736H178.988V35.365H149.432v100.3h29.556V100.294h65.938v35.371h29.558V35.365Z" fill="#fff"/>
        <path id="Контур_4246" data-name="Контур 4246" d="M329.431,35.365h-30.7v100.3H412.423V111.788H329.431V96.5h82.992V74.527H329.431V59.242h82.992V35.365Z" fill="#fff"/>
        <path id="Контур_4247" data-name="Контур 4247" d="M335.621,17.558l4.042,10.105,37.39-10.105L369.726,0Z" fill="#fff"/>
        <path id="Контур_4248" data-name="Контур 4248" d="M496.546,59.242,514.8,94.989H478.289Zm0-23.877h-21.41l-52.295,100.3h34.674l9.55-18.7h58.963l9.55,18.7h34.674l-52.3-100.3Z" fill="#fff"/>
      </g>
    </g>
  </g>
</svg>
