<svg xmlns="http://www.w3.org/2000/svg" xmlns:xlink="http://www.w3.org/1999/xlink" width="760" height="570.75" viewBox="0 0 760 570.75">
  <defs>
    <clipPath id="clip-path">
      <rect width="760" height="570.75" fill="none"/>
    </clipPath>
    <clipPath id="clip-path-2">
      <rect id="Прямоугольник_120" data-name="Прямоугольник 120" width="620.553" height="144.839" fill="#fff"/>
    </clipPath>
  </defs>
  <g id="Сгруппировать_1455" data-name="Сгруппировать 1455" transform="translate(-1096 -7339)">
    <g id="Сгруппировать_1438" data-name="Сгруппировать 1438" transform="translate(0 2980)">
      <g id="Сгруппировать_1418" data-name="Сгруппировать 1418" transform="translate(-8 2384)">
        <g id="Сгруппировать_1407" data-name="Сгруппировать 1407" transform="translate(851)">
          <g id="Сгруппировать_1371" data-name="Сгруппировать 1371" transform="translate(0 -76)">
            <g id="Повторить_сетку_4" data-name="Повторить сетку 4" transform="translate(253 2051)" clip-path="url(#clip-path)">
              <g id="Сгруппировать_1361" data-name="Сгруппировать 1361" transform="translate(-1249 -178)">
                <g id="Сгруппировать_1343" data-name="Сгруппировать 1343" transform="translate(-868 -3450)">
                  <g id="Сгруппировать_1271" data-name="Сгруппировать 1271" transform="translate(1897)">
                    <g id="Сгруппировать_1262" data-name="Сгруппировать 1262">
                      <rect id="Прямоугольник_94" data-name="Прямоугольник 94" width="760" height="570.75" rx="75" transform="translate(220 3628)" fill="#5db033"/>
                    </g>
                  </g>
                </g>
              </g>
            </g>
          </g>
        </g>
      </g>
    </g>
    <g id="Сгруппировать_1454" data-name="Сгруппировать 1454" transform="translate(1166 7552)">
      <g id="Сгруппировать_1453" data-name="Сгруппировать 1453" clip-path="url(#clip-path-2)">
        <path id="Контур_4174" data-name="Контур 4174" d="M134.824,40.955A119.553,119.553,0,0,0,131.533,19.8c-2.421-9.5-7.325-17.4-18.02-19.318-6.931-1.248-13.447,1.036-19.838,3.407C80.521,8.773,68.053,15.88,53.812,17.273c-6.983.686-14.089.117-21.144.117-.014-.139-.029-.277-.043-.423l23.017-6.435c-.015-.4-.029-.81-.044-1.212C48.341,6.607,41.212,3.448,33.792,1.3,25.453-1.1,16.983-.63,11.066,6.629a37.411,37.411,0,0,0-7.142,14.1A133.906,133.906,0,0,0,2.6,79.229a66.241,66.241,0,0,0,22.574,38.558c8.309,7.084,17.9,12.038,27.46,17.123,5.4,2.867,10.36,6.566,15.569,9.929,3.283-2.29,6.909-5.15,10.841-7.5,7.3-4.348,14.971-8.1,22.158-12.629a69.074,69.074,0,0,0,26.812-30.474c7.682-17.087,8.061-35.114,6.807-53.281M96.186,106.121a48.58,48.58,0,0,1-58.87-1.591c-1.488-1.2-2.787-2.64-4.267-4.056a9.389,9.389,0,0,1,.912-1.408c2.16-2.138,4.1-5.523,6.58-5.975,2.094-.387,4.882,2.531,7.245,4.151,13.045,8.952,31.423,7.835,43.548-2.955C93.7,92.178,95,92.12,97.222,94.4c6.317,6.5,6.419,6.4-1.036,11.724m8.47-62.772,7.96,9.63c-.241.263-.489.525-.73.788-2.991-2.488-5.975-4.976-9.623-8.011-.773,8.769-1.5,17.035-2.225,25.294l-1.094-.023c-.656-8.1-1.306-16.21-2.035-25.272-3.575,2.955-6.654,5.494-9.732,8.033-.277-.241-.554-.474-.832-.715,2.51-3.013,5.027-6.026,8.091-9.7-8.8-.788-16.955-1.526-25.112-2.255.015-.386.029-.773.036-1.159C77.574,39.328,85.79,38.7,94.5,38.03c-2.831-3.429-5.34-6.464-7.85-9.5.234-.247.467-.5.7-.751,3.006,2.429,6,4.859,9.543,7.719.715-8.806,1.372-16.933,2.029-25.054.379-.029.751-.058,1.13-.08.7,8.113,1.4,16.226,2.182,25.177,3.72-3.093,6.777-5.632,9.834-8.171.233.233.467.467.7.708-2.6,3.181-5.187,6.362-8.113,9.951,8.879.679,17.13,1.313,25.382,1.941.022.372.036.737.058,1.1l-25.44,2.276" transform="translate(0 0)" fill="#fff"/>
        <path id="Контур_4175" data-name="Контур 4175" d="M478.182,66.524v-7.9c0-10.213.089-20.427-.053-30.637-.042-3.036,1-4.191,4.008-3.959a44.3,44.3,0,0,0,7.283,0c3.527-.312,4.324,1.389,4.294,4.555-.118,12.035-.045,24.071-.046,36.108,0,6.93.061,13.86-.031,20.789-.067,5.073-1.82,6.362-6.862,6.879-6.4.657-10.622-1.636-14.239-7.037-7.434-11.1-15.5-21.774-23.311-32.616a6.507,6.507,0,0,0-2.992-2.485c-.086,1.249-.244,2.5-.247,3.746-.02,11.429-.117,22.859.053,34.284.048,3.234-.971,4.393-4.171,4.077a37.824,37.824,0,0,0-7.282,0c-3.32.318-4.154-1.183-4.14-4.237.088-18.844.021-37.69.057-56.534.012-6.079,1.466-7.114,7.6-7.572,5.865-.438,9.7,1.63,13.017,6.571,7.721,11.491,16,22.609,24.061,33.868.61.853,1.326,1.629,1.994,2.44l1-.337" transform="translate(-116.405 -6.47)" fill="#fff"/>
        <path id="Контур_4176" data-name="Контур 4176" d="M684.383,88.732c-1.335-4.786-2.743-9.557-4.071-14.351-1.525-5.486-2.466-11.3-8.1-13.636,2.736-3.393,6.048-6.179,7.683-9.732,5.478-11.95-2.321-24.886-15.992-26.068-10.623-.912-21.348-.664-32.036-.781-5.706-.058-6.96,1.335-6.975,7.179q-.044,19.337-.014,38.675c0,6.325.072,12.651-.023,18.969-.036,2.517.935,3.509,3.452,3.385a69.978,69.978,0,0,1,8.747.022c2.947.226,3.786-.927,3.728-3.765-.16-7.77-.058-15.547-.058-24.025,4.334,0,8.186-.058,12.038.015,5.268.088,8.419,2.291,10.163,7.252,1,2.86,1.693,5.822,2.517,8.74,3.473,12.271,3.473,12.2,16.24,11.79,2.868-.095,3.349-1.342,2.7-3.67M659.308,52.4a144.276,144.276,0,0,1-16.671.613c-.635,0-1.772-1.532-1.809-2.393-.19-4.356-.087-8.718-.087-13.6,6.267,0,12.074-.292,17.837.095,4.122.277,6.574,3.429,6.69,7.332.124,4.035-2.014,7.478-5.961,7.952" transform="translate(-168.979 -6.535)" fill="#fff"/>
        <path id="Контур_4177" data-name="Контур 4177" d="M297.169,52.072c-1.013-13.738-9.564-24.3-23.047-26.323-10.469-1.576-21.252-1.262-31.9-1.393-3.867-.044-5.122,1.875-5.152,6.034-.05,9.236-.014,18.48-.014,27.716,0,9.353-.036,18.714.014,28.074.029,4.348,1.445,6.165,5.429,6.143,9.951-.051,19.953.212,29.825-.788,11.14-1.124,18.925-7.449,22.828-18.232,2.51-6.924,2.553-14.073,2.02-21.231M279.821,68.633c-2,6.625-7.471,10.6-14.715,10.987-1.569.088-3.152.015-4.728.015-7.53.036-7.53.036-7.53-7.383,0-10.681.074-21.369-.05-32.05-.029-2.663.773-3.852,3.5-3.6,4.085.372,8.237.365,12.263,1.08,6.056,1.072,9.791,5.056,11.477,10.871a35.009,35.009,0,0,1-.219,20.085" transform="translate(-64.103 -6.586)" fill="#fff"/>
        <path id="Контур_4178" data-name="Контур 4178" d="M355.923,50.4c1.711.105,3.256.276,4.8.281,7.9.029,15.8.105,23.7-.031,2.987-.052,4.358.633,4.225,4.035-.349,8.912,1.141,7.6-7.83,7.671-8.133.066-16.269.014-24.83.014,0,4.649-.352,9.114.111,13.493.368,3.487,3.575,3.948,6.466,3.979,7.534.082,15.07-.015,22.6.072,8.815.1,8.116-1.529,8.163,8.588.013,2.683-.832,3.907-3.806,3.862-10.207-.155-20.418.02-30.625-.08-12.867-.126-18.892-6.312-18.9-19.2q-.012-14.592,0-29.185c.006-12.883,6.027-19.348,18.981-19.737,9.956-.3,19.93-.029,29.895-.093,2.248-.015,3.379.662,3.319,3.119-.269,11.022,1.625,8.837-8.525,9.037-5.831.116-11.667.007-17.5.025-9.09.028-10.528,1.494-10.421,10.6.012,1.078.105,2.155.178,3.551" transform="translate(-91.944 -6.495)" fill="#fff"/>
        <path id="Контур_4179" data-name="Контур 4179" d="M763.41,24.2c6.023,0,11.079-.2,16.1.145,1.167.08,2.458,1.822,3.266,3.075,3.744,5.8,7.339,11.7,11.335,18.118,3.154-5.1,6.414-9.5,8.736-14.348,2.818-5.889,6.885-8.272,13.294-7.246,2.429.389,4.972.063,8.366.063-1.2,2.062-1.822,3.3-2.59,4.447-5.683,8.484-11.318,17-17.149,25.384-1.491,2.143-1.464,3.641.01,5.758,6.53,9.376,12.9,18.865,19.3,28.327.719,1.059,1.31,2.2,2.367,4-6.129,0-11.506.19-16.849-.152-1.134-.073-2.356-1.953-3.173-3.233-4.1-6.421-8.073-12.919-12.511-20.065-2.111,3.417-3.873,6.263-5.627,9.114-2.357,3.83-4.614,7.726-7.112,11.46-.822,1.228-2.211,2.832-3.427,2.909-5.146.323-10.325.137-16.4.137,1.056-1.712,1.612-2.7,2.243-3.626,6.549-9.66,13.037-19.361,19.723-28.925,1.442-2.062,1.4-3.456.012-5.467-5.942-8.6-11.727-17.308-17.558-25.986-.657-.979-1.227-2.018-2.36-3.892" transform="translate(-205.891 -6.414)" fill="#fff"/>
        <path id="Контур_4180" data-name="Контур 4180" d="M560.439,24.1c8.38,0,16.763.1,25.141-.05,2.932-.052,4.232.86,4.183,3.916-.153,9.529.913,8.187-8.056,8.282-3.4.036-6.811.167-10.2-.04-2.959-.181-3.684,1.032-3.664,3.821.109,15.8.055,31.6.051,47.4,0,4.884-.007,4.885-5.051,4.889-2.43,0-4.873-.164-7.284.04-3.168.267-3.551-1.45-3.541-4.009.061-15.556.031-31.111.029-46.667,0-5.416-.005-5.418-5.3-5.423-4.129,0-8.262-.1-12.387.032-2.429.075-3.4-.635-3.428-3.279-.085-8.907-.188-8.907,8.737-8.907Z" transform="translate(-143.575 -6.503)" fill="#fff"/>
        <path id="Контур_4181" data-name="Контур 4181" d="M725.528,57.813c0-9.836.078-19.674-.045-29.508-.039-3.08.9-4.515,4.169-4.253a56.253,56.253,0,0,0,8,.007c2.73-.172,3.665,1.006,3.637,3.618-.076,7.528-.02,15.058-.019,22.588,0,12.629-.065,25.259.044,37.887.026,3.055-.821,4.528-4.129,4.2a36.428,36.428,0,0,0-7.272,0c-3.379.349-4.491-.975-4.442-4.3.147-10.078.054-20.158.054-30.237" transform="translate(-196.189 -6.496)" fill="#fff"/>
        <path id="Контур_4182" data-name="Контур 4182" d="M246.131,151.229v9.287h-.956v-3.847a7.4,7.4,0,0,1-2.931.65,3.733,3.733,0,0,1-2.542-.8,2.806,2.806,0,0,1-.908-2.229v-3.065h.969v2.959a2.112,2.112,0,0,0,.676,1.671,2.772,2.772,0,0,0,1.9.6,6.765,6.765,0,0,0,2.839-.664v-4.564Z" transform="translate(-64.577 -40.897)" fill="#fff"/>
        <path id="Контур_4183" data-name="Контур 4183" d="M266.093,159.668v.849h-6.568v-9.287h6.369v.849h-5.386v3.3h4.8v.836h-4.8v3.449Z" transform="translate(-70.183 -40.897)" fill="#fff"/>
        <path id="Контур_4184" data-name="Контур 4184" d="M279.08,159.957a4.464,4.464,0,0,1-1.738-1.692,4.966,4.966,0,0,1,0-4.843,4.457,4.457,0,0,1,1.745-1.691,5.1,5.1,0,0,1,2.494-.611,5.169,5.169,0,0,1,1.91.345,3.957,3.957,0,0,1,1.486,1.008l-.624.624a3.7,3.7,0,0,0-2.746-1.1,4.039,4.039,0,0,0-2,.5,3.681,3.681,0,0,0-1.413,1.38,4.031,4.031,0,0,0,0,3.927,3.674,3.674,0,0,0,1.413,1.38,4.032,4.032,0,0,0,2,.5,3.65,3.65,0,0,0,2.746-1.114l.624.623a4,4,0,0,1-1.493,1.015,5.127,5.127,0,0,1-1.917.352,5.068,5.068,0,0,1-2.488-.61" transform="translate(-74.831 -40.867)" fill="#fff"/>
        <path id="Контур_4185" data-name="Контур 4185" d="M302.575,152.078h-3.265v8.438h-.968v-8.438h-3.263v-.849h7.5Z" transform="translate(-79.798 -40.897)" fill="#fff"/>
        <path id="Контур_4186" data-name="Контур 4186" d="M321.845,151.229v9.287h-.969v-4.285h-5.811v4.285h-.983v-9.287h.983v4.14h5.811v-4.14Z" transform="translate(-84.937 -40.897)" fill="#fff"/>
        <path id="Контур_4187" data-name="Контур 4187" d="M341.781,155.289a2.7,2.7,0,0,1,.869,2.176,2.806,2.806,0,0,1-.922,2.275,4.024,4.024,0,0,1-2.66.776h-3.689v-9.287h.969v3.317h2.919a3.766,3.766,0,0,1,2.514.743M341,159.163a2.09,2.09,0,0,0,.671-1.685q0-2.136-2.628-2.136h-2.693v4.392h2.693a2.943,2.943,0,0,0,1.957-.571m3.258-7.934h.968v9.287h-.968Z" transform="translate(-90.696 -40.897)" fill="#fff"/>
        <path id="Контур_4188" data-name="Контур 4188" d="M359.53,150.344h.969v7.7l5.944-7.7h.889v9.288h-.969V151.95l-5.945,7.682h-.889Zm2.3-1.127a1.544,1.544,0,0,1-.59-1.261h.73a1.044,1.044,0,0,0,.4.836,1.9,1.9,0,0,0,2.063,0,1.035,1.035,0,0,0,.4-.836h.73a1.539,1.539,0,0,1-.6,1.261,2.957,2.957,0,0,1-3.139,0" transform="translate(-97.227 -40.012)" fill="#fff"/>
        <path id="Контур_4189" data-name="Контур 4189" d="M393.288,159.957a4.464,4.464,0,0,1-1.738-1.692,4.966,4.966,0,0,1,0-4.843,4.457,4.457,0,0,1,1.745-1.691,5.1,5.1,0,0,1,2.494-.611,5.169,5.169,0,0,1,1.91.345,3.957,3.957,0,0,1,1.486,1.008l-.624.624a3.7,3.7,0,0,0-2.746-1.1,4.039,4.039,0,0,0-2,.5,3.681,3.681,0,0,0-1.413,1.38,4.031,4.031,0,0,0,0,3.927,3.675,3.675,0,0,0,1.413,1.38,4.032,4.032,0,0,0,2,.5,3.65,3.65,0,0,0,2.746-1.114l.624.623a4,4,0,0,1-1.493,1.015,5.127,5.127,0,0,1-1.917.352,5.068,5.068,0,0,1-2.488-.61" transform="translate(-105.716 -40.867)" fill="#fff"/>
        <path id="Контур_4190" data-name="Контур 4190" d="M416.785,152.078h-3.265v8.438h-.968v-8.438h-3.263v-.849h7.5Z" transform="translate(-110.684 -40.897)" fill="#fff"/>
        <path id="Контур_4191" data-name="Контур 4191" d="M429.383,159.95a4.512,4.512,0,0,1-1.752-1.692,4.941,4.941,0,0,1,0-4.83,4.512,4.512,0,0,1,1.752-1.692,5.38,5.38,0,0,1,4.989-.007,4.521,4.521,0,0,1,1.744,1.692,4.921,4.921,0,0,1,0,4.843,4.514,4.514,0,0,1-1.744,1.691,5.377,5.377,0,0,1-4.989-.006m4.491-.757a3.6,3.6,0,0,0,1.393-1.38,4.1,4.1,0,0,0,0-3.94,3.605,3.605,0,0,0-1.393-1.38,4.242,4.242,0,0,0-3.987,0,3.641,3.641,0,0,0-1.407,1.38,4.056,4.056,0,0,0,0,3.94,3.638,3.638,0,0,0,1.407,1.38,4.242,4.242,0,0,0,3.987,0" transform="translate(-115.473 -40.867)" fill="#fff"/>
        <path id="Контур_4192" data-name="Контур 4192" d="M459.6,151.229v9.287h-.942v-7.43l-3.649,6.25h-.465l-3.649-6.209v7.39h-.943v-9.287h.81l4.034,6.886,3.994-6.886Z" transform="translate(-121.68 -40.897)" fill="#fff"/>
        <path id="Контур_4193" data-name="Контур 4193" d="M479.267,158.035h-5.174l-1.115,2.481h-1.021l4.246-9.287h.968l4.246,9.287h-1.035Zm-.357-.8-2.23-4.989-2.229,4.989Z" transform="translate(-127.631 -40.897)" fill="#fff"/>
        <path id="Контур_4194" data-name="Контур 4194" d="M498.64,152.078h-3.265v8.438h-.968v-8.438h-3.263v-.849h7.5Z" transform="translate(-132.819 -40.897)" fill="#fff"/>
        <path id="Контур_4195" data-name="Контур 4195" d="M511.238,159.95a4.512,4.512,0,0,1-1.752-1.692,4.941,4.941,0,0,1,0-4.83,4.512,4.512,0,0,1,1.752-1.692,5.38,5.38,0,0,1,4.989-.007,4.52,4.52,0,0,1,1.744,1.692,4.921,4.921,0,0,1,0,4.843,4.514,4.514,0,0,1-1.744,1.691,5.377,5.377,0,0,1-4.989-.006m4.491-.757a3.6,3.6,0,0,0,1.393-1.38,4.1,4.1,0,0,0,0-3.94,3.6,3.6,0,0,0-1.393-1.38,4.242,4.242,0,0,0-3.987,0,3.641,3.641,0,0,0-1.407,1.38,4.055,4.055,0,0,0,0,3.94,3.638,3.638,0,0,0,1.407,1.38,4.242,4.242,0,0,0,3.987,0" transform="translate(-137.609 -40.867)" fill="#fff"/>
        <path id="Контур_4196" data-name="Контур 4196" d="M538.2,151.229v9.287h-.968v-8.438h-4.485l-.106,3.1a18.955,18.955,0,0,1-.312,3.1,3.853,3.853,0,0,1-.749,1.752,1.693,1.693,0,0,1-1.34.577,3.166,3.166,0,0,1-.743-.093l.08-.875a1.884,1.884,0,0,0,.437.053,1.152,1.152,0,0,0,.949-.465,3.385,3.385,0,0,0,.55-1.439,18.416,18.416,0,0,0,.252-2.581l.133-3.981Z" transform="translate(-143.192 -40.897)" fill="#fff"/>
        <path id="Контур_4197" data-name="Контур 4197" d="M553.357,159.95a4.512,4.512,0,0,1-1.752-1.692,4.941,4.941,0,0,1,0-4.83,4.512,4.512,0,0,1,1.752-1.692,5.38,5.38,0,0,1,4.989-.007,4.52,4.52,0,0,1,1.744,1.692,4.921,4.921,0,0,1,0,4.843,4.513,4.513,0,0,1-1.744,1.691,5.377,5.377,0,0,1-4.989-.006m4.491-.757a3.6,3.6,0,0,0,1.393-1.38,4.1,4.1,0,0,0,0-3.94,3.606,3.606,0,0,0-1.393-1.38,4.242,4.242,0,0,0-3.987,0,3.641,3.641,0,0,0-1.407,1.38,4.056,4.056,0,0,0,0,3.94,3.637,3.637,0,0,0,1.407,1.38,4.242,4.242,0,0,0,3.987,0" transform="translate(-149 -40.867)" fill="#fff"/>
        <path id="Контур_4198" data-name="Контур 4198" d="M579.831,152.078h-4.949l.013,8.438h-.969v-9.287h5.9Z" transform="translate(-155.206 -40.897)" fill="#fff"/>
        <path id="Контур_4199" data-name="Контур 4199" d="M590.694,151.229h.969v7.7l5.945-7.7h.889v9.287h-.969v-7.682l-5.944,7.682h-.889Z" transform="translate(-159.741 -40.897)" fill="#fff"/>
        <path id="Контур_4200" data-name="Контур 4200" d="M617.946,151.229v9.287h-.956v-3.847a7.4,7.4,0,0,1-2.931.65,3.733,3.733,0,0,1-2.542-.8,2.806,2.806,0,0,1-.908-2.229v-3.065h.969v2.959a2.112,2.112,0,0,0,.676,1.671,2.772,2.772,0,0,0,1.9.6,6.766,6.766,0,0,0,2.839-.664v-4.564Z" transform="translate(-165.126 -40.897)" fill="#fff"/>
        <path id="Контур_4201" data-name="Контур 4201" d="M637.908,159.668v.849h-6.568v-9.287h6.369v.849h-5.386v3.3h4.8v.836h-4.8v3.449Z" transform="translate(-170.732 -40.897)" fill="#fff"/>
        <path id="Контур_4202" data-name="Контур 4202" d="M650.893,159.957a4.464,4.464,0,0,1-1.738-1.692,4.966,4.966,0,0,1,0-4.843,4.457,4.457,0,0,1,1.745-1.691,5.1,5.1,0,0,1,2.494-.611,5.169,5.169,0,0,1,1.91.345,3.957,3.957,0,0,1,1.486,1.008l-.624.624a3.7,3.7,0,0,0-2.746-1.1,4.039,4.039,0,0,0-2,.5A3.682,3.682,0,0,0,650,153.88a4.031,4.031,0,0,0,0,3.927,3.675,3.675,0,0,0,1.413,1.38,4.032,4.032,0,0,0,2,.5,3.65,3.65,0,0,0,2.746-1.114l.624.623a4,4,0,0,1-1.493,1.015,5.126,5.126,0,0,1-1.917.352,5.068,5.068,0,0,1-2.488-.61" transform="translate(-175.38 -40.867)" fill="#fff"/>
        <path id="Контур_4203" data-name="Контур 4203" d="M672.081,156.257h-2.123v4.259H669v-9.288h.956V155.4h2.123l3.144-4.167h1.061l-3.45,4.512,3.649,4.776h-1.128Z" transform="translate(-180.918 -40.897)" fill="#fff"/>
        <path id="Контур_4204" data-name="Контур 4204" d="M687.7,151.229h.969v7.7l5.945-7.7h.889v9.287h-.969v-7.682l-5.944,7.682H687.7Z" transform="translate(-185.973 -40.897)" fill="#fff"/>
        <path id="Контур_4205" data-name="Контур 4205" d="M709.049,150.344h.969v7.7l5.944-7.7h.889v9.288h-.969V151.95l-5.945,7.682h-.889Zm2.3-1.127a1.544,1.544,0,0,1-.59-1.261h.73a1.044,1.044,0,0,0,.4.836,1.9,1.9,0,0,0,2.063,0,1.035,1.035,0,0,0,.4-.836h.73a1.539,1.539,0,0,1-.6,1.261,2.957,2.957,0,0,1-3.139,0" transform="translate(-191.747 -40.012)" fill="#fff"/>
        <path id="Контур_4206" data-name="Контур 4206" d="M742.806,159.957a4.464,4.464,0,0,1-1.738-1.692,4.966,4.966,0,0,1,0-4.843,4.457,4.457,0,0,1,1.745-1.691,5.1,5.1,0,0,1,2.494-.611,5.169,5.169,0,0,1,1.91.345,3.957,3.957,0,0,1,1.486,1.008l-.624.624a3.7,3.7,0,0,0-2.746-1.1,4.039,4.039,0,0,0-2,.5,3.681,3.681,0,0,0-1.413,1.38,4.03,4.03,0,0,0,0,3.927,3.674,3.674,0,0,0,1.413,1.38,4.031,4.031,0,0,0,2,.5,3.65,3.65,0,0,0,2.746-1.114l.624.623a4,4,0,0,1-1.493,1.015,5.126,5.126,0,0,1-1.917.352,5.068,5.068,0,0,1-2.488-.61" transform="translate(-200.236 -40.867)" fill="#fff"/>
        <path id="Контур_4207" data-name="Контур 4207" d="M767.484,159.668v.849h-6.568v-9.287h6.369v.849H761.9v3.3h4.8v.836h-4.8v3.449Z" transform="translate(-205.774 -40.897)" fill="#fff"/>
        <path id="Контур_4208" data-name="Контур 4208" d="M785.528,152.078a3.2,3.2,0,0,1,0,4.664,4.215,4.215,0,0,1-2.785.843h-2.495v2.932h-.983v-9.288h3.477a4.2,4.2,0,0,1,2.785.849m-.7,4.04a2.088,2.088,0,0,0,.73-1.705,2.12,2.12,0,0,0-.73-1.731,3.233,3.233,0,0,0-2.11-.6h-2.467v4.644h2.467a3.233,3.233,0,0,0,2.11-.6" transform="translate(-210.736 -40.897)" fill="#fff"/>
        <path id="Контур_4209" data-name="Контур 4209" d="M805.34,156.5a2.467,2.467,0,0,1-.352,3.363,4.108,4.108,0,0,1-2.514.65H798.36v-9.287h3.862a3.874,3.874,0,0,1,2.322.611,2.049,2.049,0,0,1,.835,1.764,2.155,2.155,0,0,1-.4,1.321,2.368,2.368,0,0,1-1.115.8,2.576,2.576,0,0,1,1.473.776m-6.011-1.068h2.84a2.694,2.694,0,0,0,1.652-.438,1.694,1.694,0,0,0,0-2.548,2.694,2.694,0,0,0-1.652-.438h-2.84Zm5.546,2.508q0-1.751-2.4-1.751h-3.144v3.543h3.144q2.4,0,2.4-1.792" transform="translate(-215.9 -40.897)" fill="#fff"/>
        <path id="Контур_4210" data-name="Контур 4210" d="M818.346,151.229h.969v7.7l5.945-7.7h.889v9.287h-.969v-7.682l-5.944,7.682h-.889Z" transform="translate(-221.304 -40.897)" fill="#fff"/>
        <path id="Контур_4211" data-name="Контур 4211" d="M840.974,159.957a4.464,4.464,0,0,1-1.738-1.692,4.966,4.966,0,0,1,0-4.843,4.457,4.457,0,0,1,1.745-1.691,5.1,5.1,0,0,1,2.494-.611,5.169,5.169,0,0,1,1.91.345,3.957,3.957,0,0,1,1.486,1.008l-.624.624A3.7,3.7,0,0,0,843.5,152a4.039,4.039,0,0,0-2,.5,3.681,3.681,0,0,0-1.413,1.38,4.031,4.031,0,0,0,0,3.927,3.675,3.675,0,0,0,1.413,1.38,4.032,4.032,0,0,0,2,.5,3.65,3.65,0,0,0,2.746-1.114l.624.623a4,4,0,0,1-1.493,1.015,5.126,5.126,0,0,1-1.917.352,5.068,5.068,0,0,1-2.488-.61" transform="translate(-226.783 -40.867)" fill="#fff"/>
      </g>
    </g>
  </g>
</svg>
