<svg xmlns="http://www.w3.org/2000/svg" xmlns:xlink="http://www.w3.org/1999/xlink" width="760" height="570.75" viewBox="0 0 760 570.75">
  <defs>
    <clipPath id="clip-path">
      <rect width="760" height="570.75" fill="none"/>
    </clipPath>
    <clipPath id="clip-path-2">
      <rect id="Прямоугольник_118" data-name="Прямоугольник 118" width="616.112" height="174.13" fill="#fefefe"/>
    </clipPath>
  </defs>
  <g id="Сгруппировать_1449" data-name="Сгруппировать 1449" transform="translate(-1104 -6147)">
    <g id="Сгруппировать_1436" data-name="Сгруппировать 1436" transform="translate(0 2980)">
      <g id="Сгруппировать_1416" data-name="Сгруппировать 1416" transform="translate(0 1192)">
        <g id="Сгруппировать_1407" data-name="Сгруппировать 1407" transform="translate(851)">
          <g id="Сгруппировать_1371" data-name="Сгруппировать 1371" transform="translate(0 -76)">
            <g id="Повторить_сетку_4" data-name="Повторить сетку 4" transform="translate(253 2051)" clip-path="url(#clip-path)">
              <g id="Сгруппировать_1361" data-name="Сгруппировать 1361" transform="translate(-1249 -178)">
                <g id="Сгруппировать_1343" data-name="Сгруппировать 1343" transform="translate(-868 -3450)">
                  <g id="Сгруппировать_1271" data-name="Сгруппировать 1271" transform="translate(1897)">
                    <g id="Сгруппировать_1262" data-name="Сгруппировать 1262">
                      <rect id="Прямоугольник_94" data-name="Прямоугольник 94" width="760" height="570.75" rx="75" transform="translate(220 3628)" fill="#383b4d"/>
                    </g>
                  </g>
                </g>
              </g>
            </g>
          </g>
        </g>
      </g>
    </g>
    <g id="Сгруппировать_1445" data-name="Сгруппировать 1445" transform="translate(-735 167)">
      <g id="Сгруппировать_1444" data-name="Сгруппировать 1444" transform="translate(1911 6178)">
        <g id="Сгруппировать_1443" data-name="Сгруппировать 1443" transform="translate(0 0)" clip-path="url(#clip-path-2)">
          <path id="Контур_4116" data-name="Контур 4116" d="M168.63,41.306q12.625,7.745,12.624,28.679,0,20.4-12.624,28.786t-30.662,8.385H115.924v-73.6h19.239q20.84,0,33.467,7.745m-40.013.373V99.144H138.9q12.825,0,20.841-6.3t8.015-22.858q0-11.642-4.142-17.891a19.9,19.9,0,0,0-10.554-8.332,49.018,49.018,0,0,0-15.1-2.083Z" transform="translate(57.166 16.55)" fill="#fefefe"/>
          <path id="Контур_4117" data-name="Контур 4117" d="M237.368,33.562l-29.392,73.594H194.348L164.69,33.562h13.626L201.43,96.154l23.112-62.592Z" transform="translate(81.215 16.551)" fill="#fefefe"/>
          <path id="Контур_4118" data-name="Контур 4118" d="M263.294,34.786a45.8,45.8,0,0,1,12.692,6.462l-6.946,6.2a42.8,42.8,0,0,0-10.221-4.86,36.321,36.321,0,0,0-10.755-1.548q-7.216,0-11.891,2.671a8.491,8.491,0,0,0-4.675,7.8,8.888,8.888,0,0,0,1.6,5.393q1.6,2.19,5.946,4.006a90.105,90.105,0,0,0,12.626,3.845A95.422,95.422,0,0,1,266.1,69.34a23.887,23.887,0,0,1,9.286,6.783,16.725,16.725,0,0,1,3.54,10.948,17.587,17.587,0,0,1-3.942,11.322,25.669,25.669,0,0,1-11.355,7.69,50.093,50.093,0,0,1-17.568,2.777q-19.107,0-31.262-9.505l6.946-6.2a48.566,48.566,0,0,0,11.355,5.5,41.3,41.3,0,0,0,12.826,1.869q8.549,0,14.162-3.366a10.75,10.75,0,0,0,5.61-9.774,10.044,10.044,0,0,0-1.737-6.034,14.7,14.7,0,0,0-5.944-4.327,70.734,70.734,0,0,0-12.226-3.845q-14.162-3.418-20.707-8.224a15.317,15.317,0,0,1-6.547-13.031A15.034,15.034,0,0,1,222.211,42,23.978,23.978,0,0,1,232.5,35.159,42.983,42.983,0,0,1,247.528,32.7a52.375,52.375,0,0,1,15.766,2.083" transform="translate(105.925 16.127)" fill="#fefefe"/>
          <path id="Контур_4119" data-name="Контур 4119" d="M325.5,37.136a32.061,32.061,0,0,1,13.628,12.977Q344,58.66,344,70.835q0,11.965-4.875,20.508A32.393,32.393,0,0,1,325.5,104.375a44.072,44.072,0,0,1-20.374,4.485,44.954,44.954,0,0,1-20.374-4.379,31.7,31.7,0,0,1-13.626-12.925q-4.88-8.544-4.878-20.614,0-11.857,4.878-20.508a32.455,32.455,0,0,1,13.694-13.192A43.754,43.754,0,0,1,305.122,32.7,44.517,44.517,0,0,1,325.5,37.136M286.418,48.3q-6.681,7.266-6.68,22.645,0,15.275,6.747,22.43t18.637,7.157q25.38,0,25.383-29.694,0-29.8-25.383-29.8-12.025,0-18.7,7.263" transform="translate(131.295 16.127)" fill="#fefefe"/>
          <path id="Контур_4120" data-name="Контур 4120" d="M387.183,33.562l-1.336,8.651H360.331v64.943H347.639V42.213H321.452V33.562Z" transform="translate(158.52 16.551)" fill="#fefefe"/>
          <path id="Контур_4121" data-name="Контур 4121" d="M424.022,107.156l-6.946-18.479H382.205l-6.946,18.479H362.433L391.96,33.562h16.03l29.392,73.594Zm-38.744-26.7H414L399.708,42Z" transform="translate(178.729 16.551)" fill="#fefefe"/>
          <path id="Контур_4122" data-name="Контур 4122" d="M75.4,0,0,43.54V130.6l8.662,5L75.4,174.13,138.862,137.5l11.945-6.9V43.54Zm63.458,123.706H11.945V50.438L75.4,13.8l63.458,36.642Z" transform="translate(0 0)" fill="#fefefe"/>
          <path id="Контур_4123" data-name="Контур 4123" d="M11.945,36.058,0,29.16v87.065l11.945-6.9Z" transform="translate(0 14.38)" fill="#fd1015"/>
          <path id="Контур_4124" data-name="Контур 4124" d="M0,43.54,75.4,0V13.8L11.945,50.438Z" transform="translate(0 0)" fill="#b70b12"/>
          <path id="Контур_4125" data-name="Контур 4125" d="M113.958,50.438l11.945-6.9L50.5,0V13.8Z" transform="translate(24.903 0)" fill="#fd1015"/>
          <path id="Контур_4126" data-name="Контур 4126" d="M54.655,88.751a12.595,12.595,0,1,0,12.587,12.6,12.6,12.6,0,0,0-12.587-12.6m0,23.263A10.65,10.65,0,0,1,52.49,90.931v-.956h4.345v.956a10.652,10.652,0,0,1-2.18,21.083" transform="translate(20.745 43.766)" fill="#383b4d"/>
          <path id="Контур_4127" data-name="Контур 4127" d="M61.039,99.7a7.92,7.92,0,1,1-10.094-7.585v8.571H55.29V92.111A7.878,7.878,0,0,1,61.039,99.7" transform="translate(22.289 45.423)" fill="#383b4d"/>
          <path id="Контур_4128" data-name="Контур 4128" d="M120.536,109.734h2.4v6.609h-2.249l-.449-4.348H106.584V92.021h2.85v17.713h8.251V92.021h2.85Z" transform="translate(52.561 45.379)" fill="#fefefe"/>
          <path id="Контур_4129" data-name="Контур 4129" d="M132.145,110.443h-2.729v-6.9q0-1.738.119-3.3t.211-2.058l-6.631,12.262h-3.268V95.167h2.729v6.9c0,1.024-.042,2.083-.119,3.174s-.142,1.793-.181,2.1l6.54-12.175h3.33Z" transform="translate(59.101 46.93)" fill="#fefefe"/>
          <path id="Контур_4130" data-name="Контур 4130" d="M150.752,99.011A11.54,11.54,0,0,1,152,104.925a10.425,10.425,0,0,1-1.439,5.826,4.537,4.537,0,0,1-3.991,2.174,4.252,4.252,0,0,1-3.63-1.943v7.451l-2.64.32v-7.77a4.469,4.469,0,0,1-1.68,1.435,4.848,4.848,0,0,1-2.19.508,4.3,4.3,0,0,1-3.8-2.174,10.687,10.687,0,0,1-1.395-5.826,11.761,11.761,0,0,1,1.215-5.9,4.276,4.276,0,0,1,4-2.072,4.747,4.747,0,0,1,3.84,1.681v-7.8l2.64.32v7.537a4.98,4.98,0,0,1,7.815.318M138.842,110.3A4.938,4.938,0,0,0,140.3,108.9v-8.087a4.023,4.023,0,0,0-3.271-1.74,2.267,2.267,0,0,0-2.1,1.463,10.365,10.365,0,0,0-.72,4.393,10.074,10.074,0,0,0,.751,4.406,2.306,2.306,0,0,0,2.1,1.478,3.335,3.335,0,0,0,1.784-.508m9.405-.971a9.724,9.724,0,0,0,.779-4.406q0-5.855-2.97-5.856a3.662,3.662,0,0,0-3.119,1.8v8.058a4.859,4.859,0,0,0,1.38,1.405,3.163,3.163,0,0,0,1.74.479,2.4,2.4,0,0,0,2.19-1.478" transform="translate(64.718 44.795)" fill="#fefefe"/>
          <path id="Контур_4131" data-name="Контур 4131" d="M160,97.02a10.455,10.455,0,0,1,1.41,5.884,9.561,9.561,0,0,1-1.62,5.8,5.358,5.358,0,0,1-4.59,2.2,5.177,5.177,0,0,1-4.14-1.74v7.248l-2.759.32V95.281h2.37l.211,2.058a6.008,6.008,0,0,1,2.1-1.783,5.638,5.638,0,0,1,2.58-.623A4.978,4.978,0,0,1,160,97.02m-1.56,5.884q0-5.855-3.572-5.856a3.637,3.637,0,0,0-2.128.667,6.641,6.641,0,0,0-1.681,1.71v7.451a4.1,4.1,0,0,0,1.5,1.377,4.159,4.159,0,0,0,1.98.478q3.9,0,3.9-5.826" transform="translate(73.13 46.815)" fill="#fefefe"/>
          <path id="Контур_4132" data-name="Контур 4132" d="M171.722,97.078a8.637,8.637,0,0,1,1.846,5.826,9.885,9.885,0,0,1-.839,4.19,6.428,6.428,0,0,1-2.431,2.812,6.948,6.948,0,0,1-3.781,1,6.5,6.5,0,0,1-5.19-2.146,8.593,8.593,0,0,1-1.859-5.826,9.863,9.863,0,0,1,.839-4.19,6.432,6.432,0,0,1,2.429-2.812,7.019,7.019,0,0,1,3.81-1,6.46,6.46,0,0,1,5.175,2.144m-9.284,5.856q0,5.828,4.079,5.826T170.6,102.9q0-5.825-4.051-5.826-4.11,0-4.109,5.856" transform="translate(78.64 46.816)" fill="#fefefe"/>
          <path id="Контур_4133" data-name="Контур 4133" d="M184.323,105.862a3.9,3.9,0,0,1-1.814,3.551,8.985,8.985,0,0,1-4.845,1.145h-5.7V95.483a26.979,26.979,0,0,1,5.19-.549,8.7,8.7,0,0,1,4.65,1.072,3.423,3.423,0,0,1,1.71,3.073,2.857,2.857,0,0,1-.811,2.116,4.27,4.27,0,0,1-2.4,1.072q4.02.379,4.02,3.6m-9.6-8.7v4.32h2.97a3.978,3.978,0,0,0,2.22-.521,1.971,1.971,0,0,0,.781-1.769,1.814,1.814,0,0,0-.871-1.681,5.257,5.257,0,0,0-2.64-.521,17.28,17.28,0,0,0-2.461.173m5.7,10.727a2.216,2.216,0,0,0,.99-2.087,1.993,1.993,0,0,0-.841-1.8,5.459,5.459,0,0,0-2.85-.551h-3v5.015h2.94a5.489,5.489,0,0,0,2.761-.579" transform="translate(84.802 46.816)" fill="#fefefe"/>
          <path id="Контур_4134" data-name="Контур 4134" d="M194.571,108.37a2.01,2.01,0,0,0,.99.681l-.629,1.856a4.314,4.314,0,0,1-1.981-.667,3.038,3.038,0,0,1-1.109-1.623,5.367,5.367,0,0,1-4.711,2.29,5.158,5.158,0,0,1-3.69-1.275,4.377,4.377,0,0,1-1.35-3.334,4.325,4.325,0,0,1,1.816-3.74,8.714,8.714,0,0,1,5.144-1.3h2.431v-1.132a2.918,2.918,0,0,0-.811-2.319,3.76,3.76,0,0,0-2.491-.7,14.378,14.378,0,0,0-4.258.812l-.69-1.943a16.388,16.388,0,0,1,5.459-1.044,5.831,5.831,0,0,1,4.17,1.32,4.946,4.946,0,0,1,1.38,3.754v6.986a2.335,2.335,0,0,0,.33,1.377m-3.089-1.841v-3.507H189.41q-4.381,0-4.379,3.131a2.806,2.806,0,0,0,.69,2.058,2.749,2.749,0,0,0,2.04.7,4.131,4.131,0,0,0,3.721-2.377" transform="translate(89.796 46.815)" fill="#fefefe"/>
          <path id="Контур_4135" data-name="Контур 4135" d="M205.45,95.166v15.278H202.69v-5.856h-3.451l-3.33,5.856H192.82l3.779-6.465a4.293,4.293,0,0,1-2.789-4.145,4,4,0,0,1,1.68-3.464,7.983,7.983,0,0,1,4.709-1.2Zm-2.761,7.393V97.225h-2.55a4.35,4.35,0,0,0-2.565.623,2.292,2.292,0,0,0-.854,1.986,2.522,2.522,0,0,0,.794,2.087,4.118,4.118,0,0,0,2.565.638Z" transform="translate(95.087 46.93)" fill="#fefefe"/>
          <path id="Контур_4136" data-name="Контур 4136" d="M221.993,95.166l-.33,2.174h-5.069v13.1h-2.761V97.34h-5.22V95.166Z" transform="translate(102.875 46.93)" fill="#fefefe"/>
          <path id="Контур_4137" data-name="Контур 4137" d="M231.236,103.833h-10.08a5.829,5.829,0,0,0,1.32,3.71,3.894,3.894,0,0,0,2.941,1.189,6.606,6.606,0,0,0,2.1-.32,8.581,8.581,0,0,0,2.01-1.014l1.2,1.595a8.928,8.928,0,0,1-5.519,1.913,6.508,6.508,0,0,1-5.145-2.087,8.362,8.362,0,0,1-1.846-5.74,10.528,10.528,0,0,1,.8-4.218,6.642,6.642,0,0,1,2.28-2.885,6.644,6.644,0,0,1,8.324.957,8.352,8.352,0,0,1,1.68,5.537c0,.445-.021.9-.06,1.363m-2.67-2.146a5.514,5.514,0,0,0-.93-3.451,3.325,3.325,0,0,0-2.789-1.187q-3.391,0-3.691,4.812h7.41Z" transform="translate(107.611 46.816)" fill="#fefefe"/>
          <path id="Контур_4138" data-name="Контур 4138" d="M236.7,102.268l5.49,8.175h-3.331l-3.87-6.464-3.928,6.464h-3.121l5.52-8.058-4.89-7.218h3.24l3.3,5.595,3.33-5.595h3.121Z" transform="translate(112.406 46.93)" fill="#fefefe"/>
          <path id="Контур_4139" data-name="Контур 4139" d="M248.824,110.443v-6.725h-6.57v6.725h-2.759V95.167h2.759v6.406h6.57V95.167h2.761v15.276Z" transform="translate(118.104 46.93)" fill="#fefefe"/>
          <path id="Контур_4140" data-name="Контур 4140" d="M263.708,110.443h-2.729v-6.9q0-1.738.119-3.3t.211-2.058l-6.631,12.262h-3.268V95.167h2.729v6.9c0,1.024-.042,2.083-.119,3.174s-.142,1.793-.181,2.1l6.54-12.175h3.33Z" transform="translate(123.979 46.93)" fill="#fefefe"/>
          <path id="Контур_4141" data-name="Контур 4141" d="M275.313,95.166l-4.8,7.073,5.369,8.2h-3.27l-4.379-7.043h-2.011v7.043h-2.759V95.166h2.759v6.146h2.071l3.99-6.146Z" transform="translate(129.924 46.93)" fill="#fefefe"/>
          <path id="Контур_4142" data-name="Контур 4142" d="M285.066,108.37a2.01,2.01,0,0,0,.99.681l-.629,1.856a4.313,4.313,0,0,1-1.981-.667,3.038,3.038,0,0,1-1.109-1.623,5.367,5.367,0,0,1-4.711,2.29,5.157,5.157,0,0,1-3.69-1.275,4.376,4.376,0,0,1-1.35-3.334,4.325,4.325,0,0,1,1.816-3.74,8.714,8.714,0,0,1,5.144-1.3h2.431v-1.132a2.918,2.918,0,0,0-.811-2.319,3.76,3.76,0,0,0-2.491-.7,14.378,14.378,0,0,0-4.258.812l-.69-1.943a16.388,16.388,0,0,1,5.459-1.044,5.832,5.832,0,0,1,4.17,1.32,4.947,4.947,0,0,1,1.38,3.754v6.986a2.335,2.335,0,0,0,.33,1.377m-3.089-1.841v-3.507h-2.071q-4.381,0-4.379,3.131a2.806,2.806,0,0,0,.69,2.058,2.749,2.749,0,0,0,2.04.7,4.131,4.131,0,0,0,3.721-2.377" transform="translate(134.422 46.815)" fill="#fefefe"/>
          <path id="Контур_4143" data-name="Контур 4143" d="M302.144,110.443h-2.729v-6.9q0-1.738.119-3.3t.211-2.058l-6.631,12.262h-3.268V95.167h2.729v6.9c0,1.024-.042,2.083-.119,3.174s-.142,1.793-.181,2.1l6.54-12.175h3.33Z" transform="translate(142.933 46.93)" fill="#fefefe"/>
          <path id="Контур_4144" data-name="Контур 4144" d="M318.7,108.37a2.01,2.01,0,0,0,.99.681l-.629,1.856a4.313,4.313,0,0,1-1.981-.667,3.038,3.038,0,0,1-1.109-1.623,5.367,5.367,0,0,1-4.711,2.29,5.157,5.157,0,0,1-3.69-1.275,4.376,4.376,0,0,1-1.35-3.334,4.325,4.325,0,0,1,1.816-3.74,8.714,8.714,0,0,1,5.144-1.3h2.431v-1.132A2.918,2.918,0,0,0,314.8,97.8a3.76,3.76,0,0,0-2.491-.7,14.378,14.378,0,0,0-4.258.812l-.69-1.943a16.388,16.388,0,0,1,5.459-1.044,5.832,5.832,0,0,1,4.17,1.32,4.947,4.947,0,0,1,1.38,3.754v6.986a2.335,2.335,0,0,0,.33,1.377m-3.089-1.841v-3.507h-2.071q-4.381,0-4.379,3.131a2.806,2.806,0,0,0,.69,2.058,2.749,2.749,0,0,0,2.04.7,4.131,4.131,0,0,0,3.721-2.377" transform="translate(151.008 46.815)" fill="#fefefe"/>
          <path id="Контур_4145" data-name="Контур 4145" d="M330,95.166l-4.8,7.073,5.369,8.2H327.3l-4.379-7.043h-2.011v7.043h-2.759V95.166h2.759v6.146h2.071l3.99-6.146Z" transform="translate(156.893 46.93)" fill="#fefefe"/>
          <path id="Контур_4146" data-name="Контур 4146" d="M337.117,95.324a7.287,7.287,0,0,1,2.25,1.262l-1.32,1.681a6.849,6.849,0,0,0-1.635-.856,5.332,5.332,0,0,0-1.754-.276,3.463,3.463,0,0,0-2.985,1.48,7.456,7.456,0,0,0-1.065,4.376,7.041,7.041,0,0,0,1.05,4.276,3.543,3.543,0,0,0,3,1.377,5.106,5.106,0,0,0,1.71-.275,8.81,8.81,0,0,0,1.739-.884l1.26,1.74a7.666,7.666,0,0,1-4.83,1.681,6.4,6.4,0,0,1-5.054-2.087,8.41,8.41,0,0,1-1.845-5.769,10.113,10.113,0,0,1,.841-4.261,6.328,6.328,0,0,1,6.059-3.855,8.085,8.085,0,0,1,2.58.391" transform="translate(161.57 46.815)" fill="#fefefe"/>
          <path id="Контур_4147" data-name="Контур 4147" d="M349.86,103.833H339.78a5.829,5.829,0,0,0,1.32,3.71,3.894,3.894,0,0,0,2.941,1.189,6.606,6.606,0,0,0,2.1-.32,8.581,8.581,0,0,0,2.01-1.014l1.2,1.595a8.928,8.928,0,0,1-5.519,1.913,6.508,6.508,0,0,1-5.145-2.087,8.363,8.363,0,0,1-1.846-5.74,10.527,10.527,0,0,1,.8-4.218,6.642,6.642,0,0,1,2.28-2.885,6.644,6.644,0,0,1,8.324.957,8.352,8.352,0,0,1,1.68,5.537c0,.445-.021.9-.06,1.363m-2.67-2.146a5.514,5.514,0,0,0-.93-3.451,3.325,3.325,0,0,0-2.789-1.187q-3.391,0-3.691,4.812h7.41Z" transform="translate(166.109 46.816)" fill="#fefefe"/>
          <path id="Контур_4148" data-name="Контур 4148" d="M357.27,95.324a7.286,7.286,0,0,1,2.25,1.262l-1.32,1.681a6.849,6.849,0,0,0-1.635-.856,5.331,5.331,0,0,0-1.754-.276,3.463,3.463,0,0,0-2.985,1.48,7.456,7.456,0,0,0-1.065,4.376,7.041,7.041,0,0,0,1.05,4.276,3.543,3.543,0,0,0,3,1.377,5.106,5.106,0,0,0,1.71-.275,8.811,8.811,0,0,0,1.74-.884l1.26,1.74a7.666,7.666,0,0,1-4.83,1.681,6.4,6.4,0,0,1-5.054-2.087,8.41,8.41,0,0,1-1.846-5.769,10.113,10.113,0,0,1,.841-4.261,6.328,6.328,0,0,1,6.059-3.855,8.085,8.085,0,0,1,2.58.391" transform="translate(171.508 46.815)" fill="#fefefe"/>
          <path id="Контур_4149" data-name="Контур 4149" d="M366.472,95.324a7.286,7.286,0,0,1,2.25,1.262l-1.32,1.681a6.85,6.85,0,0,0-1.635-.856,5.332,5.332,0,0,0-1.754-.276,3.463,3.463,0,0,0-2.985,1.48,7.456,7.456,0,0,0-1.065,4.376,7.041,7.041,0,0,0,1.05,4.276,3.543,3.543,0,0,0,3,1.377,5.106,5.106,0,0,0,1.71-.275,8.81,8.81,0,0,0,1.74-.884l1.26,1.74a7.666,7.666,0,0,1-4.83,1.681,6.4,6.4,0,0,1-5.054-2.087,8.41,8.41,0,0,1-1.845-5.769,10.113,10.113,0,0,1,.841-4.261,6.328,6.328,0,0,1,6.059-3.855,8.085,8.085,0,0,1,2.58.391" transform="translate(176.046 46.815)" fill="#fefefe"/>
          <path id="Контур_4150" data-name="Контур 4150" d="M374.533,110.53a10.269,10.269,0,0,1-2.6,4.218,7.979,7.979,0,0,1-4.756,1.869l-.3-2.087a8.32,8.32,0,0,0,2.491-.753,4.25,4.25,0,0,0,1.484-1.262,8.634,8.634,0,0,0,1.035-2.072h-.93l-5.308-15.278h2.938l4.23,13.335,4.14-13.335h2.85Z" transform="translate(180.317 46.93)" fill="#fefefe"/>
          <path id="Контур_4151" data-name="Контур 4151" d="M388.4,108.37a2.01,2.01,0,0,0,.99.681l-.629,1.856a4.314,4.314,0,0,1-1.981-.667,3.038,3.038,0,0,1-1.109-1.623,5.367,5.367,0,0,1-4.711,2.29,5.158,5.158,0,0,1-3.69-1.275,4.377,4.377,0,0,1-1.35-3.334,4.325,4.325,0,0,1,1.816-3.74,8.714,8.714,0,0,1,5.144-1.3h2.431v-1.132A2.918,2.918,0,0,0,384.5,97.8a3.76,3.76,0,0,0-2.491-.7,14.378,14.378,0,0,0-4.258.812l-.69-1.943a16.388,16.388,0,0,1,5.459-1.044,5.831,5.831,0,0,1,4.17,1.32,4.946,4.946,0,0,1,1.38,3.754v6.986a2.335,2.335,0,0,0,.33,1.377m-3.089-1.841v-3.507h-2.071q-4.381,0-4.379,3.131a2.806,2.806,0,0,0,.69,2.058,2.749,2.749,0,0,0,2.04.7,4.131,4.131,0,0,0,3.721-2.377" transform="translate(185.38 46.815)" fill="#fefefe"/>
          <path id="Контур_4152" data-name="Контур 4152" d="M399.554,97.02a10.455,10.455,0,0,1,1.409,5.884,9.562,9.562,0,0,1-1.62,5.8,5.359,5.359,0,0,1-4.59,2.2,5.177,5.177,0,0,1-4.14-1.74v7.248l-2.759.32V95.281h2.37l.211,2.058a6.008,6.008,0,0,1,2.1-1.783,5.638,5.638,0,0,1,2.58-.623,4.978,4.978,0,0,1,4.441,2.087m-1.56,5.884q0-5.855-3.572-5.856a3.637,3.637,0,0,0-2.128.667,6.641,6.641,0,0,0-1.681,1.71v7.451a4.1,4.1,0,0,0,1.5,1.377,4.159,4.159,0,0,0,1.98.478q3.9,0,3.9-5.826" transform="translate(191.265 46.815)" fill="#fefefe"/>
          <path id="Контур_4153" data-name="Контур 4153" d="M409.478,101.428a4.678,4.678,0,0,1,1.59,3.8,4.54,4.54,0,0,1-1.786,3.9,7.24,7.24,0,0,1-4.424,1.32h-5.069V95.166h2.758v4.927h1.8q3.539,0,5.13,1.335m-2.265,6.2a2.89,2.89,0,0,0,.915-2.405,2.973,2.973,0,0,0-.856-2.349,4.5,4.5,0,0,0-2.955-.754h-1.771v6.234h2.071a4.088,4.088,0,0,0,2.6-.726m6.135-12.465h2.761v15.276h-2.761Z" transform="translate(197.151 46.93)" fill="#fefefe"/>
        </g>
      </g>
    </g>
  </g>
</svg>
