<svg xmlns="http://www.w3.org/2000/svg" width="760" height="570.75" viewBox="0 0 760 570.75">
  <g id="Сгруппировать_1462" data-name="Сгруппировать 1462" transform="translate(-1918 -770)">
    <rect id="Прямоугольник_122" data-name="Прямоугольник 122" width="760" height="570.75" rx="75" transform="translate(1918 770)" fill="#f0b429"/>
    <g id="Слой_2" data-name="Слой 2" transform="translate(2016 931)">
      <g id="Слой_1" data-name="Слой 1" transform="translate(0 0)">
        <g id="Слой_2-2" data-name="Слой 2" transform="translate(272.069 122.235)">
          <path id="Слой_1-2" data-name="Слой 1-2" d="M321.38,58.8a8.461,8.461,0,0,0-2.478-5.2,8.219,8.219,0,0,0-13.839,5.2ZM304.761,68.835a6.043,6.043,0,0,0,2.478,5.439,9.79,9.79,0,0,0,5.681,1.632,13.9,13.9,0,0,0,4.17-.544,9.548,9.548,0,0,0,2.78-1.571,9.55,9.55,0,0,1,1.45-1.088,3.687,3.687,0,0,1,1.571,0h12.087a2.115,2.115,0,0,1,1.45.544,1.994,1.994,0,0,1,.544,1.45,9.609,9.609,0,0,1-2.719,5.137,23.327,23.327,0,0,1-7.917,6.043,29.492,29.492,0,0,1-12.993,2.6,24.173,24.173,0,0,1-18.13-6.527,24.535,24.535,0,0,1-6.587-18.13,27.68,27.68,0,0,1,2.84-12.751,20.91,20.91,0,0,1,8.4-8.642A26.409,26.409,0,0,1,313.1,39.284a25.261,25.261,0,0,1,13.96,3.566,21.454,21.454,0,0,1,7.917,9.065A29.189,29.189,0,0,1,337.516,64v2.538a2.417,2.417,0,0,1-.725,1.753,2.3,2.3,0,0,1-1.692.725ZM266.084,58.743a8.461,8.461,0,0,0-2.478-5.2,8.642,8.642,0,0,0-11.361,0,8.823,8.823,0,0,0-2.538,5.2ZM249.707,68.835a6.043,6.043,0,0,0,2.478,5.439,9.79,9.79,0,0,0,5.681,1.632,13.9,13.9,0,0,0,4.23-.544,9.548,9.548,0,0,0,2.78-1.571,9.547,9.547,0,0,1,1.45-1.088,3.686,3.686,0,0,1,1.571,0h12.087a2.115,2.115,0,0,1,1.45.544,2,2,0,0,1,.544,1.45,9.609,9.609,0,0,1-2.72,5.137,23.327,23.327,0,0,1-7.917,6.043,29.491,29.491,0,0,1-12.993,2.6,24.173,24.173,0,0,1-18.13-6.527,24.536,24.536,0,0,1-6.829-18.13,27.679,27.679,0,0,1,2.84-12.751,20.91,20.91,0,0,1,8.4-8.642,26.409,26.409,0,0,1,13.235-3.143,25.261,25.261,0,0,1,13.96,3.566,21.151,21.151,0,0,1,7.917,9.307,28.586,28.586,0,0,1,2.6,12.087v2.538a2.417,2.417,0,0,1-.725,1.753,2.3,2.3,0,0,1-1.692.725Zm-47.5-15.652a7.494,7.494,0,0,0-5.741,2.115,8.823,8.823,0,0,0-2.357,5.076v3.2a18.786,18.786,0,0,0,0,3.143,9.306,9.306,0,0,0,2.417,5.2,7.252,7.252,0,0,0,5.681,2.055A7.554,7.554,0,0,0,208.25,71.8a9.366,9.366,0,0,0,2.236-5.681V61.16a9.428,9.428,0,0,0-2.236-5.681,7.554,7.554,0,0,0-5.741-2.236Zm24.173,6.829a34.812,34.812,0,0,1,0,3.626,35.589,35.589,0,0,1,0,3.807,21.333,21.333,0,0,1-6.043,15.531,20.306,20.306,0,0,1-14.323,5.318,20.73,20.73,0,0,1-6.043-.786,11.6,11.6,0,0,1-3.747-1.873,23.211,23.211,0,0,1-2.78-2.78v2.115a2.3,2.3,0,0,1-.725,1.692,2.478,2.478,0,0,1-1.753.725H180.088a2.478,2.478,0,0,1-1.753-.725,2.3,2.3,0,0,1-.725-1.692V25.2a2.478,2.478,0,0,1,.725-1.753,2.357,2.357,0,0,1,1.753-.725H191.57a2.357,2.357,0,0,1,1.692.725,2.478,2.478,0,0,1,.725,1.753V44.6a13.779,13.779,0,0,1,4.532-3.928,15.289,15.289,0,0,1,7.615-1.632,20,20,0,0,1,14.383,5.318A21.514,21.514,0,0,1,226.8,60.012ZM167.518,84.85a2.6,2.6,0,0,1-2.478,2.478H153.558a2.6,2.6,0,0,1-2.478-2.478V61.885a9.548,9.548,0,0,0-1.934-6.043,8.461,8.461,0,0,0-12.087,0,9.488,9.488,0,0,0-1.994,6.043V84.91a2.6,2.6,0,0,1-2.478,2.478H121.952a2.478,2.478,0,0,1-1.753-.725,2.3,2.3,0,0,1-.725-1.692v-42.3a2.357,2.357,0,0,1,.725-1.753,2.3,2.3,0,0,1,1.753-.725h11a2.476,2.476,0,0,1,2.478,2.478v2.115a15.169,15.169,0,0,1,12.812-5.439,19.762,19.762,0,0,1,14.5,5.2A21.031,21.031,0,0,1,168,60.073Zm-59.043,0a2.3,2.3,0,0,1-.725,1.692,2.357,2.357,0,0,1-1.753.725H95a2.357,2.357,0,0,1-1.753-.725,2.176,2.176,0,0,1-.725-1.692v-42.3a2.357,2.357,0,0,1,.725-1.753A2.176,2.176,0,0,1,95,40.069H106.42a2.476,2.476,0,0,1,2.478,2.478Zm0-52.275A2.476,2.476,0,0,1,106,35.053H95a2.357,2.357,0,0,1-1.753-.725,2.236,2.236,0,0,1-.725-1.753V23.39a2.478,2.478,0,0,1,.725-1.753A2.357,2.357,0,0,1,95,20.912H106.42a2.357,2.357,0,0,1,1.692.725,2.478,2.478,0,0,1,.725,1.753ZM81.159,40.069a2.478,2.478,0,0,1,1.753.725,2.357,2.357,0,0,1,.725,1.753v9.186a2.3,2.3,0,0,1-.725,1.692,2.478,2.478,0,0,1-1.753.725H69.919V84.91a2.3,2.3,0,0,1-.725,1.692,2.357,2.357,0,0,1-1.753.725H56.019a2.357,2.357,0,0,1-1.753-.725,2.176,2.176,0,0,1-.725-1.692V54.15H47.5a2.477,2.477,0,0,1-2.478-2.417V42.487a2.357,2.357,0,0,1,.725-1.753,2.3,2.3,0,0,1,1.753-.725h6.043V37.591A15.833,15.833,0,0,1,59.1,24.9a21.333,21.333,0,0,1,14.262-4.653h8.642a2.417,2.417,0,0,1,2.357,2.478v9.186a2.357,2.357,0,0,1-.725,1.753,2.478,2.478,0,0,1-1.753.725H73.847a3.505,3.505,0,0,0-3.928,3.928v1.994Z" transform="translate(-45.02 -20.227)" fill="#141014"/>
        </g>
        <path id="Контур_4212" data-name="Контур 4212" d="M73.405,12.644A81.887,81.887,0,0,0,11.28,41.107,83.76,83.76,0,0,1,63.192,26.362,97.961,97.961,0,0,1,86.64,51.381l11.3-1.027,16.075-2.84v1.511c3.566,9.911,6.587,26.651-10.032,29.31a23.327,23.327,0,0,1-5.2.363,95.726,95.726,0,0,1-8.158,70.163,107.329,107.329,0,0,1-46.836-23.871v27.98c24.173.363,34.991,23.69,34.991,23.69,5.2-1.088,11.3-2.659,18.553-4.835a81.585,81.585,0,0,0-24.173-159.6" transform="translate(56.888 61.629)" fill="#fff"/>
        <path id="Контур_4213" data-name="Контур 4213" d="M39.223,71.535a21.272,21.272,0,0,1-24.959-9.971c-6.043-11.12-2.84-15.652,1.027-19.4A14.323,14.323,0,0,1,26.17,38.6,104.005,104.005,0,0,1,23.934,17.75,81.222,81.222,0,0,0,30.4,122.178c4.23-1.39,8.521,8.944,12.751,8.1v-42.3h7.977A108.173,108.173,0,0,1,39.042,71.535" transform="translate(40.125 89.519)" fill="#fff"/>
        <path id="Контур_4214" data-name="Контур 4214" d="M46.133,50.7l2.357-.846,2.236-1.088,1.088-.544L52.9,47.56A17.04,17.04,0,0,0,54.9,46.17a19.943,19.943,0,0,0,6.043-7.8A29.31,29.31,0,0,0,61.725,19.7l-2.538.483a25.986,25.986,0,0,1-1.813,16.5,18.916,18.916,0,0,1-12.691,9,18.13,18.13,0,0,1-7.735,0,19.1,19.1,0,0,1-7.01-3.082,25.322,25.322,0,0,1-5.56-5.5A23.69,23.69,0,0,1,21.114,30.4L13.56,32.814a29.431,29.431,0,0,0,5.379,8.823,31.3,31.3,0,0,0,7.675,6.527,25.563,25.563,0,0,0,9.669,3.384A24.777,24.777,0,0,0,46.436,50.7" transform="translate(68.387 99.353)" fill="#141014"/>
        <path id="Контур_4215" data-name="Контур 4215" d="M26.492,40.948a8.521,8.521,0,0,0,8.521-8.521,8.52,8.52,0,0,0,0-2.115,4.774,4.774,0,1,1-6.95-6.043H26.855a8.521,8.521,0,1,0,0,16.8M77.316,26.383a4.171,4.171,0,0,1-2.659-7.433h-.725a6.889,6.889,0,1,0,7.01,7.01,5.681,5.681,0,0,0,0-1.511A3.989,3.989,0,0,1,77.5,26.383M37.672,76A19.822,19.822,0,0,1,26.25,67.055L20.207,69.17a25.563,25.563,0,0,0,15.41,12.751,38.677,38.677,0,0,0,13.9,2.659,37.106,37.106,0,0,0,12.51-2.236L59.79,76.3a31.546,31.546,0,0,1-22-.363M45.71,55.512l-4.23,4.23a12.751,12.751,0,0,0,22-9H57.011a6.406,6.406,0,0,1-1.692,4.714,6.587,6.587,0,0,1-9.367,0" transform="translate(85.249 95.57)" fill="#141014"/>
        <path id="Контур_4216" data-name="Контур 4216" d="M172.113,111.378a38.858,38.858,0,0,1,3.143,15.531,17.042,17.042,0,0,1-2.659,8.823,15.35,15.35,0,0,1-7.554,6.043,27.015,27.015,0,0,1-5.318,1.33v.483a96.693,96.693,0,0,1,2.6,17.526,102.734,102.734,0,0,1,0,18.13,101.1,101.1,0,0,1-10.455,34.084l-1.39,2.84-3.807-.483a91.435,91.435,0,0,1-35.474-12.51v10.878a44.659,44.659,0,0,1,12.087,4.9,46.831,46.831,0,0,1,4.653,3.143,20.427,20.427,0,0,0,.6-4.532h4.23a27.376,27.376,0,0,1-.786,8.279l1.329,1.269a45.144,45.144,0,0,1,8.038,10.818,53.061,53.061,0,0,1,2.659,6.043,8.523,8.523,0,0,0,.483,1.632l-9.186,2.9a12.63,12.63,0,0,0-.363-1.753,42.3,42.3,0,0,0-1.813-5.076A33.42,33.42,0,0,0,128.9,234a33.543,33.543,0,0,1-2.357,3.143,29.491,29.491,0,0,1-19.58,10.032,30.821,30.821,0,0,1-21.816-6.043,31.365,31.365,0,0,1-10.334-13.839,128.116,128.116,0,0,0-9.911,18.13l-1.632,3.807-6.043-2.961,1.511-3.505A126.913,126.913,0,0,1,71.492,220.58a153.136,153.136,0,0,0-13.3-10.334c-5.681-4.23-11.482-7.977-17.4-11.724q-16.015-9.73-32.271-17.888L0,162.081A306.826,306.826,0,0,1,28.464,175.86c6.406,3.505,12.751,7.191,18.855,11.18A225.351,225.351,0,0,1,78.14,210.609l1.511-1.692v-4.653a413.578,413.578,0,0,0-16.377-41.094A24.173,24.173,0,0,1,49.918,141.9a16.377,16.377,0,0,1,.665-5.258C47.8,131.2,44.9,125.821,41.7,120.564c-2.115-3.505-4.23-7.01-6.587-10.394a76.873,76.873,0,0,0-7.071-9.186,18.553,18.553,0,0,0-3.868-3.505,5.56,5.56,0,0,0-2.538-.786,2.115,2.115,0,0,0-2.055.907,11.664,11.664,0,0,0-1.934,4.23,49.011,49.011,0,0,0-1.209,12.087c0,4.23.363,8.521.786,12.751.906,8.521,2.3,17.042,3.928,25.563a226.8,226.8,0,0,1-8.4-25.321A114.823,114.823,0,0,1,9.79,113.856,55.78,55.78,0,0,1,9.125,99.9a20.124,20.124,0,0,1,2.3-7.977,12.389,12.389,0,0,1,3.324-3.989A13.537,13.537,0,0,1,19.7,85.573,16.438,16.438,0,0,1,29.612,86.6a30.217,30.217,0,0,1,7.071,4.23,59.648,59.648,0,0,1,10.153,10.153,102.255,102.255,0,0,1,7.554,11.482c1.692,2.84,3.263,5.681,4.774,8.521a104.73,104.73,0,0,1,0-15.531V103.1l1.813-1.269a85.572,85.572,0,0,1,14.867-8.521A62,62,0,0,1,67.02,49.434a65.146,65.146,0,0,1,4.532-15.108,67.684,67.684,0,0,1,8.1-13.658A75.964,75.964,0,0,1,103.824,0l6.043,12.087A63.576,63.576,0,0,0,88.595,27.678a59.647,59.647,0,0,0-7.856,10.878A57.05,57.05,0,0,0,75.9,50.643a54.39,54.39,0,0,0,0,27.074A57.35,57.35,0,0,0,80.92,90.649a78.021,78.021,0,0,1,8.1-2.659,86.841,86.841,0,0,1,23.388-3.082,24.6,24.6,0,0,1,0-3.566,35.049,35.049,0,0,1,.363-6.043,48.83,48.83,0,0,1,8.521-22.179,50.462,50.462,0,0,1,18.13-16.136,53.362,53.362,0,0,1,23.569-6.345V41.276a43.632,43.632,0,0,0-19.58,4.23,44.479,44.479,0,0,0-24.173,31.546,35.3,35.3,0,0,0-.6,5.2,25.142,25.142,0,0,0,0,3.566h2.236l.544.363A113.671,113.671,0,0,1,134.645,97.66l2.961,3.2h8.1a68.168,68.168,0,0,1,14.323,1.33,26.651,26.651,0,0,1,7.252,2.538,12.086,12.086,0,0,1,3.324,2.659,7.675,7.675,0,0,1,1.873,4.23ZM68.531,107.692a106.481,106.481,0,0,0,1.994,14.746,62.306,62.306,0,0,1,6.043-6.043,61.4,61.4,0,0,1,6.043-4.23l.786-.483a25.262,25.262,0,0,1,3.263-1.088c1.209-.423,2.357-.846,3.566-1.209a196.471,196.471,0,0,1,27.5-6.043q6.527-1.088,13.174-1.632a104.728,104.728,0,0,0-11.966-11.059h-.363a41.214,41.214,0,0,0,1.511,7.131l-4.774,1.632a51.129,51.129,0,0,1-2.3-8.521,80.919,80.919,0,0,0-21.877,4.472A61.465,61.465,0,0,0,85.09,97.9a60.388,60.388,0,0,0,3.989,5.016l-3.143,2.961a68.652,68.652,0,0,1-5.318-6.043,78.018,78.018,0,0,0-12.087,7.856Zm42.3,112.949v6.587h-6.648v-8.461a57.1,57.1,0,0,0-6.587-.846v-5.681a50.218,50.218,0,0,1,6.587,0v-13.9A107.087,107.087,0,0,1,86.48,182.568v40.248a19.1,19.1,0,0,0,5.258,9.307,20.729,20.729,0,0,0,14.081,6.043,21.272,21.272,0,0,0,14.927-6.043,22.723,22.723,0,0,0,3.022-3.384,48.829,48.829,0,0,0-5.137-4.23,38.314,38.314,0,0,0-7.856-3.868Zm57.713-108.779c-.967-2.9-5.439-3.868-9.609-4.23a75.423,75.423,0,0,0-13.114,0h-2.3c.665.967,1.39,1.934,2.055,2.961l.967,1.511-6.587.6c-.967-1.45-1.934-2.84-2.961-4.23l-4.23.665c-4.23.725-8.884,1.632-13.3,2.538s-8.763,1.934-13.174,3.022-8.521,2.236-12.751,3.626l-2.961,1.088-1.209.544h-.363l-.786.906-6.043,3.263-4.23,2.055A14.262,14.262,0,0,1,80.134,128l-4.653,4.653a11.18,11.18,0,0,0-5.681-3.022h-.423a11.3,11.3,0,0,0-9.548,3.082,11.059,11.059,0,0,0-3.263,8.521,17.4,17.4,0,0,0,17.465,17.4,6.043,6.043,0,0,0,6.043-6.043h6.587a12.389,12.389,0,0,1-1.511,6.043l1.873,2.961c1.632,2.3,3.384,4.532,5.137,6.829a107.752,107.752,0,0,0,25.2,22.6,135.611,135.611,0,0,0,27.678,13.839,90.287,90.287,0,0,0,8.521-27.134,94.276,94.276,0,0,0-1.027-32.694,11.178,11.178,0,0,0-.423-1.994,18.129,18.129,0,0,1-6.043-2.115,18.674,18.674,0,0,1-6.708-7.312,26.167,26.167,0,0,1-2.84-9.065l7.675-.6a19.822,19.822,0,0,0,1.511,6.587,12.51,12.51,0,0,0,3.868,4.956,12.087,12.087,0,0,0,6.043,2.055,19.822,19.822,0,0,0,7.071-.786,10.092,10.092,0,0,0,5.56-3.566,12.752,12.752,0,0,0,2.6-6.285,35.716,35.716,0,0,0-2.357-14.806Z" transform="translate(0 0)" fill="#141014"/>
      </g>
    </g>
  </g>
</svg>
